<svg width="764" height="231" viewBox="0 0 764 231" fill="none" xmlns="http://www.w3.org/2000/svg">
<path d="M156.692 92.6807C156.692 105.334 155.12 116.864 151.976 127.271C148.831 137.603 144.039 146.512 137.601 153.999C131.237 161.486 123.151 167.251 113.343 171.294C103.535 175.262 91.93 177.246 78.5283 177.246C65.1266 177.246 53.5218 175.262 43.7139 171.294C33.9059 167.251 25.7826 161.486 19.3438 153.999C12.9798 146.512 8.22559 137.565 5.08105 127.158C1.93652 116.751 0.364258 105.184 0.364258 92.4561C0.364258 75.4606 3.13444 60.6738 8.6748 48.0957C14.29 35.4427 22.9001 25.6348 34.5049 18.6719C46.1097 11.709 60.859 8.22754 78.7529 8.22754C96.5719 8.22754 111.209 11.709 122.664 18.6719C134.194 25.6348 142.729 35.4427 148.27 48.0957C153.885 60.7487 156.692 75.6104 156.692 92.6807ZM36.8633 92.6807C36.8633 104.136 38.2858 114.019 41.1309 122.329C44.0508 130.565 48.5804 136.929 54.7197 141.421C60.859 145.838 68.7952 148.047 78.5283 148.047C88.4111 148.047 96.4222 145.838 102.562 141.421C108.701 136.929 113.156 130.565 115.926 122.329C118.771 114.019 120.193 104.136 120.193 92.6807C120.193 75.4606 116.974 61.9092 110.535 52.0264C104.096 42.1436 93.5023 37.2021 78.7529 37.2021C68.945 37.2021 60.9339 39.4482 54.7197 43.9404C48.5804 48.3577 44.0508 54.7217 41.1309 63.0322C38.2858 71.2679 36.8633 81.1507 36.8633 92.6807ZM227.781 177.246C213.781 177.246 202.363 171.781 193.528 160.85C184.769 149.844 180.389 133.709 180.389 112.446C180.389 90.9587 184.843 74.7119 193.753 63.7061C202.662 52.6253 214.305 47.085 228.68 47.085C234.669 47.085 239.948 47.9085 244.515 49.5557C249.082 51.2028 253.012 53.4115 256.307 56.1816C259.676 58.9518 262.521 62.0589 264.842 65.5029H265.965C265.516 63.1071 264.954 59.5882 264.28 54.9463C263.681 50.2295 263.382 45.4004 263.382 40.459V0.253906H297.747V175H271.468L264.842 158.716H263.382C261.211 162.16 258.478 165.304 255.184 168.149C251.964 170.92 248.108 173.128 243.616 174.775C239.124 176.423 233.846 177.246 227.781 177.246ZM239.798 149.956C249.157 149.956 255.745 147.186 259.563 141.646C263.457 136.03 265.516 127.607 265.74 116.377V112.671C265.74 100.467 263.868 91.1458 260.125 84.707C256.382 78.1934 249.419 74.9365 239.236 74.9365C231.674 74.9365 225.76 78.1934 221.492 84.707C217.225 91.2207 215.091 100.617 215.091 112.896C215.091 125.174 217.225 134.421 221.492 140.635C225.835 146.849 231.937 149.956 239.798 149.956ZM367.825 49.4434V175H333.572V49.4434H367.825ZM350.755 0.253906C355.846 0.253906 360.226 1.45182 363.895 3.84766C367.563 6.16862 369.397 10.5485 369.397 16.9873C369.397 23.3512 367.563 27.7686 363.895 30.2393C360.226 32.6351 355.846 33.833 350.755 33.833C345.589 33.833 341.172 32.6351 337.503 30.2393C333.909 27.7686 332.112 23.3512 332.112 16.9873C332.112 10.5485 333.909 6.16862 337.503 3.84766C341.172 1.45182 345.589 0.253906 350.755 0.253906ZM440.599 230.254C423.079 230.254 409.677 227.184 400.394 221.045C391.185 214.98 386.58 206.445 386.58 195.439C386.58 187.878 388.938 181.551 393.655 176.46C398.372 171.369 405.298 167.738 414.432 165.566C410.913 164.069 407.843 161.636 405.223 158.267C402.602 154.823 401.292 151.191 401.292 147.373C401.292 142.581 402.677 138.613 405.447 135.469C408.217 132.249 412.223 129.105 417.464 126.035C410.875 123.19 405.634 118.623 401.741 112.334C397.923 106.045 396.014 98.6328 396.014 90.0977C396.014 80.9635 397.998 73.2145 401.966 66.8506C406.009 60.4118 411.849 55.5078 419.485 52.1387C427.197 48.7695 436.556 47.085 447.562 47.085C449.882 47.085 452.578 47.2347 455.647 47.5342C458.717 47.8337 461.525 48.1706 464.07 48.5449C466.691 48.9193 468.45 49.2188 469.349 49.4434H513.147V66.8506L493.494 71.9043C495.291 74.6745 496.639 77.6318 497.537 80.7764C498.436 83.9209 498.885 87.2526 498.885 90.7715C498.885 104.248 494.168 114.767 484.734 122.329C475.376 129.816 462.348 133.56 445.652 133.56C441.684 133.335 437.941 133.035 434.422 132.661C432.7 134.009 431.39 135.431 430.491 136.929C429.593 138.426 429.144 139.998 429.144 141.646C429.144 143.293 429.817 144.678 431.165 145.801C432.588 146.849 434.684 147.673 437.454 148.271C440.299 148.796 443.818 149.058 448.011 149.058H469.349C483.125 149.058 493.606 152.015 500.794 157.93C508.056 163.844 511.688 172.529 511.688 183.984C511.688 198.659 505.548 210.039 493.27 218.125C481.066 226.211 463.509 230.254 440.599 230.254ZM442.059 207.905C450.219 207.905 457.22 207.119 463.06 205.547C468.974 204.049 473.504 201.878 476.648 199.033C479.793 196.263 481.365 192.931 481.365 189.038C481.365 185.894 480.429 183.385 478.558 181.514C476.761 179.717 473.991 178.444 470.247 177.695C466.578 176.947 461.862 176.572 456.097 176.572H438.353C434.16 176.572 430.379 177.246 427.01 178.594C423.715 179.941 421.095 181.813 419.148 184.209C417.202 186.68 416.229 189.525 416.229 192.744C416.229 197.461 418.475 201.167 422.967 203.862C427.534 206.558 433.898 207.905 442.059 207.905ZM447.562 112.671C454 112.671 458.717 110.687 461.712 106.719C464.707 102.751 466.204 97.36 466.204 90.5469C466.204 82.985 464.632 77.3324 461.487 73.5889C458.418 69.7705 453.776 67.8613 447.562 67.8613C441.272 67.8613 436.556 69.7705 433.411 73.5889C430.267 77.3324 428.694 82.985 428.694 90.5469C428.694 97.36 430.229 102.751 433.299 106.719C436.443 110.687 441.198 112.671 447.562 112.671ZM648.025 111.997C648.025 122.479 646.603 131.763 643.758 139.849C640.988 147.935 636.907 154.785 631.517 160.4C626.201 165.941 619.762 170.133 612.2 172.979C604.713 175.824 596.253 177.246 586.819 177.246C577.985 177.246 569.861 175.824 562.449 172.979C555.112 170.133 548.711 165.941 543.245 160.4C537.854 154.785 533.662 147.935 530.667 139.849C527.747 131.763 526.287 122.479 526.287 111.997C526.287 98.0713 528.758 86.2793 533.699 76.6211C538.641 66.9629 545.678 59.6257 554.812 54.6094C563.947 49.5931 574.84 47.085 587.493 47.085C599.248 47.085 609.655 49.5931 618.714 54.6094C627.848 59.6257 634.998 66.9629 640.164 76.6211C645.405 86.2793 648.025 98.0713 648.025 111.997ZM561.214 111.997C561.214 120.233 562.112 127.158 563.909 132.773C565.706 138.389 568.514 142.619 572.332 145.464C576.15 148.309 581.129 149.731 587.269 149.731C593.333 149.731 598.237 148.309 601.98 145.464C605.799 142.619 608.569 138.389 610.291 132.773C612.088 127.158 612.986 120.233 612.986 111.997C612.986 103.687 612.088 96.7985 610.291 91.333C608.569 85.7926 605.799 81.6374 601.98 78.8672C598.162 76.097 593.183 74.7119 587.044 74.7119C577.985 74.7119 571.396 77.819 567.278 84.0332C563.235 90.2474 561.214 99.5687 561.214 111.997ZM763.924 137.715C763.924 146.25 761.902 153.475 757.859 159.39C753.891 165.229 747.939 169.684 740.003 172.754C732.067 175.749 722.184 177.246 710.354 177.246C701.595 177.246 694.07 176.685 687.781 175.562C681.567 174.438 675.278 172.567 668.914 169.946V141.646C675.727 144.715 683.027 147.261 690.813 149.282C698.675 151.229 705.563 152.202 711.478 152.202C718.141 152.202 722.895 151.229 725.74 149.282C728.66 147.261 730.12 144.64 730.12 141.421C730.12 139.325 729.521 137.453 728.323 135.806C727.2 134.084 724.729 132.174 720.911 130.078C717.093 127.907 711.103 125.099 702.942 121.655C695.081 118.361 688.605 115.029 683.514 111.66C678.497 108.291 674.754 104.323 672.283 99.7559C669.887 95.1139 668.689 89.2367 668.689 82.124C668.689 70.5192 673.182 61.7969 682.166 55.957C691.225 50.0423 703.317 47.085 718.44 47.085C726.227 47.085 733.639 47.8711 740.677 49.4434C747.789 51.0156 755.089 53.5238 762.576 56.9678L752.244 81.6748C746.03 78.9795 740.153 76.7708 734.612 75.0488C729.147 73.3268 723.569 72.4658 717.879 72.4658C712.863 72.4658 709.082 73.1396 706.536 74.4873C703.991 75.835 702.718 77.8939 702.718 80.6641C702.718 82.6855 703.354 84.4824 704.627 86.0547C705.975 87.627 708.52 89.3864 712.264 91.333C716.082 93.2048 721.66 95.638 728.997 98.6328C736.11 101.553 742.286 104.622 747.527 107.842C752.768 110.986 756.811 114.917 759.656 119.634C762.501 124.276 763.924 130.303 763.924 137.715Z" fill="white"/>
</svg>
