<svg width="142" height="142" viewBox="0 0 142 142" fill="none" xmlns="http://www.w3.org/2000/svg">
    <defs>
        <clipPath id="clip0_6170_3124">
            <rect width="141.64" height="141.64" fill="white" />
        </clipPath>
    </defs>
    <g clip-path="url(#clip0_6170_3124)">
        <path
            fill="#1A1A1A"
            d="M115.193 0H26.4472C11.8408 0 0 11.8408 0 26.4472V115.193C0 129.799 11.8408 141.64 26.4472 141.64H115.193C129.799 141.64 141.64 129.799 141.64 115.193V26.4472C141.64 11.8408 129.799 0 115.193 0Z"
        />
        <path
            fill="white"
            d="M52.036 84.0132L36.4433 99.6059C36.0384 100.011 35.5005 100.198 34.9747 100.18C34.4187 100.156 33.8747 99.9021 33.5061 99.4246C30.9859 96.155 28.9491 92.6315 27.408 88.9448C27.1542 88.3344 27.0937 87.6757 27.2206 87.0592C27.3475 86.4428 27.6497 85.8505 28.1211 85.3851L40.3052 73.201C40.9398 72.5664 41.2601 71.7324 41.2601 70.8984C41.2601 70.0643 40.9459 69.2243 40.3052 68.5836L28.0305 56.3089C27.3899 55.6683 27.0514 54.804 27.0695 53.9277C27.0756 53.5348 27.1542 53.136 27.3113 52.7612C28.8403 49.0625 30.8589 45.5209 33.3731 42.2271C33.7297 41.7557 34.2615 41.5018 34.7994 41.4656C35.3373 41.4293 35.8994 41.6167 36.3164 42.0397L52.0481 57.7715C52.5558 58.2791 52.8157 58.95 52.8157 59.6208C52.8157 60.2917 52.5618 60.9565 52.0481 61.4702L44.9287 68.5897C44.288 69.2303 43.9738 70.0643 43.9738 70.8984C43.9738 71.7324 44.2941 72.5725 44.9287 73.2071L52.0481 80.3265C52.5558 80.8342 52.8157 81.5051 52.8157 82.1759C52.8157 82.8468 52.5618 83.5116 52.0481 84.0253L52.036 84.0132Z"
        />
        <path
            fill="white"
            d="M99.6722 36.3768L83.2757 52.7733C82.9191 53.1299 82.5021 53.4079 82.0488 53.6013C81.5653 53.8068 81.0395 53.9217 80.5016 53.9217H61.2706C60.7509 53.9217 60.2432 53.8189 59.7718 53.6255C59.3004 53.4321 58.8652 53.142 58.5026 52.7733L42.0275 36.2982C41.6105 35.8812 41.4231 35.3252 41.4533 34.7813C41.4836 34.2373 41.7434 33.7115 42.2148 33.355C45.4966 30.8408 49.0321 28.8161 52.7248 27.2811C53.2929 27.0453 53.8973 26.9849 54.4775 27.0756C55.1483 27.1844 55.7829 27.4986 56.2785 27.9942L68.5835 40.2992C69.1999 40.9156 69.9977 41.2299 70.8015 41.2541C71.6658 41.2782 72.5421 40.9579 73.2009 40.2992L85.4514 28.0486C85.9168 27.5832 86.503 27.275 87.1255 27.1481C87.748 27.0212 88.4068 27.0816 89.0112 27.3354C92.6918 28.8766 96.2213 30.9133 99.4909 33.4335C100.428 34.1527 100.506 35.5367 99.6722 36.3708V36.3768Z"
        />
        <path
            fill="white"
            d="M70.7956 81.1607C76.4666 81.1607 81.0638 76.5635 81.0638 70.8925C81.0638 65.2215 76.4666 60.6243 70.7956 60.6243C65.1246 60.6243 60.5273 65.2215 60.5273 70.8925C60.5273 76.5635 65.1246 81.1607 70.7956 81.1607Z"
        />
        <path
            fill="white"
            d="M42.0216 105.263L58.4181 88.8666C58.7384 88.5462 59.1071 88.2864 59.512 88.099C60.0318 87.8512 60.6059 87.7183 61.1922 87.7183H80.4232C80.943 87.7183 81.4506 87.821 81.922 88.0144C82.3934 88.2078 82.8286 88.4979 83.1912 88.8666L99.6663 105.342C100.041 105.716 100.234 106.206 100.24 106.689C100.253 107.288 99.9927 107.886 99.479 108.279C96.1972 110.793 92.6617 112.818 88.969 114.353C88.3586 114.607 87.7058 114.661 87.0833 114.534C86.4608 114.407 85.8806 114.105 85.4153 113.64L73.1103 101.335C72.4697 100.694 71.6357 100.38 70.8016 100.38C69.9676 100.38 69.1275 100.7 68.4929 101.335L56.2424 113.585C55.8133 114.014 55.2814 114.311 54.7194 114.45C54.0546 114.619 53.3414 114.57 52.6826 114.298C49.002 112.757 45.4725 110.721 42.2029 108.2C41.7375 107.838 41.4837 107.312 41.4474 106.774C41.4112 106.236 41.6045 105.68 42.0216 105.263Z"
        />
        <path
            fill="white"
            d="M89.6038 57.6266L105.197 42.0338C105.614 41.6168 106.17 41.4295 106.707 41.4597C107.245 41.4959 107.771 41.7498 108.134 42.2151C110.654 45.4848 112.691 49.0083 114.232 52.6949C114.359 52.9971 114.437 53.3174 114.468 53.6317C114.558 54.5866 114.22 55.5536 113.519 56.2547L101.335 68.4387C100.694 69.0794 100.38 69.9134 100.38 70.7474C100.38 71.5815 100.7 72.4215 101.335 73.0561L113.609 85.3309C114.075 85.7962 114.377 86.3764 114.504 86.9989C114.631 87.6214 114.576 88.2741 114.322 88.8785C112.793 92.5772 110.775 96.1189 108.261 99.4127C107.94 99.8297 107.487 100.077 107.016 100.156C106.417 100.247 105.783 100.071 105.317 99.6061L89.5857 83.8743C89.078 83.3667 88.8181 82.6958 88.8181 82.025C88.8181 81.3541 89.0719 80.6893 89.5857 80.1756L96.7051 73.0561C97.3276 72.4336 97.6419 71.6298 97.66 70.8139C97.6782 69.9557 97.3578 69.0915 96.7051 68.4387L89.5857 61.3193C89.078 60.8116 88.8181 60.1407 88.8181 59.4699C88.8181 58.799 89.0719 58.1342 89.5857 57.6205L89.6038 57.6266Z"
        />
    </g>

</svg>