<svg fill="none" width="1430" height="320" viewBox="0 0 143 32" xmlns="http://www.w3.org/2000/svg">
    <defs>
        <clipPath id="clip0_6008_4278">
            <rect fill="black" width="143" height="32" />
        </clipPath>
    </defs>
    <g clip-path="url(#clip0_6008_4278)">
        <path
            fill="black"
            d="M121.59 10.9688H119.354C119.158 10.9688 118.982 10.8888 118.854 10.7609C118.727 10.6329 118.647 10.4569 118.647 10.2614V8.02531C118.647 7.82979 118.567 7.65382 118.439 7.52584C118.311 7.39786 118.135 7.31787 117.939 7.31787H107.439C107.32 7.31787 107.203 7.34098 107.093 7.38186C106.968 7.42985 106.855 7.50273 106.759 7.60049L103.702 10.6578C103.611 10.7484 103.542 10.8533 103.494 10.9688C103.446 11.0844 103.419 11.2106 103.419 11.3403V21.7866C103.419 21.9448 103.471 22.0905 103.558 22.2078C103.686 22.382 103.894 22.494 104.127 22.494H106.362C106.531 22.494 106.684 22.5527 106.807 22.6504C106.967 22.7802 107.07 22.9793 107.07 23.2014V25.4375C107.07 25.633 107.15 25.809 107.278 25.937C107.406 26.065 107.581 26.145 107.777 26.145H118.263C118.391 26.145 118.515 26.1201 118.632 26.0721C118.75 26.0241 118.854 25.953 118.945 25.8623L122.018 22.7891C122.103 22.7038 122.171 22.6042 122.219 22.494C122.272 22.3731 122.301 22.2416 122.301 22.1065V11.6763C122.301 11.5163 122.247 11.3688 122.158 11.2514C122.029 11.0808 121.824 10.9688 121.593 10.9688H121.59ZM118.647 21.7848C118.647 21.959 118.583 22.119 118.478 22.2434C118.348 22.3962 118.154 22.4922 117.939 22.4922H107.773C107.578 22.4922 107.402 22.4122 107.274 22.2843C107.146 22.1563 107.066 21.9803 107.066 21.7848V11.6745C107.066 11.479 107.146 11.303 107.274 11.175C107.402 11.047 107.578 10.967 107.773 10.967H117.939C118.135 10.967 118.311 11.047 118.439 11.175C118.567 11.303 118.647 11.479 118.647 11.6745V21.7848Z"
        />
        <path
            fill="black"
            d="M80.1801 26.1432H77.9266C77.7311 26.1432 77.5551 26.0632 77.4272 25.9352C77.2992 25.8072 77.2192 25.6313 77.2192 25.4357V8.02531C77.2192 7.83867 77.2903 7.66981 77.4076 7.54361C77.5374 7.40497 77.7204 7.31787 77.9266 7.31787H80.1801C80.349 7.31787 80.5036 7.37653 80.6244 7.47429C80.7844 7.60405 80.8875 7.80135 80.8875 8.02531V25.4357C80.8875 25.6313 80.8075 25.8072 80.6795 25.9352C80.5516 26.0632 80.3756 26.1432 80.1801 26.1432Z"
        />
        <path
            fill="black"
            d="M80.1801 3.66872H77.9266C77.7524 3.66872 77.5925 3.60473 77.4681 3.49986C77.3152 3.37011 77.2192 3.17636 77.2192 2.96128V0.707438C77.2192 0.519025 77.2921 0.348386 77.4112 0.222185C77.5409 0.0853191 77.7222 0 77.9266 0H80.1801C80.3756 0 80.5516 0.0799867 80.6795 0.207965C80.8075 0.335944 80.8875 0.511915 80.8875 0.707438V2.96128C80.8875 3.15681 80.8075 3.33278 80.6795 3.46076C80.5516 3.58874 80.3756 3.66872 80.1801 3.66872Z"
        />
        <path
            fill="black"
            d="M140.057 14.8084H142.293C142.39 14.8084 142.483 14.7888 142.568 14.7533C142.822 14.6466 143 14.3942 143 14.1009V11.7049C143 11.5022 142.918 11.3174 142.785 11.1841C142.652 11.0508 142.467 10.969 142.264 10.969H140.103C139.895 10.969 139.707 10.8855 139.572 10.7486C139.437 10.6117 139.351 10.4251 139.351 10.2171V8.0557C139.351 7.85307 139.269 7.66821 139.136 7.5349C139.003 7.40159 138.818 7.31982 138.615 7.31982H128.144C128.018 7.31982 127.893 7.34471 127.778 7.39092C127.662 7.43714 127.552 7.51001 127.461 7.60067L124.405 10.6579C124.323 10.7397 124.257 10.8357 124.209 10.9388C124.152 11.0632 124.122 11.2001 124.122 11.3405V13.4308C124.122 13.6068 124.174 13.7739 124.264 13.9161C124.355 14.0583 124.486 14.1756 124.646 14.2484L138.939 20.8216C139.001 20.85 139.058 20.8873 139.109 20.9318C139.261 21.0633 139.351 21.2571 139.351 21.4632V21.785C139.351 21.9609 139.287 22.1227 139.181 22.2471C139.051 22.3982 138.859 22.4924 138.646 22.4924H128.48C128.284 22.4924 128.108 22.4124 127.98 22.2844C127.852 22.1565 127.773 21.9805 127.773 21.785V19.2698C127.773 19.0743 127.693 18.8983 127.565 18.7704C127.437 18.6424 127.261 18.5624 127.065 18.5624H124.829C124.648 18.5624 124.483 18.6299 124.357 18.7437C124.213 18.8735 124.122 19.0619 124.122 19.2698V21.785C124.122 21.9805 124.202 22.1565 124.33 22.2844C124.458 22.4124 124.634 22.4924 124.829 22.4924H127.065C127.248 22.4924 127.414 22.5617 127.54 22.6755C127.684 22.8052 127.773 22.9919 127.773 23.1998V25.4057C127.773 25.6083 127.854 25.7932 127.988 25.9265C128.121 26.0598 128.306 26.1416 128.508 26.1416H138.964C139.092 26.1416 139.216 26.1167 139.332 26.0687C139.447 26.0207 139.554 25.9496 139.644 25.8607L142.717 22.791C142.804 22.7039 142.872 22.6026 142.92 22.4924C142.971 22.3733 143 22.2418 143 22.1085V20.011C143 19.8688 142.966 19.7302 142.904 19.6076C142.813 19.428 142.666 19.2805 142.476 19.1934L128.183 12.6203C128.057 12.5634 127.956 12.471 127.883 12.359C127.81 12.247 127.771 12.1155 127.771 11.9768V11.6747C127.771 11.4791 127.851 11.3032 127.979 11.1752C128.107 11.0472 128.283 10.9672 128.478 10.9672H138.598C138.79 10.9672 138.964 11.0383 139.097 11.1556C139.253 11.2943 139.351 11.4951 139.351 11.7191V14.0991C139.351 14.268 139.41 14.4226 139.509 14.5453C139.639 14.7053 139.836 14.8066 140.059 14.8066L140.057 14.8084Z"
        />
        <path
            fill="black"
            d="M75.3922 0.707438C75.3922 0.511915 75.3123 0.335944 75.1843 0.207965C75.0563 0.0799867 74.8804 0 74.6849 0H72.4313C72.2536 0 72.0901 0.0657668 71.9657 0.174193C71.8164 0.303949 71.724 0.49414 71.724 0.707438V8.01466C71.724 7.84758 71.6654 7.69294 71.5676 7.57207C71.4379 7.4121 71.2388 7.309 71.0167 7.309H60.5168C60.3888 7.309 60.2644 7.33389 60.1471 7.38188C60.0298 7.42987 59.9249 7.50097 59.8343 7.59162L56.7775 10.6489C56.6868 10.7395 56.6175 10.8444 56.5695 10.96C56.5215 11.0755 56.4949 11.2017 56.4949 11.3314V21.7777C56.4949 21.9643 56.566 22.1332 56.685 22.2594C56.8148 22.398 56.9978 22.4851 57.2022 22.4851H59.438C59.6335 22.4851 59.8094 22.5651 59.9374 22.6931C60.0653 22.8211 60.1453 22.9971 60.1453 23.1926V25.4287C60.1453 25.6242 60.2253 25.8001 60.3533 25.9281C60.4812 26.0561 60.6572 26.1361 60.8527 26.1361H71.3384C71.4663 26.1361 71.5907 26.1112 71.708 26.0632C71.8253 26.0152 71.9302 25.9441 72.0208 25.8535L75.0937 22.7802C75.179 22.6949 75.2465 22.5953 75.2945 22.4851C75.3478 22.3643 75.3762 22.2327 75.3762 22.0977L75.394 0.710993L75.3922 0.707438ZM71.724 21.7741C71.724 21.9483 71.6618 22.1083 71.557 22.231C71.4272 22.3838 71.2335 22.4816 71.0167 22.4816H60.8509C60.6554 22.4816 60.4794 22.4016 60.3515 22.2736C60.2235 22.1456 60.1435 21.9697 60.1435 21.7741V11.6638C60.1435 11.4683 60.2235 11.2923 60.3515 11.1644C60.4794 11.0364 60.6554 10.9564 60.8509 10.9564H71.0167C71.2122 10.9564 71.3881 11.0364 71.5161 11.1644C71.644 11.2923 71.724 11.4683 71.724 11.6638V21.7741Z"
        />
        <path
            fill="black"
            d="M100.887 10.9688H98.6508C98.4553 10.9688 98.2794 10.8888 98.1514 10.7609C98.0235 10.6329 97.9435 10.4569 97.9435 10.2614V8.02531C97.9435 7.8369 97.8706 7.66626 97.7498 7.53828C97.62 7.40319 97.4388 7.31787 97.2362 7.31787H86.7362C86.6083 7.31787 86.4839 7.34276 86.3666 7.39075C86.2493 7.43874 86.1444 7.50984 86.0538 7.60049L82.9969 10.6578C82.9525 10.7022 82.9116 10.752 82.8761 10.8053C82.7712 10.9617 82.7144 11.1483 82.7144 11.3403V21.7866C82.7144 21.9643 82.7801 22.1261 82.8867 22.2505C83.0165 22.3998 83.2067 22.494 83.4199 22.494H85.6557C85.8387 22.494 86.004 22.5633 86.1302 22.6771C86.2724 22.8068 86.363 22.9935 86.363 23.2014V25.4375C86.363 25.633 86.443 25.809 86.571 25.937C86.6989 26.065 86.8749 26.145 87.0704 26.145H97.5561H97.5596C97.7693 26.145 97.9435 26.3032 97.9435 26.5111V27.1635C97.9435 27.3465 97.8742 27.5136 97.7587 27.6398C97.6289 27.782 97.4423 27.8709 97.2362 27.8709H87.0704C86.9069 27.8709 86.7558 27.926 86.6367 28.0202C86.4697 28.15 86.363 28.3508 86.363 28.5783V30.8144C86.363 31.0099 86.443 31.1859 86.571 31.3139C86.6989 31.4419 86.8749 31.5218 87.0704 31.5218H97.5561C97.684 31.5218 97.8084 31.497 97.9257 31.449C98.043 31.401 98.1479 31.3299 98.2385 31.2392L101.311 28.166C101.402 28.0753 101.473 27.9687 101.521 27.8531C101.569 27.7376 101.594 27.6114 101.594 27.4834V11.6763C101.594 11.5092 101.537 11.3563 101.439 11.2354C101.31 11.0737 101.111 10.9688 100.887 10.9688ZM97.9435 19.8118V21.4169C97.9435 22.0105 97.4619 22.4922 96.8683 22.4922H87.0704C86.8749 22.4922 86.6971 22.4122 86.5674 22.2825C86.4377 22.1527 86.363 21.9785 86.363 21.7848V11.6745C86.363 11.479 86.443 11.303 86.571 11.175C86.6989 11.047 86.8749 10.967 87.0704 10.967H97.2362C97.421 10.967 97.5898 11.0381 97.7142 11.1537C97.8546 11.2834 97.9417 11.4683 97.9417 11.6745V19.8118H97.9435Z"
        />
        <path
            fill="black"
            d="M53.9764 10.9688H51.7407C51.5452 10.9688 51.3692 10.8888 51.2413 10.7609C51.1133 10.6329 51.0333 10.4569 51.0333 10.2614V8.02531C51.0333 7.82979 50.9534 7.65382 50.8254 7.52584C50.6974 7.39786 50.5215 7.31787 50.326 7.31787H39.8261C39.6981 7.31787 39.5737 7.34276 39.4564 7.39075C39.3391 7.43874 39.2343 7.50984 39.1436 7.60049L36.0868 10.6578C35.9961 10.7484 35.925 10.8551 35.8771 10.9706C35.8291 11.0861 35.8042 11.2123 35.8042 11.3403V21.7866C35.8042 21.9697 35.8735 22.1367 35.9873 22.2612C36.117 22.4034 36.3036 22.494 36.5115 22.494H38.7473C38.9108 22.494 39.0601 22.5491 39.1792 22.6415C39.3462 22.7713 39.4546 22.9739 39.4546 23.2014V25.4375C39.4546 25.633 39.5346 25.809 39.6626 25.937C39.7905 26.065 39.9665 26.145 40.162 26.145H50.6477C50.7756 26.145 50.9 26.1201 51.0173 26.0721C51.1346 26.0241 51.2395 25.953 51.3301 25.8623L54.403 22.7891C54.4883 22.7038 54.5558 22.6042 54.6038 22.494C54.6571 22.3731 54.6856 22.2416 54.6856 22.1065V11.6763C54.6856 11.4861 54.6109 11.3154 54.4901 11.1874C54.3621 11.0524 54.179 10.9688 53.9782 10.9688H53.9764ZM51.0333 21.7848C51.0333 21.9803 50.9551 22.1563 50.8272 22.2843C50.6992 22.4122 50.5215 22.4922 50.326 22.4922H40.1602C39.9647 22.4922 39.7888 22.4122 39.6608 22.2843C39.5328 22.1563 39.4529 21.9803 39.4529 21.7848V12.0424C39.4529 11.4487 39.9345 10.967 40.5281 10.967H50.326C50.5091 10.967 50.6761 11.0364 50.8023 11.1519C50.9445 11.2817 51.0333 11.4665 51.0333 11.6745V21.7848Z"
        />
        <path
            fill="black"
            d="M8.7155 21.3227L3.2736 26.7654C3.13142 26.9076 2.94481 26.9733 2.75998 26.9662C2.56626 26.9591 2.3761 26.8685 2.24813 26.7014C1.3684 25.5602 0.657507 24.3302 0.119005 23.0451C0.0301429 22.8318 0.0105933 22.6025 0.053247 22.3857C0.0959007 22.1688 0.204312 21.9644 0.366041 21.8009L4.61719 17.5491C4.83934 17.327 4.94953 17.0372 4.95131 16.7457C4.95309 16.4542 4.84112 16.1609 4.61719 15.937L0.335828 11.6532C0.111896 11.4293 -0.00540183 11.1271 -7.01159e-05 10.8231C0.00348436 10.6863 0.0301429 10.5476 0.0852372 10.4161C0.618408 9.12565 1.32397 7.88853 2.20015 6.74027C2.32633 6.57675 2.50939 6.48609 2.69777 6.47365C2.88616 6.46121 3.08166 6.52698 3.22739 6.67273L8.7155 12.1616C8.89322 12.3393 8.98208 12.5722 8.98208 12.8068C8.98208 13.0414 8.89322 13.2743 8.7155 13.452L6.23092 15.937C6.00877 16.1592 5.8968 16.4507 5.8968 16.7422C5.8968 17.0337 6.00877 17.3252 6.23092 17.5474L8.7155 20.0323C8.89322 20.21 8.98208 20.4429 8.98208 20.6775C8.98208 20.9121 8.89322 21.145 8.7155 21.3227Z"
        />
        <path
            fill="black"
            d="M25.3381 4.69786L19.6154 10.4214C19.491 10.5458 19.3452 10.6435 19.1888 10.7111C19.02 10.784 18.8369 10.8213 18.6486 10.8213H11.9377C11.7564 10.8213 11.5787 10.7857 11.4152 10.7164C11.2517 10.6471 11.1006 10.5476 10.9709 10.4196L5.22153 4.6712C5.0758 4.52545 5.01004 4.3317 5.02248 4.14329C5.03492 3.95487 5.12378 3.77002 5.28729 3.64559C6.43183 2.76752 7.66523 2.06008 8.95373 1.52506C9.151 1.44329 9.36249 1.42019 9.5651 1.45396C9.79791 1.49128 10.0201 1.60149 10.1942 1.77568L14.488 6.07008C14.7031 6.28515 14.9821 6.39536 15.2629 6.40424C15.565 6.41313 15.869 6.30115 16.1 6.07008L20.3742 1.79523C20.5378 1.63171 20.7421 1.52506 20.959 1.4824C21.1758 1.43974 21.405 1.45751 21.6183 1.54816C22.9033 2.08674 24.1331 2.79773 25.2741 3.67759C25.5993 3.92999 25.6295 4.41169 25.3381 4.70319V4.69786Z"
        />
        <path
            fill="black"
            d="M15.2611 20.3289C17.2399 20.3289 18.844 18.7246 18.844 16.7455C18.844 14.7665 17.2399 13.1621 15.2611 13.1621C13.2823 13.1621 11.6782 14.7665 11.6782 16.7455C11.6782 18.7246 13.2823 20.3289 15.2611 20.3289Z"
        />
        <path
            fill="black"
            d="M5.22154 28.7401L10.9442 23.0166C11.0562 22.9047 11.1842 22.814 11.3246 22.7482C11.5058 22.6629 11.7067 22.6167 11.9111 22.6167H18.6219C18.8032 22.6167 18.9809 22.6522 19.1444 22.7216C19.3079 22.7909 19.459 22.8904 19.5887 23.0184L25.3381 28.7686C25.4696 28.9001 25.5353 29.069 25.5389 29.2396C25.5425 29.4476 25.4536 29.6573 25.2723 29.7959C24.1278 30.674 22.8944 31.3815 21.6059 31.9165C21.3944 32.0054 21.1651 32.0231 20.9483 31.9805C20.7315 31.9378 20.5289 31.8294 20.3654 31.6676L16.0716 27.3732C15.8494 27.1511 15.5579 27.0391 15.2665 27.0391C14.975 27.0391 14.6835 27.1511 14.4614 27.3732L10.1871 31.6481C10.0378 31.7974 9.85302 31.9005 9.65574 31.9503C9.42293 32.0089 9.17411 31.9929 8.94485 31.8969C7.65991 31.3584 6.43006 30.6474 5.28907 29.7675C5.12557 29.6413 5.03671 29.4582 5.02604 29.2698C5.01538 29.0814 5.07936 28.8877 5.22509 28.7419L5.22154 28.7401Z"
        />
        <path
            fill="black"
            d="M21.8244 12.1154L27.2663 6.67273C27.4121 6.52698 27.6058 6.46121 27.7942 6.47365C27.9826 6.48609 28.1656 6.57319 28.2918 6.73672C29.1715 7.87786 29.8824 9.10788 30.4209 10.393C30.4654 10.4996 30.492 10.6099 30.5027 10.7201C30.5347 11.0524 30.4174 11.3902 30.1721 11.6355L25.921 15.8872C25.6988 16.1094 25.5869 16.4009 25.5869 16.6924C25.5869 16.9839 25.6988 17.2754 25.921 17.4976L30.2041 21.7813C30.3658 21.9431 30.4725 22.1475 30.5169 22.3626C30.5613 22.5776 30.5418 22.8069 30.4547 23.0184C29.9215 24.3089 29.216 25.546 28.3398 26.6943C28.2278 26.84 28.0714 26.9271 27.9044 26.9538C27.6964 26.9858 27.4743 26.9236 27.3126 26.7618L21.8244 21.273C21.6467 21.0952 21.5579 20.8624 21.5579 20.6277C21.5579 20.3931 21.6467 20.1603 21.8244 19.9825L24.309 17.4976C24.5258 17.2807 24.636 16.9999 24.6431 16.7155C24.6503 16.4151 24.5383 16.1147 24.309 15.8854L21.8244 13.4005C21.6467 13.2227 21.5579 12.9899 21.5579 12.7553C21.5579 12.5206 21.6467 12.2878 21.8244 12.11V12.1154Z"
        />
    </g>

</svg>