<svg width="32" height="32" viewBox="0 0 32 32" fill="none" xmlns="http://www.w3.org/2000/svg">
<rect width="32" height="32" rx="4" fill="url(#paint0_linear_280_5350)"/>
<rect width="32" height="32" rx="4" fill="url(#paint1_radial_280_5350)" fill-opacity="0.4"/>
<path opacity="0.2" d="M25.75 11.5V19.8334C25.75 20.0102 25.6798 20.1798 25.5548 20.3048C25.4298 20.4298 25.2602 20.5 25.0834 20.5H22.75V14.5C22.75 14.3011 22.671 14.1103 22.5303 13.9697C22.3897 13.829 22.1989 13.75 22 13.75H15.5003C15.338 13.75 15.1801 13.6974 15.0503 13.6L12.4497 11.65C12.3199 11.5526 12.162 11.5 11.9997 11.5H10V9.25C10 9.05109 10.079 8.86032 10.2197 8.71967C10.3603 8.57902 10.5511 8.5 10.75 8.5H14.9997C15.162 8.5 15.3199 8.55263 15.4497 8.65L18.0503 10.6C18.1801 10.6974 18.338 10.75 18.5003 10.75H25C25.1989 10.75 25.3897 10.829 25.5303 10.9697C25.671 11.1103 25.75 11.3011 25.75 11.5Z" fill="#96F2FF"/>
<path d="M25 10H18.5003L15.8997 8.05C15.6397 7.85599 15.3241 7.7508 14.9997 7.75H10.75C10.3522 7.75 9.97064 7.90804 9.68934 8.18934C9.40804 8.47064 9.25 8.85218 9.25 9.25V10.75H7.75C7.35218 10.75 6.97064 10.908 6.68934 11.1893C6.40804 11.4706 6.25 11.8522 6.25 12.25V22.75C6.25 23.1478 6.40804 23.5294 6.68934 23.8107C6.97064 24.092 7.35218 24.25 7.75 24.25H22.0834C22.459 24.2495 22.819 24.1001 23.0846 23.8346C23.3501 23.569 23.4995 23.209 23.5 22.8334V21.25H25.0834C25.459 21.2495 25.819 21.1001 26.0846 20.8346C26.3501 20.569 26.4995 20.209 26.5 19.8334V11.5C26.5 11.1022 26.342 10.7206 26.0607 10.4393C25.7794 10.158 25.3978 10 25 10ZM22 22.75H7.75V12.25H11.9997L14.6003 14.2C14.8603 14.394 15.1759 14.4992 15.5003 14.5H22V22.75ZM25 19.75H23.5V14.5C23.5 14.1022 23.342 13.7206 23.0607 13.4393C22.7794 13.158 22.3978 13 22 13H15.5003L12.8997 11.05C12.6397 10.856 12.3241 10.7508 11.9997 10.75H10.75V9.25H14.9997L17.6003 11.2C17.8603 11.394 18.1759 11.4992 18.5003 11.5H25V19.75Z" fill="#96F2FF"/>
<rect x="0.375" y="0.375" width="31.25" height="31.25" rx="3.625" stroke="url(#paint2_linear_280_5350)" stroke-opacity="0.5" stroke-width="0.75"/>
<defs>
<linearGradient id="paint0_linear_280_5350" x1="16" y1="0" x2="16" y2="32" gradientUnits="userSpaceOnUse">
<stop stop-color="#2E4C55"/>
<stop offset="1" stop-color="#303355"/>
</linearGradient>
<radialGradient id="paint1_radial_280_5350" cx="0" cy="0" r="1" gradientUnits="userSpaceOnUse" gradientTransform="translate(32 -1.19209e-06) rotate(120.009) scale(23.0961 24.8123)">
<stop stop-color="#96F2FF"/>
<stop offset="0.619146" stop-color="#96F2FF" stop-opacity="0"/>
</radialGradient>
<linearGradient id="paint2_linear_280_5350" x1="16" y1="0" x2="16" y2="32" gradientUnits="userSpaceOnUse">
<stop stop-color="#96F2FF"/>
<stop offset="1" stop-color="#96F2FF" stop-opacity="0"/>
</linearGradient>
</defs>
</svg>
