<svg width="80" height="80" viewBox="0 0 80 80" fill="none" xmlns="http://www.w3.org/2000/svg">
<circle cx="40" cy="40" r="40" fill="url(#paint0_linear_280_10690)"/>
<circle cx="40" cy="40" r="40" fill="url(#paint1_radial_280_10690)" fill-opacity="0.4"/>
<circle cx="40" cy="40" r="39.625" stroke="url(#paint2_linear_280_10690)" stroke-opacity="0.5" stroke-width="0.75"/>
<path opacity="0.2" d="M37.3925 36.35L40 40L37.3925 43.65C36.6523 44.6862 35.6755 45.5307 34.5432 46.1134C33.4109 46.6961 32.1559 47 30.8825 47H28V33H30.8825C32.1559 33 33.4109 33.3039 34.5432 33.8866C35.6755 34.4693 36.6523 35.3138 37.3925 36.35ZM49.1175 33C47.8441 33 46.5891 33.3039 45.4568 33.8866C44.3245 34.4693 43.3477 35.3138 42.6075 36.35L40 40L42.6075 43.65C43.3477 44.6862 44.3245 45.5307 45.4568 46.1134C46.5891 46.6961 47.8441 47 49.1175 47H53V33H49.1175Z" fill="#96F2FF"/>
<path d="M53.7075 46.2921C53.8005 46.385 53.8742 46.4952 53.9246 46.6166C53.9749 46.738 54.0008 46.8682 54.0008 46.9996C54.0008 47.131 53.9749 47.2611 53.9246 47.3825C53.8742 47.5039 53.8005 47.6142 53.7075 47.7071L50.7075 50.7071C50.5199 50.8947 50.2654 51.0001 50 51.0001C49.7346 51.0001 49.4801 50.8947 49.2925 50.7071C49.1049 50.5194 48.9994 50.2649 48.9994 49.9996C48.9994 49.7342 49.1049 49.4797 49.2925 49.2921L50.5863 47.9996H49.1175C47.6851 47.9984 46.2737 47.6559 45.0001 47.0005C43.7264 46.3451 42.6273 45.3957 41.7938 44.2308L36.5787 36.9308C35.9304 36.0249 35.0755 35.2865 34.0849 34.7767C33.0943 34.267 31.9965 34.0006 30.8825 33.9996H28C27.7348 33.9996 27.4804 33.8942 27.2929 33.7067C27.1054 33.5191 27 33.2648 27 32.9996C27 32.7344 27.1054 32.48 27.2929 32.2925C27.4804 32.1049 27.7348 31.9996 28 31.9996H30.8825C32.3149 32.0008 33.7263 32.3433 34.9999 32.9986C36.2736 33.654 37.3727 34.6035 38.2063 35.7683L43.4212 43.0683C44.0696 43.9743 44.9245 44.7127 45.9151 45.2224C46.9057 45.7322 48.0035 45.9986 49.1175 45.9996H50.5863L49.2925 44.7071C49.1049 44.5194 48.9994 44.2649 48.9994 43.9996C48.9994 43.7342 49.1049 43.4797 49.2925 43.2921C49.4801 43.1044 49.7346 42.999 50 42.999C50.2654 42.999 50.5199 43.1044 50.7075 43.2921L53.7075 46.2921ZM41.875 37.3746C41.9819 37.4509 42.1027 37.5055 42.2307 37.5351C42.3586 37.5647 42.4911 37.5688 42.6207 37.5473C42.7502 37.5257 42.8742 37.4788 42.9856 37.4092C43.097 37.3397 43.1937 37.2489 43.27 37.1421L43.42 36.9333C44.0682 36.0268 44.9232 35.2878 45.914 34.7776C46.9049 34.2674 48.003 34.0007 49.1175 33.9996H50.5863L49.2925 35.2921C49.1049 35.4797 48.9994 35.7342 48.9994 35.9996C48.9994 36.2649 49.1049 36.5194 49.2925 36.7071C49.4801 36.8947 49.7346 37.0001 50 37.0001C50.2654 37.0001 50.5199 36.8947 50.7075 36.7071L53.7075 33.7071C53.8005 33.6142 53.8742 33.5039 53.9246 33.3825C53.9749 33.2611 54.0008 33.131 54.0008 32.9996C54.0008 32.8682 53.9749 32.738 53.9246 32.6166C53.8742 32.4952 53.8005 32.385 53.7075 32.2921L50.7075 29.2921C50.5199 29.1044 50.2654 28.999 50 28.999C49.7346 28.999 49.4801 29.1044 49.2925 29.2921C49.1049 29.4797 48.9994 29.7342 48.9994 29.9996C48.9994 30.2649 49.1049 30.5194 49.2925 30.7071L50.5863 31.9996H49.1175C47.6851 32.0008 46.2737 32.3433 45.0001 32.9986C43.7264 33.654 42.6273 34.6035 41.7938 35.7683L41.6437 35.9771C41.567 36.0839 41.512 36.2049 41.4821 36.3331C41.4521 36.4612 41.4478 36.594 41.4693 36.7238C41.4908 36.8537 41.5377 36.978 41.6073 37.0896C41.6769 37.2013 41.7679 37.2981 41.875 37.3746ZM38.125 42.6246C38.0181 42.5482 37.8973 42.4937 37.7693 42.4641C37.6414 42.4345 37.5089 42.4303 37.3793 42.4519C37.2498 42.4735 37.1258 42.5204 37.0144 42.5899C36.903 42.6594 36.8063 42.7502 36.73 42.8571L36.58 43.0658C35.9318 43.9724 35.0768 44.7114 34.086 45.2216C33.0951 45.7318 31.997 45.9985 30.8825 45.9996H28C27.7348 45.9996 27.4804 46.1049 27.2929 46.2925C27.1054 46.48 27 46.7344 27 46.9996C27 47.2648 27.1054 47.5192 27.2929 47.7067C27.4804 47.8942 27.7348 47.9996 28 47.9996H30.8825C32.3149 47.9984 33.7263 47.6559 34.9999 47.0005C36.2736 46.3451 37.3727 45.3957 38.2063 44.2308L38.3562 44.0221C38.433 43.9152 38.488 43.7942 38.5179 43.6661C38.5479 43.5379 38.5522 43.4052 38.5307 43.2753C38.5092 43.1455 38.4623 43.0212 38.3927 42.9095C38.3231 42.7978 38.2321 42.701 38.125 42.6246Z" fill="#96F2FF"/>
<defs>
<linearGradient id="paint0_linear_280_10690" x1="40" y1="0" x2="40" y2="80" gradientUnits="userSpaceOnUse">
<stop stop-color="#2E4C55"/>
<stop offset="1" stop-color="#303355"/>
</linearGradient>
<radialGradient id="paint1_radial_280_10690" cx="0" cy="0" r="1" gradientUnits="userSpaceOnUse" gradientTransform="translate(80 -2.98023e-06) rotate(120.009) scale(57.7403 62.0308)">
<stop stop-color="#96F2FF"/>
<stop offset="0.619146" stop-color="#96F2FF" stop-opacity="0"/>
</radialGradient>
<linearGradient id="paint2_linear_280_10690" x1="40" y1="0" x2="40" y2="80" gradientUnits="userSpaceOnUse">
<stop stop-color="#96F2FF"/>
<stop offset="1" stop-color="#96F2FF" stop-opacity="0"/>
</linearGradient>
</defs>
</svg>
