<svg width="108" height="108" viewBox="0 0 108 108" fill="none" xmlns="http://www.w3.org/2000/svg">
<g clip-path="url(#clip0_2_250)" filter="url(#filter0_d_2_250)">
<path d="M53.6711 2.64662C52.8336 2.6901 52.0131 2.90408 51.2577 3.27602L18.3249 19.4927C17.4725 19.9122 16.7236 20.5226 16.1336 21.2786C15.5437 22.0345 15.1281 22.9166 14.9175 23.8593L6.79271 60.286C6.6051 61.1253 6.5841 61.9945 6.73096 62.8422C6.87783 63.6899 7.18957 64.4989 7.64773 65.2213C7.75882 65.3979 7.8783 65.5689 8.00573 65.7335L30.8005 94.9417C31.3905 95.6975 32.1396 96.3077 32.992 96.727C33.8444 97.1463 34.7782 97.364 35.7242 97.3638L72.2792 97.3551C73.2248 97.3558 74.1585 97.1388 75.0109 96.7203C75.8633 96.3017 76.6125 95.6923 77.2029 94.9374L99.9893 65.7249C100.58 64.9687 100.996 64.0863 101.206 63.1432C101.417 62.2 101.417 61.2205 101.206 60.2774L93.0691 23.8507C92.8585 22.9079 92.4428 22.0258 91.8529 21.2699C91.263 20.5139 90.5141 19.9035 89.6617 19.484L56.7247 3.27602C55.7744 2.80815 54.7245 2.59173 53.6711 2.64662Z" fill="#326CE5"/>
<path d="M53.6534 0.00897171C52.7703 0.0566405 51.9055 0.283895 51.1094 0.677431L16.3402 17.7926C15.4404 18.2355 14.6498 18.8799 14.0271 19.6779C13.4044 20.476 12.9656 21.4072 12.7433 22.4023L4.16786 60.8561C3.96921 61.7425 3.94662 62.6606 4.10145 63.5561C4.25627 64.4515 4.58535 65.3061 5.0692 66.0692C5.18691 66.2548 5.31341 66.4344 5.44825 66.6074L29.5108 97.4434C30.1337 98.2411 30.9243 98.8852 31.8241 99.3278C32.7239 99.7704 33.7097 100 34.7083 100L73.2976 99.9913C74.2958 99.992 75.2814 99.7629 76.1812 99.3211C77.0809 98.8792 77.8718 98.236 78.4951 97.439L102.549 66.5987C103.172 65.8009 103.611 64.8699 103.833 63.875C104.055 62.8801 104.056 61.8468 103.834 60.8517L95.2458 22.3937C95.0229 21.3993 94.5839 20.4689 93.9612 19.6717C93.3385 18.8744 92.5482 18.2307 91.6489 17.7882L56.8797 0.673091C55.8757 0.178835 54.7663 -0.0495361 53.6534 0.00897171ZM53.6702 2.64808C54.7236 2.59319 55.7736 2.80961 56.7238 3.27748L89.6608 19.4854C90.5132 19.9049 91.2622 20.5154 91.8521 21.2713C92.442 22.0273 92.8577 22.9094 93.0683 23.8521L101.206 60.2788C101.416 61.2219 101.416 62.2015 101.205 63.1446C100.995 64.0877 100.579 64.9701 99.9884 65.7263L77.2021 94.9388C76.6116 95.6938 75.8624 96.3032 75.01 96.7218C74.1577 97.1403 73.224 97.3573 72.2784 97.3566L35.7234 97.3653C34.7774 97.3655 33.8435 97.1478 32.9911 96.7285C32.1387 96.3092 31.3897 95.699 30.7997 94.9432L8.00489 65.735C7.87746 65.5704 7.75798 65.3994 7.64689 65.2228C7.18873 64.5004 6.87699 63.6914 6.73013 62.8437C6.58327 61.996 6.60426 61.1268 6.79188 60.2875L14.9166 23.8608C15.1272 22.9181 15.5429 22.036 16.1328 21.2801C16.7227 20.5241 17.4717 19.9137 18.324 19.4942L51.2568 3.27752C52.0123 2.90558 52.8328 2.6916 53.6702 2.64812L53.6702 2.64808Z" fill="white"/>
<path fill-rule="evenodd" clip-rule="evenodd" d="M34 35.9999L54.0764 30L74.1527 35.9999L54.0764 41.9997L34 35.9999Z" fill="white"/>
<path fill-rule="evenodd" clip-rule="evenodd" d="M34 38.2974V60.3128L52.7056 70.9912L52.7982 44.0592L34 38.2974Z" fill="white"/>
<path fill-rule="evenodd" clip-rule="evenodd" d="M74.1527 38.2974V60.3128L55.4471 70.9912L55.3545 44.0592L74.1527 38.2974Z" fill="white"/>
</g>
<defs>
<filter id="filter0_d_2_250" x="0" y="0" width="108" height="108" filterUnits="userSpaceOnUse" color-interpolation-filters="sRGB">
<feFlood flood-opacity="0" result="BackgroundImageFix"/>
<feColorMatrix in="SourceAlpha" type="matrix" values="0 0 0 0 0 0 0 0 0 0 0 0 0 0 0 0 0 0 127 0" result="hardAlpha"/>
<feOffset dy="4"/>
<feGaussianBlur stdDeviation="2"/>
<feComposite in2="hardAlpha" operator="out"/>
<feColorMatrix type="matrix" values="0 0 0 0 0 0 0 0 0 0 0 0 0 0 0 0 0 0 0.25 0"/>
<feBlend mode="normal" in2="BackgroundImageFix" result="effect1_dropShadow_2_250"/>
<feBlend mode="normal" in="SourceGraphic" in2="effect1_dropShadow_2_250" result="shape"/>
</filter>
<clipPath id="clip0_2_250">
<rect width="100" height="100" fill="white" transform="translate(4)"/>
</clipPath>
</defs>
</svg>
