<svg width="100" height="100" viewBox="0 0 100 100" fill="none" xmlns="http://www.w3.org/2000/svg">
<g clip-path="url(#clip0_2_157)">
<path d="M49.671 2.64664C48.8336 2.69012 48.0131 2.9041 47.2576 3.27603L14.3248 19.4927C13.4725 19.9122 12.7235 20.5226 12.1336 21.2786C11.5437 22.0345 11.128 22.9166 10.9174 23.8594L2.79268 60.286C2.60507 61.1253 2.58407 61.9945 2.73093 62.8422C2.8778 63.69 3.18954 64.499 3.6477 65.2214C3.75879 65.3979 3.87827 65.5689 4.0057 65.7335L26.8005 94.9417C27.3905 95.6975 28.1395 96.3077 28.9919 96.727C29.8443 97.1463 30.7782 97.364 31.7242 97.3638L68.2792 97.3551C69.2248 97.3558 70.1585 97.1388 71.0108 96.7203C71.8632 96.3017 72.6124 95.6924 73.2029 94.9374L95.9892 65.7249C96.5796 64.9687 96.9956 64.0863 97.2063 63.1432C97.417 62.2001 97.4171 61.2205 97.2065 60.2774L89.0691 23.8507C88.8585 22.908 88.4428 22.0259 87.8529 21.2699C87.263 20.5139 86.514 19.9035 85.6617 19.484L52.7247 3.27603C51.7744 2.80817 50.7244 2.59175 49.671 2.64664Z" fill="#326CE5"/>
<path d="M49.6534 0.00897171C48.7703 0.0566405 47.9055 0.283895 47.1094 0.677431L12.3402 17.7926C11.4404 18.2355 10.6498 18.8799 10.0271 19.6779C9.4044 20.476 8.96558 21.4072 8.74327 22.4023L0.167864 60.8561C-0.0307917 61.7425 -0.0533772 62.6606 0.101447 63.5561C0.256272 64.4515 0.585354 65.3061 1.0692 66.0692C1.18691 66.2548 1.31341 66.4344 1.44825 66.6074L25.5108 97.4434C26.1337 98.2411 26.9243 98.8852 27.8241 99.3278C28.7239 99.7704 29.7097 100 30.7083 100L69.2976 99.9913C70.2958 99.992 71.2814 99.7629 72.1812 99.3211C73.0809 98.8792 73.8718 98.236 74.4951 97.439L98.5492 66.5987C99.1718 65.8009 99.6106 64.8699 99.833 63.875C100.055 62.8801 100.056 61.8468 99.8339 60.8517L91.2458 22.3937C91.0229 21.3993 90.5839 20.4689 89.9612 19.6717C89.3385 18.8744 88.5482 18.2307 87.6489 17.7882L52.8797 0.673091C51.8757 0.178835 50.7663 -0.0495361 49.6534 0.00897171ZM49.6702 2.64808C50.7236 2.59319 51.7736 2.80961 52.7238 3.27748L85.6608 19.4854C86.5132 19.9049 87.2622 20.5154 87.8521 21.2713C88.442 22.0273 88.8577 22.9094 89.0683 23.8521L97.2057 60.2788C97.4163 61.2219 97.4162 62.2015 97.2055 63.1446C96.9948 64.0877 96.5788 64.9701 95.9884 65.7263L73.2021 94.9388C72.6116 95.6938 71.8624 96.3032 71.01 96.7218C70.1577 97.1403 69.224 97.3573 68.2784 97.3566L31.7234 97.3653C30.7774 97.3655 29.8435 97.1478 28.9911 96.7285C28.1387 96.3092 27.3897 95.699 26.7997 94.9432L4.00489 65.735C3.87746 65.5704 3.75798 65.3994 3.64689 65.2228C3.18873 64.5004 2.87699 63.6914 2.73013 62.8437C2.58327 61.996 2.60426 61.1268 2.79188 60.2875L10.9166 23.8608C11.1272 22.9181 11.5429 22.036 12.1328 21.2801C12.7227 20.5241 13.4717 19.9137 14.324 19.4942L47.2568 3.27752C48.0123 2.90558 48.8328 2.6916 49.6702 2.64812L49.6702 2.64808Z" fill="white"/>
<path fill-rule="evenodd" clip-rule="evenodd" d="M41.6198 23H77.7987V49.1899H41.6198V23Z" stroke="white" stroke-width="0.529146" stroke-miterlimit="10" stroke-linecap="square" stroke-linejoin="round" stroke-dasharray="1.59 1.59"/>
<path d="M23 70.5646H62.2261" stroke="white" stroke-width="0.61833"/>
<path fill-rule="evenodd" clip-rule="evenodd" d="M33.0879 31.0645H69.2668V57.2544H33.0879V31.0645Z" fill="#326CE5" stroke="white" stroke-width="0.529146" stroke-miterlimit="10" stroke-linecap="square" stroke-linejoin="round" stroke-dasharray="1.59 1.59"/>
<path fill-rule="evenodd" clip-rule="evenodd" d="M24.556 39.1289H60.7349V65.3189H24.556V39.1289Z" stroke="white" stroke-width="0.529167" stroke-miterlimit="10" stroke-linejoin="round"/>
<path fill-rule="evenodd" clip-rule="evenodd" d="M24.3105 39.2276H60.4895V65.4175H24.3105V39.2276Z" fill="white"/>
</g>
<defs>
<clipPath id="clip0_2_157">
<rect width="100" height="100" fill="white"/>
</clipPath>
</defs>
</svg>
