<svg width="100" height="100" viewBox="0 0 100 100" fill="none" xmlns="http://www.w3.org/2000/svg">
<path d="M49.8667 2.64662C49.0292 2.6901 48.2087 2.90408 47.4533 3.27602L14.5205 19.4927C13.6681 19.9122 12.9191 20.5226 12.3292 21.2786C11.7393 22.0345 11.3237 22.9166 11.1131 23.8593L2.9883 60.286C2.80069 61.1253 2.77969 61.9945 2.92656 62.8422C3.07342 63.6899 3.38516 64.4989 3.84332 65.2213C3.95441 65.3979 4.07389 65.5689 4.20132 65.7335L26.9961 94.9417C27.5861 95.6975 28.3351 96.3077 29.1875 96.727C30.0399 97.1463 30.9738 97.364 31.9198 97.3638L68.4748 97.3551C69.4204 97.3558 70.3541 97.1388 71.2065 96.7203C72.0588 96.3017 72.8081 95.6923 73.3985 94.9374L96.1849 65.7249C96.7752 64.9687 97.1912 64.0863 97.4019 63.1432C97.6127 62.2 97.6127 61.2205 97.4021 60.2774L89.2647 23.8507C89.0541 22.9079 88.6384 22.0258 88.0485 21.2699C87.4586 20.5139 86.7097 19.9035 85.8573 19.484L52.9203 3.27602C51.97 2.80815 50.92 2.59173 49.8667 2.64662Z" fill="#326CE5"/>
<path d="M49.849 0.00897171C48.9659 0.0566405 48.1011 0.283895 47.305 0.677431L12.5358 17.7926C11.636 18.2355 10.8454 18.8799 10.2227 19.6779C9.6 20.476 9.16119 21.4072 8.93888 22.4023L0.36347 60.8561C0.164814 61.7425 0.142229 62.6606 0.297054 63.5561C0.451878 64.4515 0.78096 65.3061 1.26481 66.0692C1.38251 66.2548 1.50901 66.4344 1.64386 66.6074L25.7064 97.4434C26.3293 98.2411 27.12 98.8852 28.0197 99.3278C28.9195 99.7704 29.9053 100 30.9039 100L69.4932 99.9913C70.4915 99.992 71.477 99.7629 72.3768 99.3211C73.2765 98.8792 74.0674 98.236 74.6907 97.439L98.7448 66.5987C99.3674 65.8009 99.8062 64.8699 100.029 63.875C100.251 62.8801 100.251 61.8468 100.029 60.8517L91.4414 22.3937C91.2185 21.3993 90.7795 20.4689 90.1568 19.6717C89.5341 18.8744 88.7438 18.2307 87.8445 17.7882L53.0753 0.673091C52.0713 0.178835 50.9619 -0.0495361 49.849 0.00897171ZM49.8658 2.64808C50.9192 2.59319 51.9692 2.80961 52.9194 3.27748L85.8564 19.4854C86.7088 19.9049 87.4578 20.5154 88.0477 21.2713C88.6376 22.0273 89.0533 22.9094 89.2639 23.8521L97.4013 60.2788C97.6119 61.2219 97.6118 62.2015 97.4011 63.1446C97.1904 64.0877 96.7744 64.9701 96.184 65.7263L73.3977 94.9388C72.8072 95.6938 72.058 96.3032 71.2056 96.7218C70.3533 97.1403 69.4196 97.3573 68.474 97.3566L31.919 97.3653C30.973 97.3655 30.0391 97.1478 29.1867 96.7285C28.3343 96.3092 27.5853 95.699 26.9953 94.9432L4.2005 65.735C4.07306 65.5704 3.95359 65.3994 3.8425 65.2228C3.38433 64.5004 3.0726 63.6914 2.92573 62.8437C2.77887 61.996 2.79987 61.1268 2.98748 60.2875L11.1122 23.8608C11.3228 22.9181 11.7385 22.036 12.3284 21.2801C12.9183 20.5241 13.6673 19.9137 14.5196 19.4942L47.4524 3.27752C48.2079 2.90558 49.0284 2.6916 49.8658 2.64812L49.8658 2.64808Z" fill="white"/>
<path fill-rule="evenodd" clip-rule="evenodd" d="M40.0636 24H76.2426V50.1899H40.0636V24Z" stroke="white" stroke-width="0.529146" stroke-miterlimit="10" stroke-linecap="square" stroke-linejoin="round" stroke-dasharray="1.59 1.59"/>
<path fill-rule="evenodd" clip-rule="evenodd" d="M31.5317 32.0645H67.7108V58.2544H31.5317V32.0645Z" fill="#326CE5" stroke="white" stroke-width="0.529146" stroke-miterlimit="10" stroke-linecap="square" stroke-linejoin="round" stroke-dasharray="1.59 1.59"/>
<path fill-rule="evenodd" clip-rule="evenodd" d="M23 40.1289H59.1789V66.3188H23V40.1289Z" fill="white"/>
<path fill-rule="evenodd" clip-rule="evenodd" d="M23 40.1289H59.1789V66.3188H23V40.1289Z" stroke="white" stroke-width="0.529167" stroke-miterlimit="10" stroke-linejoin="round"/>
<path fill-rule="evenodd" clip-rule="evenodd" d="M25.9562 47.4108C25.9562 44.9571 32.7312 42.968 41.0885 42.968C49.4459 42.968 56.2209 44.9571 56.2209 47.4108C56.2209 49.8644 49.4459 51.8536 41.0885 51.8536C32.7312 51.8536 25.9562 49.8644 25.9562 47.4108Z" fill="white"/>
<path d="M56.2209 47.4108C56.2209 49.8644 49.4459 51.8536 41.0886 51.8536C32.7312 51.8536 25.9563 49.8644 25.9563 47.4108C25.9563 44.9571 32.7312 42.968 41.0886 42.968C49.4459 42.968 56.2209 44.9571 56.2209 47.4108ZM56.2209 47.4108V59.4295C56.2209 61.8832 49.4459 63.8723 41.0886 63.8723C32.7312 63.8723 25.9563 61.8832 25.9563 59.4295V47.4108" stroke="#326CE5" stroke-width="0.529167" stroke-miterlimit="10" stroke-linejoin="round"/>
</svg>
