
<svg width="32" height="32" viewBox="0 0 32 32" fill="none" xmlns="http://www.w3.org/2000/svg">
<path d="M27.7075 16.7076L18.7075 25.7076C18.5199 25.8952 18.2654 26.0006 18 26.0006C17.7346 26.0006 17.4801 25.8952 17.2925 25.7076C17.1049 25.5199 16.9994 25.2654 16.9994 25.0001C16.9994 24.7347 17.1049 24.4802 17.2925 24.2926L24.5863 17.0001H5C4.73478 17.0001 4.48043 16.8947 4.29289 16.7072C4.10536 16.5196 4 16.2653 4 16.0001C4 15.7349 4.10536 15.4805 4.29289 15.293C4.48043 15.1054 4.73478 15.0001 5 15.0001H24.5863L17.2925 7.70757C17.1049 7.51993 16.9994 7.26543 16.9994 7.00007C16.9994 6.7347 17.1049 6.48021 17.2925 6.29257C17.4801 6.10493 17.7346 5.99951 18 5.99951C18.2654 5.99951 18.5199 6.10493 18.7075 6.29257L27.7075 15.2926C27.8005 15.3854 27.8742 15.4957 27.9246 15.6171C27.9749 15.7385 28.0008 15.8687 28.0008 16.0001C28.0008 16.1315 27.9749 16.2616 27.9246 16.383C27.8742 16.5044 27.8005 16.6147 27.7075 16.7076Z" fill="#0A1824"/>
</svg>
