<svg width="20" height="20" viewBox="0 0 20 20" fill="none" xmlns="http://www.w3.org/2000/svg">
<rect width="20" height="20" rx="6" fill="url(#paint0_linear_157_662)"/>
<path d="M10 5.125C9.03582 5.125 8.09329 5.41091 7.2916 5.94659C6.48991 6.48226 5.86507 7.24363 5.49609 8.13442C5.12711 9.02521 5.03057 10.0054 5.21867 10.9511C5.40678 11.8967 5.87108 12.7654 6.55286 13.4471C7.23464 14.1289 8.10328 14.5932 9.04894 14.7813C9.99459 14.9694 10.9748 14.8729 11.8656 14.5039C12.7564 14.1349 13.5177 13.5101 14.0534 12.7084C14.5891 11.9067 14.875 10.9642 14.875 10C14.8736 8.70749 14.3596 7.46831 13.4456 6.55436C12.5317 5.64042 11.2925 5.12636 10 5.125ZM10 14.125C9.18415 14.125 8.38663 13.8831 7.70828 13.4298C7.02992 12.9766 6.50121 12.3323 6.189 11.5786C5.87679 10.8248 5.7951 9.99542 5.95426 9.19525C6.11343 8.39508 6.5063 7.66008 7.08319 7.08318C7.66008 6.50629 8.39508 6.11342 9.19525 5.95426C9.99543 5.7951 10.8248 5.87679 11.5786 6.189C12.3323 6.50121 12.9766 7.02992 13.4298 7.70827C13.8831 8.38663 14.125 9.18415 14.125 10C14.1238 11.0936 13.6888 12.1421 12.9154 12.9154C12.1421 13.6888 11.0936 14.1238 10 14.125ZM9.625 10.375V7.75C9.625 7.65054 9.66451 7.55516 9.73484 7.48484C9.80516 7.41451 9.90055 7.375 10 7.375C10.0995 7.375 10.1948 7.41451 10.2652 7.48484C10.3355 7.55516 10.375 7.65054 10.375 7.75V10.375C10.375 10.4745 10.3355 10.5698 10.2652 10.6402C10.1948 10.7105 10.0995 10.75 10 10.75C9.90055 10.75 9.80516 10.7105 9.73484 10.6402C9.66451 10.5698 9.625 10.4745 9.625 10.375ZM10.5625 12.0625C10.5625 12.1738 10.5295 12.2825 10.4677 12.375C10.4059 12.4675 10.318 12.5396 10.2153 12.5822C10.1125 12.6248 9.99938 12.6359 9.89026 12.6142C9.78115 12.5925 9.68092 12.5389 9.60225 12.4602C9.52359 12.3816 9.47002 12.2814 9.44831 12.1722C9.42661 12.0631 9.43775 11.95 9.48032 11.8472C9.52289 11.7445 9.59499 11.6566 9.68749 11.5948C9.78 11.533 9.88875 11.5 10 11.5C10.1492 11.5 10.2923 11.5593 10.3977 11.6648C10.5032 11.7702 10.5625 11.9133 10.5625 12.0625Z" fill="white"/>
<defs>
<linearGradient id="paint0_linear_157_662" x1="10" y1="0" x2="10" y2="20" gradientUnits="userSpaceOnUse">
<stop stop-color="#FD3F3F"/>
<stop offset="1" stop-color="#2B2F56"/>
</linearGradient>
</defs>
</svg>
