<svg width="12" height="13" viewBox="0 0 12 13" fill="none" xmlns="http://www.w3.org/2000/svg">
<path d="M10.0155 5.26528L6.26552 9.01528C6.23069 9.05014 6.18934 9.0778 6.14381 9.09667C6.09829 9.11555 6.04949 9.12526 6.00021 9.12526C5.95093 9.12526 5.90213 9.11555 5.85661 9.09667C5.81108 9.0778 5.76972 9.05014 5.7349 9.01528L1.9849 5.26528C1.91453 5.19491 1.875 5.09948 1.875 4.99996C1.875 4.90045 1.91453 4.80502 1.9849 4.73465C2.05526 4.66429 2.1507 4.62476 2.25021 4.62476C2.34972 4.62476 2.44516 4.66429 2.51552 4.73465L6.00021 8.21981L9.4849 4.73465C9.51974 4.69981 9.5611 4.67217 9.60662 4.65332C9.65214 4.63446 9.70094 4.62476 9.75021 4.62476C9.79948 4.62476 9.84827 4.63446 9.8938 4.65332C9.93932 4.67217 9.98068 4.69981 10.0155 4.73465C10.0504 4.76949 10.078 4.81086 10.0969 4.85638C10.1157 4.9019 10.1254 4.95069 10.1254 4.99996C10.1254 5.04924 10.1157 5.09803 10.0969 5.14355C10.078 5.18907 10.0504 5.23044 10.0155 5.26528Z" fill="#CCD0D2"/>
</svg>
