<svg width="24" height="25" viewBox="0 0 24 25" fill="none" xmlns="http://www.w3.org/2000/svg">
<g filter="url(#filter0_d_48_6611)">
<path d="M18 6.92102C18 7.05363 17.9473 7.18081 17.8536 7.27457C17.7598 7.36834 17.6326 7.42102 17.5 7.42102C17.3674 7.42102 17.2402 7.36834 17.1464 7.27457C17.0527 7.18081 17 7.05363 17 6.92102V4.12852L12.8544 8.27477C12.7606 8.36859 12.6333 8.4213 12.5006 8.4213C12.3679 8.4213 12.2407 8.36859 12.1469 8.27477C12.0531 8.18095 12.0003 8.0537 12.0003 7.92102C12.0003 7.78834 12.0531 7.66109 12.1469 7.56727L16.2925 3.42102H13.5C13.3674 3.42102 13.2402 3.36834 13.1464 3.27457C13.0527 3.18081 13 3.05363 13 2.92102C13 2.78841 13.0527 2.66124 13.1464 2.56747C13.2402 2.4737 13.3674 2.42102 13.5 2.42102H17.5C17.6326 2.42102 17.7598 2.4737 17.8536 2.56747C17.9473 2.66124 18 2.78841 18 2.92102V6.92102ZM15.5 8.42102C15.3674 8.42102 15.2402 8.4737 15.1464 8.56747C15.0527 8.66123 15 8.78841 15 8.92102V13.421H7V5.42102H11.5C11.6326 5.42102 11.7598 5.36834 11.8536 5.27457C11.9473 5.18081 12 5.05363 12 4.92102C12 4.78841 11.9473 4.66124 11.8536 4.56747C11.7598 4.4737 11.6326 4.42102 11.5 4.42102H7C6.73478 4.42102 6.48043 4.52638 6.29289 4.71391C6.10536 4.90145 6 5.1558 6 5.42102V13.421C6 13.6862 6.10536 13.9406 6.29289 14.1281C6.48043 14.3157 6.73478 14.421 7 14.421H15C15.2652 14.421 15.5196 14.3157 15.7071 14.1281C15.8946 13.9406 16 13.6862 16 13.421V8.92102C16 8.78841 15.9473 8.66123 15.8536 8.56747C15.7598 8.4737 15.6326 8.42102 15.5 8.42102Z" fill="#96F2FF"/>
</g>
<defs>
<filter id="filter0_d_48_6611" x="0" y="0.421021" width="24" height="24" filterUnits="userSpaceOnUse" color-interpolation-filters="sRGB">
<feFlood flood-opacity="0" result="BackgroundImageFix"/>
<feColorMatrix in="SourceAlpha" type="matrix" values="0 0 0 0 0 0 0 0 0 0 0 0 0 0 0 0 0 0 127 0" result="hardAlpha"/>
<feOffset dy="4"/>
<feGaussianBlur stdDeviation="2"/>
<feComposite in2="hardAlpha" operator="out"/>
<feColorMatrix type="matrix" values="0 0 0 0 0 0 0 0 0 0 0 0 0 0 0 0 0 0 0.25 0"/>
<feBlend mode="normal" in2="BackgroundImageFix" result="effect1_dropShadow_48_6611"/>
<feBlend mode="normal" in="SourceGraphic" in2="effect1_dropShadow_48_6611" result="shape"/>
</filter>
</defs>
</svg>
