<svg width="24" height="24" viewBox="0 0 24 24" fill="none" xmlns="http://www.w3.org/2000/svg">
<path d="M3.21986 11.4694L9.96986 4.71944C10.1106 4.57871 10.3015 4.49965 10.5005 4.49965C10.6995 4.49965 10.8904 4.57871 11.0311 4.71944C11.1718 4.86017 11.2509 5.05105 11.2509 5.25007C11.2509 5.44909 11.1718 5.63996 11.0311 5.7807L5.5608 11.2501L20.2505 11.2501C20.4494 11.2501 20.6402 11.3291 20.7808 11.4697C20.9215 11.6104 21.0005 11.8012 21.0005 12.0001C21.0005 12.199 20.9215 12.3897 20.7808 12.5304C20.6402 12.6711 20.4494 12.7501 20.2505 12.7501L5.5608 12.7501L11.0311 18.2194C11.1718 18.3602 11.2509 18.551 11.2509 18.7501C11.2509 18.9491 11.1718 19.14 11.0311 19.2807C10.8904 19.4214 10.6995 19.5005 10.5005 19.5005C10.3015 19.5005 10.1106 19.4214 9.96986 19.2807L3.21986 12.5307C3.15013 12.461 3.09481 12.3783 3.05707 12.2873C3.01933 12.1962 2.9999 12.0986 2.9999 12.0001C2.9999 11.9015 3.01933 11.8039 3.05707 11.7129C3.09481 11.6218 3.15013 11.5391 3.21986 11.4694Z" fill="white"/>
</svg>
