<svg width="24" height="24" viewBox="0 0 24 24" fill="none" xmlns="http://www.w3.org/2000/svg">
<path d="M23.0453 11.1522L13.3478 1.45474C13.2036 1.31057 13.0325 1.19621 12.8441 1.11818C12.6558 1.04016 12.4539 1 12.25 1C12.0461 1 11.8442 1.04016 11.6559 1.11818C11.4675 1.19621 11.2964 1.31057 11.1522 1.45474L1.45474 11.1522C1.31057 11.2964 1.19621 11.4675 1.11818 11.6559C1.04016 11.8442 1 12.0461 1 12.25C1 12.4539 1.04016 12.6558 1.11818 12.8441C1.19621 13.0325 1.31057 13.2036 1.45474 13.3478L11.1522 23.0453C11.2964 23.1894 11.4675 23.3038 11.6559 23.3818C11.8442 23.4598 12.0461 23.5 12.25 23.5C12.4539 23.5 12.6558 23.4598 12.8441 23.3818C13.0325 23.3038 13.2036 23.1894 13.3478 23.0453L23.0453 13.3478C23.1894 13.2036 23.3038 13.0325 23.3818 12.8441C23.4598 12.6558 23.5 12.4539 23.5 12.25C23.5 12.0461 23.4598 11.8442 23.3818 11.6559C23.3038 11.4675 23.1894 11.2964 23.0453 11.1522ZM16.5306 12.0306L14.2806 14.2806C14.1399 14.4213 13.949 14.5004 13.75 14.5004C13.551 14.5004 13.3601 14.4213 13.2194 14.2806C13.0786 14.1399 12.9996 13.949 12.9996 13.75C12.9996 13.551 13.0786 13.3601 13.2194 13.2194L14.1897 12.25H10.75C10.3522 12.25 9.97066 12.408 9.68935 12.6893C9.40805 12.9706 9.25002 13.3522 9.25002 13.75V14.5C9.25002 14.6989 9.171 14.8897 9.03035 15.0303C8.8897 15.171 8.69893 15.25 8.50002 15.25C8.30111 15.25 8.11034 15.171 7.96969 15.0303C7.82904 14.8897 7.75002 14.6989 7.75002 14.5V13.75C7.75002 12.9543 8.06609 12.1913 8.6287 11.6287C9.1913 11.0661 9.95436 10.75 10.75 10.75H14.1897L13.2194 9.78064C13.0786 9.63991 12.9996 9.44904 12.9996 9.25002C12.9996 9.05099 13.0786 8.86012 13.2194 8.71939C13.3601 8.57866 13.551 8.4996 13.75 8.4996C13.949 8.4996 14.1399 8.57866 14.2806 8.71939L16.5306 10.9694C16.6003 11.039 16.6557 11.1218 16.6934 11.2128C16.7311 11.3038 16.7506 11.4014 16.7506 11.5C16.7506 11.5986 16.7311 11.6962 16.6934 11.7872C16.6557 11.8783 16.6003 11.961 16.5306 12.0306Z" fill="#8B92A5"/>
</svg>
