<svg width="24" height="24" viewBox="0 0 24 24" fill="none" xmlns="http://www.w3.org/2000/svg">
<path d="M22.3725 7.37097C22.0941 7.65023 21.7633 7.87169 21.399 8.0226C21.0348 8.17352 20.6443 8.25092 20.25 8.25034C20.0086 8.25021 19.7682 8.22126 19.5337 8.16409L17.0371 12.801C17.0653 12.8272 17.0934 12.8535 17.1206 12.8807C17.5173 13.2774 17.7947 13.7775 17.9215 14.324C18.0482 14.8706 18.0192 15.4417 17.8376 15.9726C17.656 16.5034 17.3292 16.9728 16.8943 17.3272C16.4594 17.6817 15.9338 17.9071 15.3773 17.9778C14.8207 18.0485 14.2554 17.9618 13.7457 17.7274C13.2359 17.493 12.8021 17.1203 12.4936 16.6518C12.185 16.1832 12.014 15.6375 12 15.0766C11.986 14.5157 12.1295 13.9622 12.4143 13.4788L10.5225 11.5869C10.0609 11.8581 9.53526 12.0008 8.99996 12.0003C8.75836 12.0005 8.51759 11.9719 8.28277 11.915L5.78621 16.55C5.81434 16.5763 5.8434 16.6025 5.87059 16.6297C6.29008 17.0493 6.57573 17.5839 6.69143 18.1658C6.80713 18.7477 6.74768 19.3509 6.5206 19.899C6.29351 20.4471 5.909 20.9156 5.41566 21.2453C4.92233 21.5749 4.34234 21.7508 3.74902 21.7508C3.15571 21.7508 2.57572 21.5749 2.08239 21.2453C1.58905 20.9156 1.20453 20.4471 0.977452 19.899C0.750369 19.3509 0.690919 18.7477 0.806619 18.1658C0.922319 17.5839 1.20797 17.0493 1.62746 16.6297C1.99247 16.2649 2.44543 16.0004 2.94255 15.8618C3.43967 15.7231 3.96415 15.7151 4.46527 15.8385L6.96184 11.2016C6.93371 11.1753 6.90559 11.1491 6.8784 11.1219C6.59975 10.8433 6.37871 10.5126 6.2279 10.1486C6.0771 9.78453 5.99948 9.39437 5.99948 9.00034C5.99948 8.60632 6.0771 8.21616 6.2279 7.85213C6.37871 7.48811 6.59975 7.15736 6.8784 6.87878C7.39453 6.3612 8.08186 6.04985 8.81131 6.00321C9.54077 5.95658 10.2622 6.17787 10.84 6.62551C11.4178 7.07316 11.8123 7.71637 11.9495 8.43434C12.0866 9.15231 11.9569 9.89563 11.5847 10.5247L13.4765 12.4166C14.1525 12.0205 14.956 11.9029 15.7171 12.0885L18.2137 7.45159C18.1856 7.42534 18.1565 7.39909 18.1293 7.3719C17.8507 7.09332 17.6297 6.76257 17.4788 6.39855C17.328 6.03453 17.2504 5.64437 17.2504 5.25034C17.2504 4.85632 17.328 4.46616 17.4788 4.10213C17.6297 3.73811 17.8507 3.40736 18.1293 3.12878C18.692 2.56611 19.4552 2.25 20.2509 2.25C21.0466 2.25 21.8098 2.56611 22.3725 3.12878C22.9351 3.69145 23.2512 4.4546 23.2512 5.25034C23.2512 6.04608 22.9351 6.80923 22.3725 7.3719V7.37097Z" fill="#0EE6F3"/>
</svg>
