<svg width="24" height="24" viewBox="0 0 24 24" fill="none" xmlns="http://www.w3.org/2000/svg">
<path d="M22.0302 7.7808L18.81 11L21.2802 13.4693C21.3499 13.539 21.4052 13.6217 21.4429 13.7128C21.4806 13.8038 21.5 13.9014 21.5 13.9999C21.5 14.0985 21.4806 14.196 21.4429 14.2871C21.4052 14.3781 21.3499 14.4608 21.2802 14.5305C21.2106 14.6002 21.1278 14.6555 21.0368 14.6932C20.9458 14.7309 20.8482 14.7503 20.7496 14.7503C20.6511 14.7503 20.5535 14.7309 20.4625 14.6932C20.3714 14.6555 20.2887 14.6002 20.219 14.5305L19.6247 13.9352L14.6561 18.9038C14.3079 19.252 13.8945 19.5282 13.4396 19.7167C12.9846 19.9052 12.497 20.0022 12.0045 20.0022C11.5121 20.0022 11.0245 19.9052 10.5695 19.7167C10.1145 19.5282 9.70113 19.252 9.35293 18.9038L7.88299 17.4282L3.28099 22.0302C3.21131 22.0999 3.12859 22.1552 3.03755 22.1929C2.94651 22.2306 2.84893 22.25 2.75039 22.25C2.65184 22.25 2.55427 22.2306 2.46323 22.1929C2.37218 22.1552 2.28946 22.0999 2.21978 22.0302C2.1501 21.9605 2.09483 21.8778 2.05712 21.7868C2.01941 21.6957 2 21.5982 2 21.4996C2 21.4011 2.01941 21.3035 2.05712 21.2125C2.09483 21.1214 2.1501 21.0387 2.21978 20.969L6.82178 16.367L5.34903 14.8943C5.0008 14.5461 4.72457 14.1327 4.53611 13.6777C4.34766 13.2227 4.25066 12.7351 4.25066 12.2427C4.25066 11.7502 4.34766 11.2626 4.53611 10.8076C4.72457 10.3526 5.0008 9.93925 5.34903 9.59104L10.3176 4.6225L9.72229 4.02815C9.58156 3.88742 9.5025 3.69656 9.5025 3.49754C9.5025 3.29853 9.58156 3.10766 9.72229 2.96694C9.86301 2.82621 10.0539 2.74716 10.2529 2.74716C10.4519 2.74716 10.6428 2.82621 10.7835 2.96694L13.25 5.43996L16.4692 2.21978C16.6099 2.07906 16.8008 2 16.9998 2C17.1988 2 17.3897 2.07906 17.5304 2.21978C17.6711 2.36051 17.7502 2.55137 17.7502 2.75039C17.7502 2.9494 17.6711 3.14026 17.5304 3.28099L14.3102 6.50023L17.7498 9.93978L20.969 6.7196C21.1097 6.57887 21.3006 6.49981 21.4996 6.49981C21.6986 6.49981 21.8895 6.57887 22.0302 6.7196C22.1709 6.86032 22.25 7.05119 22.25 7.2502C22.25 7.44922 22.1709 7.64008 22.0302 7.7808Z" fill="#96F2FF"/>
</svg>
