<svg width="24" height="20" viewBox="0 0 24 20" fill="none" xmlns="http://www.w3.org/2000/svg">
<path d="M22.3725 5.37048C22.0941 5.64974 21.7633 5.8712 21.399 6.02211C21.0348 6.17303 20.6443 6.25043 20.25 6.24985C20.0086 6.24972 19.7682 6.22077 19.5337 6.1636L17.0371 10.8005C17.0653 10.8267 17.0934 10.853 17.1206 10.8802C17.5173 11.2769 17.7947 11.777 17.9215 12.3235C18.0482 12.8701 18.0192 13.4412 17.8376 13.9721C17.656 14.503 17.3292 14.9723 16.8943 15.3267C16.4594 15.6812 15.9338 15.9066 15.3773 15.9773C14.8207 16.048 14.2554 15.9613 13.7457 15.7269C13.2359 15.4925 12.8021 15.1198 12.4936 14.6513C12.185 14.1827 12.014 13.637 12 13.0761C11.986 12.5152 12.1295 11.9617 12.4143 11.4783L10.5225 9.58642C10.0609 9.85759 9.53526 10.0003 8.99996 9.99985C8.75836 10 8.51759 9.9714 8.28277 9.91454L5.78621 14.5495C5.81434 14.5758 5.8434 14.602 5.87059 14.6292C6.29008 15.0488 6.57573 15.5834 6.69143 16.1653C6.80713 16.7472 6.74768 17.3504 6.5206 17.8985C6.29351 18.4467 5.909 18.9151 5.41566 19.2448C4.92233 19.5744 4.34234 19.7503 3.74902 19.7503C3.15571 19.7503 2.57572 19.5744 2.08239 19.2448C1.58905 18.9151 1.20453 18.4467 0.977452 17.8985C0.750369 17.3504 0.690919 16.7472 0.806619 16.1653C0.922319 15.5834 1.20797 15.0488 1.62746 14.6292C1.99247 14.2644 2.44543 13.9999 2.94255 13.8613C3.43967 13.7227 3.96415 13.7146 4.46527 13.838L6.96184 9.20111C6.93371 9.17485 6.90559 9.1486 6.8784 9.12142C6.59975 8.84283 6.37871 8.51208 6.2279 8.14806C6.0771 7.78404 5.99948 7.39388 5.99948 6.99985C5.99948 6.60583 6.0771 6.21567 6.2279 5.85165C6.37871 5.48762 6.59975 5.15688 6.8784 4.87829C7.39453 4.36071 8.08186 4.04936 8.81131 4.00273C9.54077 3.95609 10.2622 4.17738 10.84 4.62503C11.4178 5.07267 11.8123 5.71588 11.9495 6.43385C12.0866 7.15182 11.9569 7.89515 11.5847 8.52423L13.4765 10.4161C14.1525 10.02 14.956 9.90236 15.7171 10.088L18.2137 5.4511C18.1856 5.42485 18.1565 5.3986 18.1293 5.37142C17.8507 5.09283 17.6297 4.76208 17.4788 4.39806C17.328 4.03404 17.2504 3.64388 17.2504 3.24985C17.2504 2.85583 17.328 2.46567 17.4788 2.10165C17.6297 1.73762 17.8507 1.40688 18.1293 1.12829C18.692 0.565618 19.4552 0.249512 20.2509 0.249512C21.0466 0.249512 21.8098 0.565618 22.3725 1.12829C22.9351 1.69096 23.2512 2.45411 23.2512 3.24985C23.2512 4.04559 22.9351 4.80874 22.3725 5.37142V5.37048Z" fill="#8B92A5"/>
</svg>
