<svg viewBox="-2.5 0 32 32" version="1.1" xmlns="http://www.w3.org/2000/svg" xmlns:xlink="http://www.w3.org/1999/xlink" fill="#8b92a6"><g id="SVGRepo_bgCarrier" stroke-width="0"></g><g id="SVGRepo_tracerCarrier" stroke-linecap="round" stroke-linejoin="round"></g><g id="SVGRepo_iconCarrier"> <title>paper</title> <desc>Created with Sketch.</desc> <g id="icons" stroke="none" stroke-width="1" fill="none" fill-rule="evenodd"> <g id="ui-gambling-website-lined-icnos-casinoshunter" transform="translate(-476.000000, -284.000000)" fill="#ffffff" fill-rule="nonzero"> <g id="square-filled" transform="translate(50.000000, 120.000000)"> <path d="M447.017693,164 C447.504179,164 447.973985,164.177317 448.339153,164.498753 L452.32146,168.004143 C452.752813,168.383838 453,168.930731 453,169.505391 L453,193 C453,194.656854 451.656854,196 450,196 L429,196 C427.343146,196 426,194.656854 426,193 L426,167 C426,165.343146 427.343146,164 429,164 L447.017693,164 Z M446,166 L429,166 C428.447715,166 428,166.447715 428,167 L428,193 C428,193.552285 428.447715,194 429,194 L450,194 C450.552285,194 451,193.552285 451,193 L451,172 L448.659002,172 C447.198488,172 446.085129,170.710688 446.004662,169.160652 L446,168.980703 L446,166 Z M451,169.505391 L448,166.865 L448,168.980703 C448,169.535984 448.292436,169.934644 448.585808,169.992691 L448.659002,170 L451,170 L451,169.505391 Z" id="paper"> </path> </g> </g> </g> </g></svg>