<svg width="16" height="16" viewBox="0 0 16 16" fill="none" xmlns="http://www.w3.org/2000/svg">
<path d="M14.5 13C14.5 13.1326 14.4473 13.2598 14.3536 13.3536C14.2598 13.4473 14.1326 13.5 14 13.5H2C1.86739 13.5 1.74021 13.4473 1.64645 13.3536C1.55268 13.2598 1.5 13.1326 1.5 13V3C1.5 2.86739 1.55268 2.74021 1.64645 2.64645C1.74021 2.55268 1.86739 2.5 2 2.5C2.13261 2.5 2.25979 2.55268 2.35355 2.64645C2.44732 2.74021 2.5 2.86739 2.5 3V8.89812L5.67063 6.125C5.7569 6.04947 5.86652 6.0059 5.9811 6.00157C6.09569 5.99725 6.20828 6.03244 6.3 6.10125L9.97563 8.85812L13.6706 5.625C13.7191 5.57704 13.7768 5.5395 13.8403 5.51467C13.9038 5.48985 13.9717 5.47827 14.0398 5.48065C14.1079 5.48303 14.1749 5.49931 14.2365 5.5285C14.2981 5.55769 14.3531 5.59917 14.398 5.65038C14.443 5.7016 14.4771 5.76148 14.4981 5.82633C14.5191 5.89119 14.5266 5.95965 14.5201 6.02752C14.5137 6.09538 14.4935 6.16122 14.4607 6.22097C14.4279 6.28073 14.3832 6.33314 14.3294 6.375L10.3294 9.875C10.2431 9.95053 10.1335 9.9941 10.0189 9.99843C9.90431 10.0028 9.79172 9.96756 9.7 9.89875L6.02437 7.14313L2.5 10.2269V12.5H14C14.1326 12.5 14.2598 12.5527 14.3536 12.6464C14.4473 12.7402 14.5 12.8674 14.5 13Z" fill="#8B92A5"/>
</svg>
