<svg width="166" height="190" viewBox="0 0 166 190" fill="none" xmlns="http://www.w3.org/2000/svg">
<rect x="23.0986" y="0.5" width="136.988" height="127.475" rx="6" fill="url(#paint0_linear_100_2989)"/>
<rect x="23.0986" y="0.5" width="136.988" height="127.475" rx="6" fill="url(#paint1_radial_100_2989)" fill-opacity="0.4"/>
<rect x="23.8121" y="1.21348" width="135.561" height="126.048" rx="5.28652" stroke="url(#paint2_linear_100_2989)" stroke-opacity="0.5" stroke-width="1.42696"/>
<rect x="5.91211" y="24.9274" width="131.28" height="125.573" rx="2.39323" fill="#132330" stroke="#96F2FF" stroke-width="1.19661" stroke-dasharray="7.18 7.18"/>
<path opacity="0.2" d="M64.9246 101.185C64.9246 103.067 64.3667 104.906 63.3213 106.47C62.276 108.035 60.7903 109.254 59.052 109.974C57.3137 110.694 55.401 110.883 53.5556 110.516C51.7103 110.149 50.0152 109.243 48.6848 107.912C47.3543 106.582 46.4483 104.887 46.0812 103.041C45.7142 101.196 45.9026 99.2831 46.6226 97.5448C47.3426 95.8065 48.5619 94.3208 50.1263 93.2755C51.6908 92.2302 53.53 91.6722 55.4115 91.6722C57.9345 91.6722 60.3542 92.6745 62.1383 94.4586C63.9223 96.2426 64.9246 98.6623 64.9246 101.185ZM85.8534 91.6722C83.9718 91.6722 82.1326 92.2302 80.5682 93.2755C79.0038 94.3208 77.7844 95.8065 77.0644 97.5448C76.3444 99.2831 76.156 101.196 76.5231 103.041C76.8901 104.887 77.7962 106.582 79.1266 107.912C80.457 109.243 82.1521 110.149 83.9974 110.516C85.8428 110.883 87.7556 110.694 89.4939 109.974C91.2321 109.254 92.7179 108.035 93.7632 106.47C94.8085 104.906 95.3664 103.067 95.3664 101.185C95.3664 98.6623 94.3642 96.2426 92.5801 94.4586C90.7961 92.6745 88.3764 91.6722 85.8534 91.6722Z" fill="#374A5B"/>
<path d="M96.6034 97.3492C96.4445 96.9058 96.2579 96.4729 96.0445 96.053L86.1533 73.5498C86.0597 73.3331 85.9257 73.1362 85.7585 72.9695C85.0518 72.2627 84.2127 71.7019 83.2893 71.3193C82.3658 70.9368 81.376 70.7399 80.3765 70.7399C79.3769 70.7399 78.3871 70.9368 77.4637 71.3193C76.5402 71.7019 75.7012 72.2627 74.9944 72.9695C74.6389 73.3255 74.4388 73.8078 74.4379 74.3109V80.2565H66.8275V74.3109C66.8277 74.0609 66.7786 73.8134 66.6831 73.5825C66.5876 73.3515 66.4476 73.1416 66.271 72.9648C65.5642 72.2579 64.7252 71.6972 63.8017 71.3146C62.8783 70.932 61.8885 70.7351 60.8889 70.7351C59.8894 70.7351 58.8996 70.932 57.9761 71.3146C57.0527 71.6972 56.2136 72.2579 55.5069 72.9648C55.3397 73.1314 55.2057 73.3283 55.1121 73.5451L45.2209 96.0482C45.0075 96.4681 44.8209 96.901 44.662 97.3444C44.1019 98.9115 43.8913 100.582 44.0448 102.239C44.1983 103.896 44.7122 105.5 45.5506 106.937C46.3891 108.375 47.5316 109.612 48.8984 110.561C50.2651 111.511 51.8229 112.15 53.4627 112.434C55.1024 112.719 56.7845 112.641 58.391 112.206C59.9976 111.772 61.4897 110.992 62.7629 109.92C64.0362 108.848 65.0597 107.511 65.7618 106.002C66.4639 104.494 66.8276 102.85 66.8275 101.185V84.0618H74.4379V101.185C74.4371 102.85 74.8002 104.494 75.5019 106.003C76.2035 107.513 77.2267 108.85 78.4997 109.923C79.7728 110.995 81.2649 111.776 82.8715 112.21C84.4781 112.645 86.1604 112.723 87.8004 112.44C89.4404 112.156 90.9985 111.517 92.3656 110.567C93.7326 109.618 94.8755 108.381 95.7142 106.943C96.5528 105.506 97.067 103.902 97.2206 102.245C97.3742 100.587 97.1635 98.9165 96.6034 97.3492ZM58.4346 75.4406C59.0689 74.9064 59.8603 74.5942 60.6885 74.5512C61.5166 74.5083 62.3361 74.7371 63.0222 75.2027V92.6854C61.5368 91.3515 59.7269 90.4315 57.7738 90.0174C55.8208 89.6033 53.7932 89.7098 51.8943 90.3261L58.4346 75.4406ZM55.4118 108.796C53.9066 108.796 52.4352 108.349 51.1836 107.513C49.9321 106.677 48.9567 105.488 48.3806 104.098C47.8046 102.707 47.6539 101.177 47.9476 99.7006C48.2412 98.2243 48.966 96.8682 50.0304 95.8039C51.0947 94.7396 52.4508 94.0147 53.9271 93.7211C55.4033 93.4274 56.9336 93.5781 58.3242 94.1542C59.7148 94.7302 60.9034 95.7056 61.7396 96.9572C62.5759 98.2087 63.0222 99.6801 63.0222 101.185C63.0222 103.204 62.2204 105.139 60.7932 106.567C59.366 107.994 57.4302 108.796 55.4118 108.796ZM78.2432 75.2003C78.9293 74.7347 79.7488 74.5059 80.5769 74.5489C81.4051 74.5918 82.1965 74.9041 82.8308 75.4382L89.3711 90.3214C87.472 89.7054 85.4443 89.5993 83.4912 90.0138C81.5382 90.4283 79.7284 91.3487 78.2432 92.683V75.2003ZM85.8536 108.796C84.3484 108.796 82.877 108.349 81.6255 107.513C80.3739 106.677 79.3985 105.488 78.8225 104.098C78.2465 102.707 78.0957 101.177 78.3894 99.7006C78.683 98.2243 79.4079 96.8682 80.4722 95.8039C81.5366 94.7396 82.8926 94.0147 84.3689 93.7211C85.8452 93.4274 87.3754 93.5781 88.766 94.1542C90.1566 94.7302 91.3452 95.7056 92.1815 96.9572C93.0177 98.2087 93.4641 99.6801 93.4641 101.185C93.4641 103.204 92.6623 105.139 91.235 106.567C89.8078 107.994 87.872 108.796 85.8536 108.796Z" fill="#374A5B"/>
<path d="M10.6364 173.864V185.5H9.27273L2.93182 176.364H2.81818V185.5H1.40909V173.864H2.77273L9.13636 183.023H9.25V173.864H10.6364ZM16.8196 185.682C16.0317 185.682 15.3404 185.494 14.7457 185.119C14.1548 184.744 13.6927 184.22 13.3594 183.545C13.0298 182.871 12.8651 182.083 12.8651 181.182C12.8651 180.273 13.0298 179.479 13.3594 178.801C13.6927 178.123 14.1548 177.597 14.7457 177.222C15.3404 176.847 16.0317 176.659 16.8196 176.659C17.6075 176.659 18.2969 176.847 18.8878 177.222C19.4825 177.597 19.9446 178.123 20.2741 178.801C20.6075 179.479 20.7741 180.273 20.7741 181.182C20.7741 182.083 20.6075 182.871 20.2741 183.545C19.9446 184.22 19.4825 184.744 18.8878 185.119C18.2969 185.494 17.6075 185.682 16.8196 185.682ZM16.8196 184.477C17.4181 184.477 17.9105 184.324 18.2969 184.017C18.6832 183.71 18.9692 183.307 19.1548 182.807C19.3404 182.307 19.4332 181.765 19.4332 181.182C19.4332 180.598 19.3404 180.055 19.1548 179.551C18.9692 179.047 18.6832 178.64 18.2969 178.33C17.9105 178.019 17.4181 177.864 16.8196 177.864C16.2211 177.864 15.7287 178.019 15.3423 178.33C14.956 178.64 14.67 179.047 14.4844 179.551C14.2988 180.055 14.206 180.598 14.206 181.182C14.206 181.765 14.2988 182.307 14.4844 182.807C14.67 183.307 14.956 183.71 15.3423 184.017C15.7287 184.324 16.2211 184.477 16.8196 184.477ZM29.8892 185.705C29.3362 185.705 28.8343 185.6 28.3835 185.392C27.9328 185.18 27.5748 184.875 27.3097 184.477C27.0445 184.076 26.9119 183.591 26.9119 183.023C26.9119 182.523 27.0104 182.117 27.2074 181.807C27.4044 181.492 27.6676 181.246 27.9972 181.068C28.3267 180.89 28.6903 180.758 29.0881 180.67C29.4896 180.58 29.893 180.508 30.2983 180.455C30.8286 180.386 31.2585 180.335 31.5881 180.301C31.9214 180.263 32.1638 180.201 32.3153 180.114C32.4706 180.027 32.5483 179.875 32.5483 179.659V179.614C32.5483 179.053 32.3949 178.617 32.0881 178.307C31.785 177.996 31.3248 177.841 30.7074 177.841C30.0672 177.841 29.5653 177.981 29.2017 178.261C28.8381 178.542 28.5824 178.841 28.4347 179.159L27.1619 178.705C27.3892 178.174 27.6922 177.761 28.071 177.466C28.4536 177.167 28.8703 176.958 29.321 176.841C29.7756 176.72 30.2225 176.659 30.6619 176.659C30.9422 176.659 31.2642 176.693 31.6278 176.761C31.9953 176.826 32.3494 176.96 32.6903 177.165C33.035 177.369 33.321 177.678 33.5483 178.091C33.7756 178.504 33.8892 179.057 33.8892 179.75V185.5H32.5483V184.318H32.4801C32.3892 184.508 32.2377 184.71 32.0256 184.926C31.8134 185.142 31.5313 185.326 31.179 185.477C30.8267 185.629 30.3968 185.705 29.8892 185.705ZM30.0938 184.5C30.6241 184.5 31.071 184.396 31.4347 184.188C31.8021 183.979 32.0786 183.71 32.2642 183.381C32.4536 183.051 32.5483 182.705 32.5483 182.341V181.114C32.4915 181.182 32.3665 181.244 32.1733 181.301C31.9839 181.354 31.7642 181.402 31.5142 181.443C31.268 181.481 31.0275 181.515 30.7926 181.545C30.5616 181.572 30.3741 181.595 30.2301 181.614C29.8816 181.659 29.5559 181.733 29.2528 181.835C28.9536 181.934 28.7112 182.083 28.5256 182.284C28.3438 182.481 28.2528 182.75 28.2528 183.091C28.2528 183.557 28.4252 183.909 28.7699 184.148C29.1184 184.383 29.5597 184.5 30.0938 184.5ZM36.3366 188.773V176.773H37.6321V178.159H37.7912C37.8897 178.008 38.026 177.814 38.2003 177.58C38.3783 177.341 38.6321 177.129 38.9616 176.943C39.295 176.754 39.7457 176.659 40.3139 176.659C41.0488 176.659 41.6965 176.843 42.2571 177.21C42.8177 177.578 43.2552 178.098 43.5696 178.773C43.884 179.447 44.0412 180.242 44.0412 181.159C44.0412 182.083 43.884 182.884 43.5696 183.562C43.2552 184.237 42.8196 184.759 42.2628 185.131C41.706 185.498 41.0639 185.682 40.3366 185.682C39.776 185.682 39.3272 185.589 38.9901 185.403C38.6529 185.214 38.3935 185 38.2116 184.761C38.0298 184.519 37.8897 184.318 37.7912 184.159H37.6776V188.773H36.3366ZM37.6548 181.136C37.6548 181.795 37.7514 182.377 37.9446 182.881C38.1378 183.381 38.42 183.773 38.7912 184.057C39.1624 184.337 39.617 184.477 40.1548 184.477C40.7154 184.477 41.1832 184.33 41.5582 184.034C41.937 183.735 42.2211 183.333 42.4105 182.83C42.6037 182.322 42.7003 181.758 42.7003 181.136C42.7003 180.523 42.6056 179.97 42.4162 179.477C42.2306 178.981 41.9484 178.589 41.5696 178.301C41.1946 178.009 40.723 177.864 40.1548 177.864C39.6094 177.864 39.151 178.002 38.7798 178.278C38.4086 178.551 38.1283 178.934 37.9389 179.426C37.7495 179.915 37.6548 180.485 37.6548 181.136ZM46.0866 188.773V176.773H47.3821V178.159H47.5412C47.6397 178.008 47.776 177.814 47.9503 177.58C48.1283 177.341 48.3821 177.129 48.7116 176.943C49.045 176.754 49.4957 176.659 50.0639 176.659C50.7988 176.659 51.4465 176.843 52.0071 177.21C52.5677 177.578 53.0052 178.098 53.3196 178.773C53.634 179.447 53.7912 180.242 53.7912 181.159C53.7912 182.083 53.634 182.884 53.3196 183.562C53.0052 184.237 52.5696 184.759 52.0128 185.131C51.456 185.498 50.8139 185.682 50.0866 185.682C49.526 185.682 49.0772 185.589 48.7401 185.403C48.4029 185.214 48.1435 185 47.9616 184.761C47.7798 184.519 47.6397 184.318 47.5412 184.159H47.4276V188.773H46.0866ZM47.4048 181.136C47.4048 181.795 47.5014 182.377 47.6946 182.881C47.8878 183.381 48.17 183.773 48.5412 184.057C48.9124 184.337 49.367 184.477 49.9048 184.477C50.4654 184.477 50.9332 184.33 51.3082 184.034C51.687 183.735 51.9711 183.333 52.1605 182.83C52.3537 182.322 52.4503 181.758 52.4503 181.136C52.4503 180.523 52.3556 179.97 52.1662 179.477C51.9806 178.981 51.6984 178.589 51.3196 178.301C50.9446 178.009 50.473 177.864 49.9048 177.864C49.3594 177.864 48.901 178.002 48.5298 178.278C48.1586 178.551 47.8783 178.934 47.6889 179.426C47.4995 179.915 47.4048 180.485 47.4048 181.136ZM57.1776 173.864V185.5H55.8366V173.864H57.1776ZM59.6335 185.5V176.773H60.9744V185.5H59.6335ZM60.3153 175.318C60.054 175.318 59.8286 175.229 59.6392 175.051C59.4536 174.873 59.3608 174.659 59.3608 174.409C59.3608 174.159 59.4536 173.945 59.6392 173.767C59.8286 173.589 60.054 173.5 60.3153 173.5C60.5767 173.5 60.8002 173.589 60.9858 173.767C61.1752 173.945 61.2699 174.159 61.2699 174.409C61.2699 174.659 61.1752 174.873 60.9858 175.051C60.8002 175.229 60.5767 175.318 60.3153 175.318ZM66.9759 185.682C66.1577 185.682 65.4531 185.489 64.8622 185.102C64.2713 184.716 63.8168 184.184 63.4986 183.506C63.1804 182.828 63.0213 182.053 63.0213 181.182C63.0213 180.295 63.1842 179.513 63.5099 178.835C63.8395 178.153 64.2978 177.621 64.8849 177.239C65.4759 176.852 66.1652 176.659 66.9531 176.659C67.5668 176.659 68.1198 176.773 68.6122 177C69.1046 177.227 69.508 177.545 69.8224 177.955C70.1368 178.364 70.3319 178.841 70.4077 179.386H69.0668C68.9645 178.989 68.7372 178.636 68.3849 178.33C68.0365 178.019 67.5668 177.864 66.9759 177.864C66.4531 177.864 65.9948 178 65.6009 178.273C65.2107 178.542 64.9058 178.922 64.6861 179.415C64.4702 179.903 64.3622 180.477 64.3622 181.136C64.3622 181.811 64.4683 182.398 64.6804 182.898C64.8963 183.398 65.1993 183.786 65.5895 184.062C65.9834 184.339 66.4455 184.477 66.9759 184.477C67.3243 184.477 67.6406 184.417 67.9247 184.295C68.2088 184.174 68.4493 184 68.6463 183.773C68.8433 183.545 68.9834 183.273 69.0668 182.955H70.4077C70.3319 183.47 70.1444 183.934 69.8452 184.347C69.5497 184.756 69.1577 185.081 68.669 185.324C68.1842 185.562 67.6198 185.682 66.9759 185.682ZM74.9361 185.705C74.383 185.705 73.8812 185.6 73.4304 185.392C72.9796 185.18 72.6217 184.875 72.3565 184.477C72.0914 184.076 71.9588 183.591 71.9588 183.023C71.9588 182.523 72.0573 182.117 72.2543 181.807C72.4512 181.492 72.7145 181.246 73.044 181.068C73.3736 180.89 73.7372 180.758 74.1349 180.67C74.5365 180.58 74.9399 180.508 75.3452 180.455C75.8755 180.386 76.3054 180.335 76.6349 180.301C76.9683 180.263 77.2107 180.201 77.3622 180.114C77.5175 180.027 77.5952 179.875 77.5952 179.659V179.614C77.5952 179.053 77.4418 178.617 77.1349 178.307C76.8319 177.996 76.3717 177.841 75.7543 177.841C75.1141 177.841 74.6122 177.981 74.2486 178.261C73.8849 178.542 73.6293 178.841 73.4815 179.159L72.2088 178.705C72.4361 178.174 72.7391 177.761 73.1179 177.466C73.5005 177.167 73.9171 176.958 74.3679 176.841C74.8224 176.72 75.2694 176.659 75.7088 176.659C75.9891 176.659 76.3111 176.693 76.6747 176.761C77.0421 176.826 77.3963 176.96 77.7372 177.165C78.0819 177.369 78.3679 177.678 78.5952 178.091C78.8224 178.504 78.9361 179.057 78.9361 179.75V185.5H77.5952V184.318H77.527C77.4361 184.508 77.2846 184.71 77.0724 184.926C76.8603 185.142 76.5781 185.326 76.2259 185.477C75.8736 185.629 75.4437 185.705 74.9361 185.705ZM75.1406 184.5C75.6709 184.5 76.1179 184.396 76.4815 184.188C76.849 183.979 77.1255 183.71 77.3111 183.381C77.5005 183.051 77.5952 182.705 77.5952 182.341V181.114C77.5384 181.182 77.4134 181.244 77.2202 181.301C77.0308 181.354 76.8111 181.402 76.5611 181.443C76.3149 181.481 76.0743 181.515 75.8395 181.545C75.6084 181.572 75.4209 181.595 75.277 181.614C74.9285 181.659 74.6027 181.733 74.2997 181.835C74.0005 181.934 73.758 182.083 73.5724 182.284C73.3906 182.481 73.2997 182.75 73.2997 183.091C73.2997 183.557 73.4721 183.909 73.8168 184.148C74.1652 184.383 74.6065 184.5 75.1406 184.5ZM85.179 176.773V177.909H80.6562V176.773H85.179ZM81.9744 174.682H83.3153V183C83.3153 183.379 83.3703 183.663 83.4801 183.852C83.5938 184.038 83.7377 184.163 83.9119 184.227C84.09 184.288 84.2775 184.318 84.4744 184.318C84.6222 184.318 84.7434 184.311 84.8381 184.295C84.9328 184.277 85.0085 184.261 85.0653 184.25L85.3381 185.455C85.2472 185.489 85.1203 185.523 84.9574 185.557C84.7945 185.595 84.5881 185.614 84.3381 185.614C83.9593 185.614 83.5881 185.532 83.2244 185.369C82.8646 185.206 82.5653 184.958 82.3267 184.625C82.0919 184.292 81.9744 183.871 81.9744 183.364V174.682ZM87.196 185.5V176.773H88.5369V185.5H87.196ZM87.8778 175.318C87.6165 175.318 87.3911 175.229 87.2017 175.051C87.0161 174.873 86.9233 174.659 86.9233 174.409C86.9233 174.159 87.0161 173.945 87.2017 173.767C87.3911 173.589 87.6165 173.5 87.8778 173.5C88.1392 173.5 88.3627 173.589 88.5483 173.767C88.7377 173.945 88.8324 174.159 88.8324 174.409C88.8324 174.659 88.7377 174.873 88.5483 175.051C88.3627 175.229 88.1392 175.318 87.8778 175.318ZM94.5384 185.682C93.7505 185.682 93.0592 185.494 92.4645 185.119C91.8736 184.744 91.4115 184.22 91.0781 183.545C90.7486 182.871 90.5838 182.083 90.5838 181.182C90.5838 180.273 90.7486 179.479 91.0781 178.801C91.4115 178.123 91.8736 177.597 92.4645 177.222C93.0592 176.847 93.7505 176.659 94.5384 176.659C95.3262 176.659 96.0156 176.847 96.6065 177.222C97.2012 177.597 97.6634 178.123 97.9929 178.801C98.3262 179.479 98.4929 180.273 98.4929 181.182C98.4929 182.083 98.3262 182.871 97.9929 183.545C97.6634 184.22 97.2012 184.744 96.6065 185.119C96.0156 185.494 95.3262 185.682 94.5384 185.682ZM94.5384 184.477C95.1368 184.477 95.6293 184.324 96.0156 184.017C96.402 183.71 96.688 183.307 96.8736 182.807C97.0592 182.307 97.152 181.765 97.152 181.182C97.152 180.598 97.0592 180.055 96.8736 179.551C96.688 179.047 96.402 178.64 96.0156 178.33C95.6293 178.019 95.1368 177.864 94.5384 177.864C93.9399 177.864 93.4474 178.019 93.0611 178.33C92.6747 178.64 92.3887 179.047 92.2031 179.551C92.0175 180.055 91.9247 180.598 91.9247 181.182C91.9247 181.765 92.0175 182.307 92.2031 182.807C92.3887 183.307 92.6747 183.71 93.0611 184.017C93.4474 184.324 93.9399 184.477 94.5384 184.477ZM101.881 180.25V185.5H100.54V176.773H101.835V178.136H101.949C102.153 177.693 102.464 177.337 102.881 177.068C103.297 176.795 103.835 176.659 104.494 176.659C105.085 176.659 105.602 176.78 106.045 177.023C106.489 177.261 106.833 177.625 107.08 178.114C107.326 178.598 107.449 179.212 107.449 179.955V185.5H106.108V180.045C106.108 179.36 105.93 178.826 105.574 178.443C105.218 178.057 104.729 177.864 104.108 177.864C103.68 177.864 103.297 177.956 102.96 178.142C102.627 178.328 102.364 178.598 102.17 178.955C101.977 179.311 101.881 179.742 101.881 180.25ZM116.081 178.727L114.876 179.068C114.801 178.867 114.689 178.672 114.541 178.483C114.397 178.29 114.2 178.131 113.95 178.006C113.7 177.881 113.38 177.818 112.99 177.818C112.456 177.818 112.011 177.941 111.655 178.188C111.303 178.43 111.126 178.739 111.126 179.114C111.126 179.447 111.248 179.71 111.49 179.903C111.732 180.097 112.111 180.258 112.626 180.386L113.922 180.705C114.702 180.894 115.284 181.184 115.666 181.574C116.049 181.96 116.24 182.458 116.24 183.068C116.24 183.568 116.096 184.015 115.808 184.409C115.524 184.803 115.126 185.114 114.615 185.341C114.104 185.568 113.509 185.682 112.831 185.682C111.941 185.682 111.204 185.489 110.621 185.102C110.037 184.716 109.668 184.152 109.513 183.409L110.786 183.091C110.907 183.561 111.136 183.913 111.473 184.148C111.814 184.383 112.259 184.5 112.808 184.5C113.433 184.5 113.929 184.367 114.297 184.102C114.668 183.833 114.854 183.511 114.854 183.136C114.854 182.833 114.748 182.58 114.536 182.375C114.323 182.167 113.998 182.011 113.558 181.909L112.104 181.568C111.304 181.379 110.717 181.085 110.342 180.688C109.971 180.286 109.786 179.784 109.786 179.182C109.786 178.689 109.924 178.254 110.2 177.875C110.481 177.496 110.861 177.199 111.342 176.983C111.827 176.767 112.376 176.659 112.99 176.659C113.854 176.659 114.532 176.848 115.024 177.227C115.52 177.606 115.873 178.106 116.081 178.727ZM126.645 176.773V177.909H121.94V176.773H126.645ZM123.349 185.5V175.568C123.349 175.068 123.467 174.652 123.702 174.318C123.937 173.985 124.241 173.735 124.616 173.568C124.991 173.402 125.387 173.318 125.804 173.318C126.134 173.318 126.402 173.345 126.611 173.398C126.819 173.451 126.974 173.5 127.077 173.545L126.69 174.705C126.622 174.682 126.527 174.653 126.406 174.619C126.289 174.585 126.134 174.568 125.94 174.568C125.497 174.568 125.177 174.68 124.98 174.903C124.787 175.127 124.69 175.455 124.69 175.886V185.5H123.349ZM131.71 185.682C130.922 185.682 130.231 185.494 129.636 185.119C129.045 184.744 128.583 184.22 128.25 183.545C127.92 182.871 127.756 182.083 127.756 181.182C127.756 180.273 127.92 179.479 128.25 178.801C128.583 178.123 129.045 177.597 129.636 177.222C130.231 176.847 130.922 176.659 131.71 176.659C132.498 176.659 133.188 176.847 133.778 177.222C134.373 177.597 134.835 178.123 135.165 178.801C135.498 179.479 135.665 180.273 135.665 181.182C135.665 182.083 135.498 182.871 135.165 183.545C134.835 184.22 134.373 184.744 133.778 185.119C133.188 185.494 132.498 185.682 131.71 185.682ZM131.71 184.477C132.309 184.477 132.801 184.324 133.188 184.017C133.574 183.71 133.86 183.307 134.045 182.807C134.231 182.307 134.324 181.765 134.324 181.182C134.324 180.598 134.231 180.055 134.045 179.551C133.86 179.047 133.574 178.64 133.188 178.33C132.801 178.019 132.309 177.864 131.71 177.864C131.112 177.864 130.619 178.019 130.233 178.33C129.847 178.64 129.561 179.047 129.375 179.551C129.189 180.055 129.097 180.598 129.097 181.182C129.097 181.765 129.189 182.307 129.375 182.807C129.561 183.307 129.847 183.71 130.233 184.017C130.619 184.324 131.112 184.477 131.71 184.477ZM143.212 181.932V176.773H144.553V185.5H143.212V184.023H143.121C142.916 184.466 142.598 184.843 142.166 185.153C141.734 185.46 141.189 185.614 140.53 185.614C139.984 185.614 139.5 185.494 139.075 185.256C138.651 185.013 138.318 184.65 138.075 184.165C137.833 183.676 137.712 183.061 137.712 182.318V176.773H139.053V182.227C139.053 182.864 139.231 183.371 139.587 183.75C139.946 184.129 140.405 184.318 140.962 184.318C141.295 184.318 141.634 184.233 141.979 184.062C142.327 183.892 142.619 183.631 142.854 183.278C143.092 182.926 143.212 182.477 143.212 181.932ZM148.349 180.25V185.5H147.009V176.773H148.304V178.136H148.418C148.622 177.693 148.933 177.337 149.349 177.068C149.766 176.795 150.304 176.659 150.963 176.659C151.554 176.659 152.071 176.78 152.514 177.023C152.957 177.261 153.302 177.625 153.548 178.114C153.795 178.598 153.918 179.212 153.918 179.955V185.5H152.577V180.045C152.577 179.36 152.399 178.826 152.043 178.443C151.687 178.057 151.198 177.864 150.577 177.864C150.149 177.864 149.766 177.956 149.429 178.142C149.096 178.328 148.832 178.598 148.639 178.955C148.446 179.311 148.349 179.742 148.349 180.25ZM159.663 185.682C158.936 185.682 158.294 185.498 157.737 185.131C157.18 184.759 156.745 184.237 156.43 183.562C156.116 182.884 155.959 182.083 155.959 181.159C155.959 180.242 156.116 179.447 156.43 178.773C156.745 178.098 157.182 177.578 157.743 177.21C158.304 176.843 158.951 176.659 159.686 176.659C160.254 176.659 160.703 176.754 161.033 176.943C161.366 177.129 161.62 177.341 161.794 177.58C161.972 177.814 162.11 178.008 162.209 178.159H162.322V173.864H163.663V185.5H162.368V184.159H162.209C162.11 184.318 161.97 184.519 161.788 184.761C161.607 185 161.347 185.214 161.01 185.403C160.673 185.589 160.224 185.682 159.663 185.682ZM159.845 184.477C160.383 184.477 160.838 184.337 161.209 184.057C161.58 183.773 161.862 183.381 162.055 182.881C162.249 182.377 162.345 181.795 162.345 181.136C162.345 180.485 162.25 179.915 162.061 179.426C161.872 178.934 161.591 178.551 161.22 178.278C160.849 178.002 160.391 177.864 159.845 177.864C159.277 177.864 158.804 178.009 158.425 178.301C158.05 178.589 157.768 178.981 157.578 179.477C157.393 179.97 157.3 180.523 157.3 181.136C157.3 181.758 157.394 182.322 157.584 182.83C157.777 183.333 158.061 183.735 158.436 184.034C158.815 184.33 159.285 184.477 159.845 184.477Z" fill="white"/>
<defs>
<linearGradient id="paint0_linear_100_2989" x1="91.5928" y1="0.5" x2="91.5928" y2="127.975" gradientUnits="userSpaceOnUse">
<stop stop-color="#2E4C55"/>
<stop offset="1" stop-color="#303355"/>
</linearGradient>
<radialGradient id="paint1_radial_100_2989" cx="0" cy="0" r="1" gradientUnits="userSpaceOnUse" gradientTransform="translate(160.087 0.499995) rotate(121.826) scale(93.7703 104.22)">
<stop stop-color="#96F2FF"/>
<stop offset="0.619146" stop-color="#96F2FF" stop-opacity="0"/>
</radialGradient>
<linearGradient id="paint2_linear_100_2989" x1="91.5928" y1="0.5" x2="91.5928" y2="127.975" gradientUnits="userSpaceOnUse">
<stop stop-color="#96F2FF"/>
<stop offset="1" stop-color="#96F2FF" stop-opacity="0"/>
</linearGradient>
</defs>
</svg>
