<svg width="156" height="152" viewBox="0 0 156 152" fill="none" xmlns="http://www.w3.org/2000/svg">
<rect x="18.0986" y="0.5" width="136.988" height="127.475" rx="6" fill="url(#paint0_linear_100_2990)"/>
<rect x="18.0986" y="0.5" width="136.988" height="127.475" rx="6" fill="url(#paint1_radial_100_2990)" fill-opacity="0.4"/>
<rect x="18.8121" y="1.21348" width="135.561" height="126.048" rx="5.28652" stroke="url(#paint2_linear_100_2990)" stroke-opacity="0.5" stroke-width="1.42696"/>
<rect x="0.912109" y="24.9274" width="131.28" height="125.573" rx="2.39323" fill="#132330" stroke="#96F2FF" stroke-width="1.19661" stroke-dasharray="7.18 7.18"/>
<path opacity="0.2" d="M59.9246 101.185C59.9246 103.067 59.3667 104.906 58.3213 106.47C57.276 108.035 55.7903 109.254 54.052 109.974C52.3137 110.694 50.401 110.883 48.5556 110.516C46.7103 110.149 45.0152 109.243 43.6848 107.912C42.3543 106.582 41.4483 104.887 41.0812 103.041C40.7142 101.196 40.9026 99.2831 41.6226 97.5448C42.3426 95.8065 43.5619 94.3208 45.1263 93.2755C46.6908 92.2302 48.53 91.6722 50.4115 91.6722C52.9345 91.6722 55.3542 92.6745 57.1383 94.4586C58.9223 96.2426 59.9246 98.6623 59.9246 101.185ZM80.8534 91.6722C78.9718 91.6722 77.1326 92.2302 75.5682 93.2755C74.0038 94.3208 72.7844 95.8065 72.0644 97.5448C71.3444 99.2831 71.156 101.196 71.5231 103.041C71.8901 104.887 72.7962 106.582 74.1266 107.912C75.457 109.243 77.1521 110.149 78.9974 110.516C80.8428 110.883 82.7556 110.694 84.4939 109.974C86.2321 109.254 87.7179 108.035 88.7632 106.47C89.8085 104.906 90.3664 103.067 90.3664 101.185C90.3664 98.6623 89.3642 96.2426 87.5801 94.4586C85.7961 92.6745 83.3764 91.6722 80.8534 91.6722Z" fill="#374A5B"/>
<path d="M91.6034 97.3492C91.4445 96.9058 91.2579 96.4729 91.0445 96.053L81.1533 73.5498C81.0597 73.3331 80.9257 73.1362 80.7585 72.9695C80.0518 72.2627 79.2127 71.7019 78.2893 71.3193C77.3658 70.9368 76.376 70.7399 75.3765 70.7399C74.3769 70.7399 73.3871 70.9368 72.4637 71.3193C71.5402 71.7019 70.7012 72.2627 69.9944 72.9695C69.6389 73.3255 69.4388 73.8078 69.4379 74.3109V80.2565H61.8275V74.3109C61.8277 74.0609 61.7786 73.8134 61.6831 73.5825C61.5876 73.3515 61.4476 73.1416 61.271 72.9648C60.5642 72.2579 59.7252 71.6972 58.8017 71.3146C57.8783 70.932 56.8885 70.7351 55.8889 70.7351C54.8894 70.7351 53.8996 70.932 52.9761 71.3146C52.0527 71.6972 51.2136 72.2579 50.5069 72.9648C50.3397 73.1314 50.2057 73.3283 50.1121 73.5451L40.2209 96.0482C40.0075 96.4681 39.8209 96.901 39.662 97.3444C39.1019 98.9115 38.8913 100.582 39.0448 102.239C39.1983 103.896 39.7122 105.5 40.5506 106.937C41.3891 108.375 42.5316 109.612 43.8984 110.561C45.2651 111.511 46.8229 112.15 48.4627 112.434C50.1024 112.719 51.7845 112.641 53.391 112.206C54.9976 111.772 56.4897 110.992 57.7629 109.92C59.0362 108.848 60.0597 107.511 60.7618 106.002C61.4639 104.494 61.8276 102.85 61.8275 101.185V84.0618H69.4379V101.185C69.4371 102.85 69.8002 104.494 70.5019 106.003C71.2035 107.513 72.2267 108.85 73.4997 109.923C74.7728 110.995 76.2649 111.776 77.8715 112.21C79.4781 112.645 81.1604 112.723 82.8004 112.44C84.4404 112.156 85.9985 111.517 87.3656 110.567C88.7326 109.618 89.8755 108.381 90.7142 106.943C91.5528 105.506 92.067 103.902 92.2206 102.245C92.3742 100.587 92.1635 98.9165 91.6034 97.3492ZM53.4346 75.4406C54.0689 74.9064 54.8603 74.5942 55.6885 74.5512C56.5166 74.5083 57.3361 74.7371 58.0222 75.2027V92.6854C56.5368 91.3515 54.7269 90.4315 52.7738 90.0174C50.8208 89.6033 48.7932 89.7098 46.8943 90.3261L53.4346 75.4406ZM50.4118 108.796C48.9066 108.796 47.4352 108.349 46.1836 107.513C44.9321 106.677 43.9567 105.488 43.3806 104.098C42.8046 102.707 42.6539 101.177 42.9476 99.7006C43.2412 98.2243 43.966 96.8682 45.0304 95.8039C46.0947 94.7396 47.4508 94.0147 48.9271 93.7211C50.4033 93.4274 51.9336 93.5781 53.3242 94.1542C54.7148 94.7302 55.9034 95.7056 56.7396 96.9572C57.5759 98.2087 58.0222 99.6801 58.0222 101.185C58.0222 103.204 57.2204 105.139 55.7932 106.567C54.366 107.994 52.4302 108.796 50.4118 108.796ZM73.2432 75.2003C73.9293 74.7347 74.7488 74.5059 75.5769 74.5489C76.4051 74.5918 77.1965 74.9041 77.8308 75.4382L84.3711 90.3214C82.472 89.7054 80.4443 89.5993 78.4912 90.0138C76.5382 90.4283 74.7284 91.3487 73.2432 92.683V75.2003ZM80.8536 108.796C79.3484 108.796 77.877 108.349 76.6255 107.513C75.3739 106.677 74.3985 105.488 73.8225 104.098C73.2465 102.707 73.0957 101.177 73.3894 99.7006C73.683 98.2243 74.4079 96.8682 75.4722 95.8039C76.5366 94.7396 77.8926 94.0147 79.3689 93.7211C80.8452 93.4274 82.3754 93.5781 83.766 94.1542C85.1566 94.7302 86.3452 95.7056 87.1815 96.9572C88.0177 98.2087 88.4641 99.6801 88.4641 101.185C88.4641 103.204 87.6623 105.139 86.235 106.567C84.8078 107.994 82.872 108.796 80.8536 108.796Z" fill="#374A5B"/>
<defs>
<linearGradient id="paint0_linear_100_2990" x1="86.5928" y1="0.5" x2="86.5928" y2="127.975" gradientUnits="userSpaceOnUse">
<stop stop-color="#2E4C55"/>
<stop offset="1" stop-color="#303355"/>
</linearGradient>
<radialGradient id="paint1_radial_100_2990" cx="0" cy="0" r="1" gradientUnits="userSpaceOnUse" gradientTransform="translate(155.087 0.499995) rotate(121.826) scale(93.7703 104.22)">
<stop stop-color="#96F2FF"/>
<stop offset="0.619146" stop-color="#96F2FF" stop-opacity="0"/>
</radialGradient>
<linearGradient id="paint2_linear_100_2990" x1="86.5928" y1="0.5" x2="86.5928" y2="127.975" gradientUnits="userSpaceOnUse">
<stop stop-color="#96F2FF"/>
<stop offset="1" stop-color="#96F2FF" stop-opacity="0"/>
</linearGradient>
</defs>
</svg>
