<svg width="48" height="48" viewBox="0 0 48 48" fill="none" xmlns="http://www.w3.org/2000/svg">
<rect width="48" height="48" rx="7.5" fill="url(#paint0_linear_48_4503)"/>
<rect width="48" height="48" rx="7.5" fill="url(#paint1_radial_48_4503)" fill-opacity="0.4"/>
<rect x="0.375" y="0.375" width="47.25" height="47.25" rx="7.125" stroke="url(#paint2_linear_48_4503)" stroke-opacity="0.5" stroke-width="0.75"/>
<path d="M34.6033 19.3484L31.1561 22.7946L33.8004 25.4379C33.875 25.5125 33.9342 25.6011 33.9746 25.6985C34.0149 25.796 34.0357 25.9005 34.0357 26.006C34.0357 26.1114 34.0149 26.2159 33.9746 26.3134C33.9342 26.4108 33.875 26.4994 33.8004 26.574C33.7259 26.6486 33.6373 26.7077 33.5398 26.7481C33.4424 26.7885 33.3379 26.8092 33.2324 26.8092C33.1269 26.8092 33.0225 26.7885 32.925 26.7481C32.8276 26.7077 32.739 26.6486 32.6644 26.574L32.0282 25.9367L26.7094 31.2555C26.3367 31.6283 25.8941 31.924 25.4071 32.1257C24.9201 32.3274 24.3981 32.4313 23.8709 32.4313C23.3437 32.4313 22.8217 32.3274 22.3347 32.1257C21.8476 31.924 21.4051 31.6283 21.0324 31.2555L19.4588 29.6759L14.5324 34.6023C14.4578 34.6769 14.3693 34.7361 14.2718 34.7764C14.1744 34.8168 14.0699 34.8376 13.9644 34.8376C13.8589 34.8376 13.7545 34.8168 13.657 34.7764C13.5596 34.7361 13.471 34.6769 13.3964 34.6023C13.3218 34.5277 13.2626 34.4392 13.2223 34.3417C13.1819 34.2442 13.1611 34.1398 13.1611 34.0343C13.1611 33.9288 13.1819 33.8244 13.2223 33.7269C13.2626 33.6294 13.3218 33.5409 13.3964 33.4663L18.3228 28.5399L16.7462 26.9633C16.3735 26.5906 16.0778 26.1481 15.876 25.661C15.6743 25.174 15.5704 24.652 15.5704 24.1248C15.5704 23.5976 15.6743 23.0756 15.876 22.5886C16.0778 22.1016 16.3735 21.659 16.7462 21.2863L22.065 15.9675L21.4278 15.3313C21.2771 15.1806 21.1925 14.9763 21.1925 14.7633C21.1925 14.5502 21.2771 14.3459 21.4278 14.1953C21.5784 14.0446 21.7827 13.96 21.9958 13.96C22.2088 13.96 22.4131 14.0446 22.5638 14.1953L25.2041 16.8426L28.6503 13.3954C28.8009 13.2448 29.0052 13.1602 29.2183 13.1602C29.4313 13.1602 29.6356 13.2448 29.7863 13.3954C29.9369 13.5461 30.0215 13.7504 30.0215 13.9634C30.0215 14.1765 29.9369 14.3808 29.7863 14.5314L26.3391 17.9776L30.0211 21.6596L33.4673 18.2124C33.6179 18.0618 33.8222 17.9772 34.0353 17.9772C34.2483 17.9772 34.4526 18.0618 34.6033 18.2124C34.7539 18.3631 34.8386 18.5674 34.8386 18.7804C34.8386 18.9935 34.7539 19.1978 34.6033 19.3484Z" fill="#96F2FF"/>
<defs>
<linearGradient id="paint0_linear_48_4503" x1="24" y1="0" x2="24" y2="48" gradientUnits="userSpaceOnUse">
<stop stop-color="#2E4C55"/>
<stop offset="1" stop-color="#303355"/>
</linearGradient>
<radialGradient id="paint1_radial_48_4503" cx="0" cy="0" r="1" gradientUnits="userSpaceOnUse" gradientTransform="translate(48 -1.78814e-06) rotate(120.009) scale(34.6442 37.2185)">
<stop stop-color="#96F2FF"/>
<stop offset="0.619146" stop-color="#96F2FF" stop-opacity="0"/>
</radialGradient>
<linearGradient id="paint2_linear_48_4503" x1="24" y1="0" x2="24" y2="48" gradientUnits="userSpaceOnUse">
<stop stop-color="#96F2FF"/>
<stop offset="1" stop-color="#96F2FF" stop-opacity="0"/>
</linearGradient>
</defs>
</svg>
