<svg width="20" height="14" viewBox="0 0 20 14" fill="none" xmlns="http://www.w3.org/2000/svg">
<path d="M19.1767 1.88786L7.48781 13.675C7.386 13.778 7.26503 13.8597 7.13183 13.9155C6.99863 13.9713 6.85583 14 6.7116 14C6.56737 14 6.42456 13.9713 6.29136 13.9155C6.15816 13.8597 6.03719 13.778 5.93539 13.675L0.821518 8.51812C0.719584 8.41532 0.638726 8.29329 0.58356 8.15899C0.528394 8.02469 0.5 7.88074 0.5 7.73538C0.5 7.59001 0.528394 7.44606 0.58356 7.31176C0.638726 7.17746 0.719584 7.05543 0.821518 6.95264C0.923451 6.84985 1.04446 6.76831 1.17765 6.71268C1.31083 6.65705 1.45357 6.62842 1.59773 6.62842C1.74189 6.62842 1.88463 6.65705 2.01781 6.71268C2.151 6.76831 2.27201 6.84985 2.37394 6.95264L6.71251 11.3277L17.6261 0.324221C17.8319 0.116626 18.1111 0 18.4023 0C18.6934 0 18.9726 0.116626 19.1785 0.324221C19.3843 0.531816 19.5 0.813376 19.5 1.10696C19.5 1.40054 19.3843 1.6821 19.1785 1.8897L19.1767 1.88786Z" fill="white"/>
</svg>
