<svg width="48" height="48" viewBox="0 0 48 48" fill="none" xmlns="http://www.w3.org/2000/svg">
<rect width="48" height="48" rx="7.5" fill="url(#paint0_linear_48_6367)"/>
<rect width="48" height="48" rx="7.5" fill="url(#paint1_radial_48_6367)" fill-opacity="0.4"/>
<rect x="0.375" y="0.375" width="47.25" height="47.25" rx="7.125" stroke="url(#paint2_linear_48_6367)" stroke-opacity="0.5" stroke-width="0.75"/>
<path d="M35.5352 22.3778L25.6222 12.4648C25.4748 12.3175 25.2999 12.2006 25.1073 12.1208C24.9148 12.0411 24.7084 12 24.5 12C24.2916 12 24.0852 12.0411 23.8927 12.1208C23.7001 12.2006 23.5252 12.3175 23.3778 12.4648L13.4648 22.3778C13.3175 22.5252 13.2006 22.7001 13.1208 22.8927C13.0411 23.0852 13 23.2916 13 23.5C13 23.7084 13.0411 23.9148 13.1208 24.1073C13.2006 24.2999 13.3175 24.4748 13.4648 24.6222L23.3778 34.5352C23.5252 34.6825 23.7001 34.7994 23.8927 34.8792C24.0852 34.9589 24.2916 35 24.5 35C24.7084 35 24.9148 34.9589 25.1073 34.8792C25.2999 34.7994 25.4748 34.6825 25.6222 34.5352L35.5352 24.6222C35.6825 24.4748 35.7994 24.2999 35.8792 24.1073C35.9589 23.9148 36 23.7084 36 23.5C36 23.2916 35.9589 23.0852 35.8792 22.8927C35.7994 22.7001 35.6825 22.5252 35.5352 22.3778ZM28.8757 23.2758L26.5757 25.5757C26.4319 25.7196 26.2368 25.8004 26.0333 25.8004C25.8299 25.8004 25.6348 25.7196 25.4909 25.5757C25.3471 25.4319 25.2662 25.2368 25.2662 25.0333C25.2662 24.8299 25.3471 24.6348 25.4909 24.4909L26.4828 23.5H22.9667C22.56 23.5 22.17 23.6615 21.8825 23.9491C21.5949 24.2367 21.4333 24.6267 21.4333 25.0333V25.8C21.4333 26.0033 21.3526 26.1983 21.2088 26.3421C21.065 26.4859 20.87 26.5667 20.6667 26.5667C20.4634 26.5667 20.2684 26.4859 20.1246 26.3421C19.9808 26.1983 19.9 26.0033 19.9 25.8V25.0333C19.9 24.22 20.2231 23.44 20.7982 22.8649C21.3733 22.2898 22.1533 21.9667 22.9667 21.9667H26.4828L25.4909 20.9758C25.3471 20.8319 25.2662 20.6368 25.2662 20.4333C25.2662 20.2299 25.3471 20.0348 25.4909 19.8909C25.6348 19.7471 25.8299 19.6663 26.0333 19.6663C26.2368 19.6663 26.4319 19.7471 26.5757 19.8909L28.8757 22.1909C28.947 22.2621 29.0036 22.3467 29.0421 22.4398C29.0807 22.5328 29.1006 22.6326 29.1006 22.7333C29.1006 22.8341 29.0807 22.9339 29.0421 23.0269C29.0036 23.12 28.947 23.2045 28.8757 23.2758Z" fill="#96F2FF"/>
<defs>
<linearGradient id="paint0_linear_48_6367" x1="24" y1="0" x2="24" y2="48" gradientUnits="userSpaceOnUse">
<stop stop-color="#2E4C55"/>
<stop offset="1" stop-color="#303355"/>
</linearGradient>
<radialGradient id="paint1_radial_48_6367" cx="0" cy="0" r="1" gradientUnits="userSpaceOnUse" gradientTransform="translate(48 -1.78814e-06) rotate(120.009) scale(34.6442 37.2185)">
<stop stop-color="#96F2FF"/>
<stop offset="0.619146" stop-color="#96F2FF" stop-opacity="0"/>
</radialGradient>
<linearGradient id="paint2_linear_48_6367" x1="24" y1="0" x2="24" y2="48" gradientUnits="userSpaceOnUse">
<stop stop-color="#96F2FF"/>
<stop offset="1" stop-color="#96F2FF" stop-opacity="0"/>
</linearGradient>
</defs>
</svg>
