<svg width="24" height="24" viewBox="0 0 24 24" fill="none" xmlns="http://www.w3.org/2000/svg">
<rect width="24" height="24" rx="6" fill="url(#paint0_linear_157_648)"/>
<path d="M12 5.5C10.7144 5.5 9.45772 5.88122 8.3888 6.59545C7.31988 7.30968 6.48676 8.32484 5.99479 9.51256C5.50282 10.7003 5.37409 12.0072 5.6249 13.2681C5.8757 14.529 6.49477 15.6872 7.40381 16.5962C8.31285 17.5052 9.47104 18.1243 10.7319 18.3751C11.9928 18.6259 13.2997 18.4972 14.4874 18.0052C15.6752 17.5132 16.6903 16.6801 17.4046 15.6112C18.1188 14.5423 18.5 13.2856 18.5 12C18.4982 10.2767 17.8128 8.62441 16.5942 7.40582C15.3756 6.18722 13.7234 5.50182 12 5.5ZM12 17.5C10.9122 17.5 9.84884 17.1774 8.94437 16.5731C8.0399 15.9687 7.33495 15.1098 6.91867 14.1048C6.50238 13.0998 6.39347 11.9939 6.60568 10.927C6.8179 9.86011 7.34173 8.8801 8.11092 8.11091C8.8801 7.34172 9.86011 6.8179 10.927 6.60568C11.9939 6.39346 13.0998 6.50238 14.1048 6.91866C15.1098 7.33494 15.9687 8.03989 16.5731 8.94436C17.1774 9.84883 17.5 10.9122 17.5 12C17.4983 13.4582 16.9184 14.8562 15.8873 15.8873C14.8562 16.9184 13.4582 17.4983 12 17.5ZM11.5 12.5V9C11.5 8.86739 11.5527 8.74021 11.6464 8.64645C11.7402 8.55268 11.8674 8.5 12 8.5C12.1326 8.5 12.2598 8.55268 12.3536 8.64645C12.4473 8.74021 12.5 8.86739 12.5 9V12.5C12.5 12.6326 12.4473 12.7598 12.3536 12.8536C12.2598 12.9473 12.1326 13 12 13C11.8674 13 11.7402 12.9473 11.6464 12.8536C11.5527 12.7598 11.5 12.6326 11.5 12.5ZM12.75 14.75C12.75 14.8983 12.706 15.0433 12.6236 15.1667C12.5412 15.29 12.4241 15.3861 12.287 15.4429C12.15 15.4997 11.9992 15.5145 11.8537 15.4856C11.7082 15.4566 11.5746 15.3852 11.4697 15.2803C11.3648 15.1754 11.2934 15.0418 11.2644 14.8963C11.2355 14.7508 11.2503 14.6 11.3071 14.463C11.3639 14.3259 11.46 14.2088 11.5833 14.1264C11.7067 14.044 11.8517 14 12 14C12.1989 14 12.3897 14.079 12.5303 14.2197C12.671 14.3603 12.75 14.5511 12.75 14.75Z" fill="white"/>
<defs>
<linearGradient id="paint0_linear_157_648" x1="12" y1="0" x2="12" y2="24" gradientUnits="userSpaceOnUse">
<stop stop-color="#FD3F3F"/>
<stop offset="1" stop-color="#2B2F56"/>
</linearGradient>
</defs>
</svg>
