<svg width="18" height="18" viewBox="0 0 18 18" fill="none" xmlns="http://www.w3.org/2000/svg">
<path d="M16.1479 15.3519L12.6273 11.8321C13.6477 10.6071 14.1566 9.03577 14.048 7.44512C13.9394 5.85447 13.2217 4.36692 12.0443 3.29193C10.8668 2.21693 9.32029 1.63725 7.72635 1.67348C6.13241 1.7097 4.6138 2.35904 3.48642 3.48642C2.35904 4.6138 1.7097 6.13241 1.67348 7.72635C1.63725 9.32029 2.21693 10.8668 3.29193 12.0443C4.36692 13.2217 5.85447 13.9394 7.44512 14.048C9.03577 14.1566 10.6071 13.6477 11.8321 12.6273L15.3519 16.1479C15.4042 16.2001 15.4663 16.2416 15.5345 16.2699C15.6028 16.2982 15.676 16.3127 15.7499 16.3127C15.8238 16.3127 15.897 16.2982 15.9653 16.2699C16.0336 16.2416 16.0956 16.2001 16.1479 16.1479C16.2001 16.0956 16.2416 16.0336 16.2699 15.9653C16.2982 15.897 16.3127 15.8238 16.3127 15.7499C16.3127 15.676 16.2982 15.6028 16.2699 15.5345C16.2416 15.4663 16.2001 15.4042 16.1479 15.3519ZM2.81242 7.87492C2.81242 6.87365 3.10933 5.89487 3.6656 5.06234C4.22188 4.22982 5.01253 3.58094 5.93758 3.19778C6.86263 2.81461 7.88053 2.71435 8.86256 2.90969C9.84459 3.10503 10.7466 3.58718 11.4546 4.29519C12.1626 5.00319 12.6448 5.90524 12.8401 6.88727C13.0355 7.8693 12.9352 8.8872 12.5521 9.81225C12.1689 10.7373 11.52 11.528 10.6875 12.0842C9.85497 12.6405 8.87618 12.9374 7.87492 12.9374C6.53271 12.9359 5.24591 12.4021 4.29683 11.453C3.34775 10.5039 2.81391 9.21712 2.81242 7.87492Z" fill="#8B92A5"/>
</svg>
