<svg width="80" height="80" viewBox="0 0 80 80" fill="none" xmlns="http://www.w3.org/2000/svg">
<ellipse cx="39.9999" cy="40" rx="40" ry="40" fill="white"/>
<path d="M53.3383 39.9984C53.3392 40.3466 53.2468 40.6891 53.0703 40.9926C52.8937 41.2961 52.6389 41.5503 52.3307 41.7303L33.2292 53.0298C32.9071 53.2205 32.5383 53.3246 32.1607 53.3314C31.7832 53.3381 31.4106 53.2473 31.0815 53.0683C30.7555 52.892 30.4839 52.635 30.2947 52.3236C30.1055 52.0122 30.0055 51.6577 30.0049 51.2965V28.7002C30.0055 28.339 30.1055 27.9845 30.2947 27.6732C30.4839 27.3618 30.7555 27.1047 31.0815 26.9285C31.4106 26.7495 31.7832 26.6586 32.1607 26.6654C32.5383 26.6722 32.9071 26.7763 33.2292 26.9669L52.3307 38.2664C52.6389 38.4465 52.8937 38.7006 53.0703 39.0041C53.2468 39.3076 53.3392 39.6501 53.3383 39.9984Z" fill="#132330"/>
</svg>
