<svg width="14" height="14" viewBox="0 0 14 14" fill="none" xmlns="http://www.w3.org/2000/svg">
<path d="M7.65625 9.84375C7.65625 9.97354 7.61776 10.1004 7.54565 10.2083C7.47354 10.3163 7.37105 10.4004 7.25114 10.45C7.13122 10.4997 6.99927 10.5127 6.87197 10.4874C6.74467 10.4621 6.62774 10.3996 6.53596 10.3078C6.44419 10.216 6.38168 10.0991 6.35636 9.97178C6.33104 9.84448 6.34404 9.71253 6.39371 9.59261C6.44338 9.4727 6.52749 9.37021 6.63541 9.2981C6.74333 9.22599 6.87021 9.1875 7 9.1875C7.17405 9.1875 7.34097 9.25664 7.46404 9.37971C7.58711 9.50278 7.65625 9.6697 7.65625 9.84375ZM7 3.9375C5.7936 3.9375 4.8125 4.8207 4.8125 5.90625V6.125C4.8125 6.24103 4.8586 6.35231 4.94064 6.43436C5.02269 6.51641 5.13397 6.5625 5.25 6.5625C5.36603 6.5625 5.47731 6.51641 5.55936 6.43436C5.64141 6.35231 5.6875 6.24103 5.6875 6.125V5.90625C5.6875 5.30469 6.27649 4.8125 7 4.8125C7.72352 4.8125 8.3125 5.30469 8.3125 5.90625C8.3125 6.50781 7.72352 7 7 7C6.88397 7 6.77269 7.04609 6.69064 7.12814C6.6086 7.21019 6.5625 7.32147 6.5625 7.4375V7.875C6.5625 7.99103 6.6086 8.10231 6.69064 8.18436C6.77269 8.26641 6.88397 8.3125 7 8.3125C7.11603 8.3125 7.22731 8.26641 7.30936 8.18436C7.39141 8.10231 7.4375 7.99103 7.4375 7.875V7.83562C8.435 7.65242 9.1875 6.85672 9.1875 5.90625C9.1875 4.8207 8.20641 3.9375 7 3.9375ZM12.6875 7C12.6875 8.12488 12.3539 9.2245 11.729 10.1598C11.104 11.0951 10.2158 11.8241 9.17651 12.2546C8.13726 12.685 6.99369 12.7977 5.89043 12.5782C4.78716 12.3588 3.77374 11.8171 2.97833 11.0217C2.18292 10.2263 1.64124 9.21284 1.42179 8.10958C1.20233 7.00631 1.31496 5.86274 1.74544 4.82349C2.17591 3.78423 2.90489 2.89597 3.8402 2.27102C4.7755 1.64607 5.87512 1.3125 7 1.3125C8.50793 1.31409 9.95365 1.91382 11.0199 2.98009C12.0862 4.04636 12.6859 5.49207 12.6875 7ZM11.8125 7C11.8125 6.04818 11.5303 5.11773 11.0014 4.32632C10.4726 3.53491 9.72104 2.91808 8.84167 2.55383C7.9623 2.18958 6.99466 2.09428 6.06113 2.27997C5.1276 2.46566 4.27009 2.92401 3.59705 3.59705C2.92401 4.27009 2.46566 5.12759 2.27997 6.06113C2.09428 6.99466 2.18959 7.9623 2.55383 8.84166C2.91808 9.72103 3.53491 10.4726 4.32632 11.0014C5.11773 11.5303 6.04818 11.8125 7 11.8125C8.27591 11.8111 9.49915 11.3036 10.4014 10.4014C11.3036 9.49915 11.8111 8.27591 11.8125 7Z" fill="#96F2FF"/>
</svg>
