<svg width="24" height="24" viewBox="0 0 24 24" fill="none" xmlns="http://www.w3.org/2000/svg">
<rect width="24" height="24" rx="6" fill="url(#paint0_linear_157_245)"/>
<rect width="24" height="24" rx="6" fill="url(#paint1_radial_157_245)" fill-opacity="0.4"/>
<path d="M18.3535 8.85354L10.3535 16.8535C10.3071 16.9 10.252 16.9369 10.1913 16.9621C10.1306 16.9872 10.0655 17.0002 9.99979 17.0002C9.93408 17.0002 9.86902 16.9872 9.80832 16.9621C9.74762 16.9369 9.69248 16.9 9.64604 16.8535L6.14604 13.3535C6.05222 13.2597 5.99951 13.1325 5.99951 12.9998C5.99951 12.8671 6.05222 12.7399 6.14604 12.646C6.23986 12.5522 6.36711 12.4995 6.49979 12.4995C6.63247 12.4995 6.75972 12.5522 6.85354 12.646L9.99979 15.7929L17.646 8.14604C17.7399 8.05222 17.8671 7.99951 17.9998 7.99951C18.1325 7.99951 18.2597 8.05222 18.3535 8.14604C18.4474 8.23986 18.5001 8.36711 18.5001 8.49979C18.5001 8.63247 18.4474 8.75972 18.3535 8.85354Z" fill="#0EE6F3"/>
<defs>
<linearGradient id="paint0_linear_157_245" x1="12" y1="0" x2="12" y2="24" gradientUnits="userSpaceOnUse">
<stop stop-color="#365963"/>
<stop offset="1" stop-color="#2B2F56"/>
</linearGradient>
<radialGradient id="paint1_radial_157_245" cx="0" cy="0" r="1" gradientUnits="userSpaceOnUse" gradientTransform="translate(24) rotate(120.009) scale(17.3221 18.6093)">
<stop stop-color="#96F2FF"/>
<stop offset="0.619146" stop-color="#96F2FF" stop-opacity="0"/>
</radialGradient>
</defs>
</svg>
