<svg width="16" height="16" viewBox="0 0 16 16" fill="none" xmlns="http://www.w3.org/2000/svg">
<path d="M10.5 7H13.5C13.7652 7 14.0196 6.89464 14.2071 6.70711C14.3946 6.51957 14.5 6.26522 14.5 6V3C14.5 2.73478 14.3946 2.48043 14.2071 2.29289C14.0196 2.10536 13.7652 2 13.5 2H10.5C10.2348 2 9.98043 2.10536 9.79289 2.29289C9.60536 2.48043 9.5 2.73478 9.5 3V4H9C8.46957 4 7.96086 4.21071 7.58579 4.58579C7.21071 4.96086 7 5.46957 7 6V7.5H5V7C5 6.73478 4.89464 6.48043 4.70711 6.29289C4.51957 6.10536 4.26522 6 4 6H2C1.73478 6 1.48043 6.10536 1.29289 6.29289C1.10536 6.48043 1 6.73478 1 7V9C1 9.26522 1.10536 9.51957 1.29289 9.70711C1.48043 9.89464 1.73478 10 2 10H4C4.26522 10 4.51957 9.89464 4.70711 9.70711C4.89464 9.51957 5 9.26522 5 9V8.5H7V10C7 10.5304 7.21071 11.0391 7.58579 11.4142C7.96086 11.7893 8.46957 12 9 12H9.5V13C9.5 13.2652 9.60536 13.5196 9.79289 13.7071C9.98043 13.8946 10.2348 14 10.5 14H13.5C13.7652 14 14.0196 13.8946 14.2071 13.7071C14.3946 13.5196 14.5 13.2652 14.5 13V10C14.5 9.73478 14.3946 9.48043 14.2071 9.29289C14.0196 9.10536 13.7652 9 13.5 9H10.5C10.2348 9 9.98043 9.10536 9.79289 9.29289C9.60536 9.48043 9.5 9.73478 9.5 10V11H9C8.73478 11 8.48043 10.8946 8.29289 10.7071C8.10536 10.5196 8 10.2652 8 10V6C8 5.73478 8.10536 5.48043 8.29289 5.29289C8.48043 5.10536 8.73478 5 9 5H9.5V6C9.5 6.26522 9.60536 6.51957 9.79289 6.70711C9.98043 6.89464 10.2348 7 10.5 7ZM4 9H2V7H4V9ZM10.5 10H13.5V13H10.5V10ZM10.5 3H13.5V6H10.5V3Z" fill="#96F2FF"/>
</svg>
