<svg xmlns="http://www.w3.org/2000/svg" width="18" height="14" viewBox="0 0 18 14" fill="none">
  <mask id="mask0_1160_8186" style="mask-type:alpha" maskUnits="userSpaceOnUse" x="7" y="0" width="11" height="14">
    <rect width="10.1461" height="12.5591" transform="matrix(-1 -8.74228e-08 -8.74228e-08 1 17.7665 0.720703)" fill="black"/>
  </mask>
  <g mask="url(#mask0_1160_8186)">
    <path d="M9.48745 5.83159L9.48745 8.2646L10.9827 8.2646L10.9827 5.83159L9.48745 5.83159ZM17.8469 17.1848L19.8749 15.394L9.48745 7.04684L19.8749 -1.36689L17.9284 -3.15772L6.16179 6.30412L6.16179 7.75688L17.8469 17.1848Z" fill="#F9F9F9"/>
  </g>
  <mask id="mask1_1160_8186" style="mask-type:alpha" maskUnits="userSpaceOnUse" x="0" y="0" width="11" height="14">
    <rect x="0.0212402" y="0.720703" width="10.1461" height="12.5591" fill="black"/>
  </mask>
  <g mask="url(#mask1_1160_8186)">
    <path d="M8.51279 5.83159L8.51279 8.2646L7.01759 8.2646L7.01759 5.83159L8.51279 5.83159ZM0.15336 17.1848L-1.87463 15.394L8.51279 7.04684L-1.87463 -1.36689L0.0718772 -3.15772L11.8385 6.30412L11.8385 7.75688L0.15336 17.1848Z" fill="#F9F9F9"/>
  </g>
</svg>