<svg width="311" height="310" viewBox="0 0 311 310" fill="none" xmlns="http://www.w3.org/2000/svg">
<path d="M273.94 0H37.75C17.4 0 0.849976 16.56 0.849976 36.9V273.09C0.849976 293.44 17.41 309.99 37.75 309.99H273.94C294.29 309.99 310.84 293.43 310.84 273.09V36.9C310.84 16.56 294.29 0 273.94 0ZM296.08 131.12V178.89V273.1C296.08 285.31 286.15 295.24 273.94 295.24H85.52H37.75C25.54 295.24 15.61 285.31 15.61 273.1V263.98V169.77V140.25V46.04V36.92C15.61 24.71 25.54 14.78 37.75 14.78H85.52H273.94C286.15 14.78 296.08 24.71 296.08 36.92V131.12Z" fill="white"/>
<path d="M277.82 137.39C278.87 136.74 281.32 134.83 281.32 131.11V36.9C281.32 32.83 278.01 29.52 273.94 29.52H85.5199C80.0999 29.52 78.6499 33.87 78.3399 35.21C78.0299 36.54 77.3799 41.08 82.2199 43.51L193.71 99.26L236.07 120.44C236.07 120.44 236.07 120.44 236.08 120.44L270.64 137.72C273.96 139.38 276.76 138.05 277.82 137.39Z" fill="white"/>
<path d="M233.35 141.93C233.66 140.6 234.31 136.06 229.48 133.64L75.62 56.71L41.05 39.43C39.87 38.84 38.76 38.63 37.77 38.63C35.96 38.63 34.55 39.33 33.87 39.75C32.82 40.4 30.37 42.31 30.37 46.03V140.24C30.37 144.31 33.68 147.62 37.75 147.62H226.17C231.59 147.62 233.04 143.27 233.35 141.93Z" fill="white"/>
<path d="M229.47 133.64L75.62 56.71L229.48 133.64H229.47Z" fill="white"/>
<path d="M78.3299 274.79C78.6499 276.12 80.09 280.48 85.51 280.48H273.93C278 280.48 281.31 277.17 281.31 273.1V178.89C281.31 175.18 278.86 173.26 277.81 172.61C277.13 172.19 275.72 171.49 273.91 171.49C272.92 171.49 271.8 171.7 270.63 172.29L236.08 189.57C236.07 189.57 236.07 189.58 236.06 189.58L82.19 266.52C77.37 268.93 78.0199 273.46 78.3299 274.79Z" fill="white"/>
<path d="M233.35 168.07C233.03 166.74 231.59 162.38 226.17 162.38H37.75C33.68 162.38 30.37 165.69 30.37 169.76V263.97C30.37 267.68 32.82 269.6 33.87 270.25C34.92 270.9 37.73 272.24 41.05 270.57L75.6 253.29C75.6 253.29 75.61 253.29 75.61 253.28L152.54 214.82L229.47 176.36C234.32 173.94 233.67 169.4 233.35 168.07Z" fill="white"/>
<path d="M75.6 253.3L152.54 214.83L75.62 253.29L75.6 253.3Z" fill="white"/>
</svg>
