<?xml version="1.0" encoding="utf-8"?>
<svg version="1.1" id="Layer_1" xmlns="http://www.w3.org/2000/svg" xmlns:xlink="http://www.w3.org/1999/xlink" x="0px" y="0px" viewBox="0 0 1000 1000" style="enable-background:new 0 0 1000 1000;" xml:space="preserve">
	<style type="text/css">
		.st0{fill:#242736;}
	</style>
	<g transform="matrix(5.3440923 0 0 5.3440923 -72.14965 -118.02575)">
		<path class="st0" d="M99.4,186.4l-51.8-108C35,89.9,27.1,106.2,27.1,124.6c0,34.5,28.1,62.6,62.6,62.6C93,187.1,96.1,186.9,99.4,186.4"/>
		<path class="st0" d="M78.2,63c3.8-0.8,7.7-1,11.5-1c34.5,0,62.6,28.1,62.6,62.6c0,18.9-8.4,36-22,47.5l15.3,32.2c25-17.6,41.4-46.7,41.4-79.7C187.2,70.7,143.6,27,89.7,27c-9.2,0-18.4,1.3-26.8,3.8L78.2,63z"/>
	</g>
</svg>
