<svg fill="#09101F" width="25" height="24" viewBox="0 0 25 24" xmlns="http://www.w3.org/2000/svg">
  <title>Axiom</title>
  <g>
    <path d="M24.8172 16.3508L19.4768 7.25452C19.2319 6.83646 18.6285 6.49438 18.1358 6.49438H14.8018C14.0268 6.49438 13.709 5.95705 14.0957 5.30028L15.924 2.19416C16.0691 1.94761 16.0688 1.64416 15.9232 1.39791C15.7776 1.15167 15.5088 1 15.2179 1H10.5668C10.0741 1 9.46936 1.3413 9.22284 1.7584L0.185002 17.0513C-0.0615144 17.4684 -0.0616976 18.1511 0.184635 18.5683L2.51012 22.5073C2.89759 23.1636 3.53305 23.1643 3.92217 22.509L5.73928 19.4489C6.1284 18.7935 6.76386 18.7943 7.15133 19.4506L8.7987 22.2409C9.04497 22.6582 9.64968 22.9995 10.1423 22.9995H20.89C21.3826 22.9995 21.9873 22.6582 22.2336 22.2409L24.8145 17.8696C25.0608 17.4524 25.062 16.7689 24.8172 16.3508ZM17.605 15.913C17.99 16.5707 17.671 17.1087 16.8961 17.1087H8.53623C7.76129 17.1087 7.44424 16.5718 7.83171 15.9155L12.015 8.83009C12.4024 8.17379 13.0364 8.17379 13.4238 8.83015L17.605 15.913Z"/>
  </g>
</svg>
