<svg xmlns="http://www.w3.org/2000/svg" fill="none" viewBox="0 0 24 24">
  <g clip-path="url(#a)">
    <path fill="url(#b)" d="M12 23.293c6.26 0 11.333-5.056 11.333-11.293C23.333 5.763 18.26.707 12 .707S.667 5.763.667 12C.667 18.237 5.74 23.293 12 23.293Z"/>
    <path fill="#fff" d="M12 21.827c5.45 0 9.867-4.4 9.867-9.827S17.449 2.173 12 2.173c-5.45 0-9.867 4.4-9.867 9.827S6.551 21.827 12 21.827Z"/>
    <path fill="#9CEBFF" d="M3.627 12.586a8.32 8.32 0 0 0 2.426 5.334l2.667-2.667a4.707 4.707 0 0 1-1.333-2.667h-3.76Z"/>
    <path fill="#32BEDD" d="M17.507 5.693a8.333 8.333 0 0 0-4.92-2.04v3.72c.831.096 1.62.419 2.28.934l2.64-2.614Zm-11.014 0L9.16 8.36a4.547 4.547 0 0 1 2.28-.933V3.653a8.333 8.333 0 0 0-4.947 2.04Zm9.214 3.44a4.8 4.8 0 0 1 .947 2.28h3.72a8.214 8.214 0 0 0-2.04-4.893l-2.627 2.613Z"/>
    <path fill="#50E6FF" d="M8.293 9.133 5.627 6.467a8.213 8.213 0 0 0-2 4.947h3.72a4.8 4.8 0 0 1 .946-2.28Z"/>
    <path fill="#F04049" d="M18.853 9.333a.6.6 0 0 0-.76-.333L12.6 11.213l.427 1.08 5.493-2.173a.585.585 0 0 0 .333-.787Z"/>
    <path fill="url(#c)" d="M12 13.6a1.6 1.6 0 1 0 0-3.2 1.6 1.6 0 0 0 0 3.2Z"/>
  </g>
  <defs>
    <radialGradient id="b" cx="0" cy="0" r="1" gradientTransform="translate(12.01 12.046) scale(11.3389)" gradientUnits="userSpaceOnUse">
      <stop offset=".18" stop-color="#5EA0EF"/>
      <stop offset=".56" stop-color="#5C9FEE"/>
      <stop offset=".69" stop-color="#559CED"/>
      <stop offset=".78" stop-color="#4A97E9"/>
      <stop offset=".86" stop-color="#3990E4"/>
      <stop offset=".93" stop-color="#2387DE"/>
      <stop offset=".99" stop-color="#087BD6"/>
      <stop offset="1" stop-color="#0078D4"/>
    </radialGradient>
    <radialGradient id="c" cx="0" cy="0" r="1" gradientTransform="matrix(3.42 0 0 3.42 12.001 9.554)" gradientUnits="userSpaceOnUse">
      <stop offset=".19" stop-color="#8C8E90"/>
      <stop offset=".35" stop-color="#848688"/>
      <stop offset=".6" stop-color="#6E7071"/>
      <stop offset=".91" stop-color="#4A4B4C"/>
      <stop offset="1" stop-color="#3E3F3F"/>
    </radialGradient>
    <clipPath id="a">
      <path fill="#fff" d="M0 0h24v24H0z"/>
    </clipPath>
  </defs>
</svg>
