<svg xmlns="http://www.w3.org/2000/svg" width="26" height="21" viewBox="0 0 26 21"  fill="#c9d3ee" >
  <title>BetterStack</title>
  <g>
    <path d="m25.4694 17.0768-8.5583-16.04826c-.7466-1.399958-2.7607-1.362955-3.4559.06307l-2.1046 4.23601c-.2543.52158-.1364.70773.0751 1.01048.1696.24283.5633.26199.7236.01287.1575-.24493.5226-.22237.6488.04011l5.5023 11.44492c.4147.9326 1.2832 1.5824 2.2935 1.7153l2.9111.3722c1.5665.206 2.7093-1.4499 1.9644-2.8467z"/>
    <path d="m14.0858 18.1833-4.84338-13.95529c-.53793-1.5498-2.79317-1.48268-3.23456.09616l-1.47346 5.27266c-.16712.59857-.2314.94477.00045 1.52197h.5595l2.03401 6.4999c.315.7843.96566 1.3931 1.77897 1.664l3.03227 1.0104c1.3298.443 2.599-.8046 2.1462-2.1098z"/>
    <path d="m.834857 8.85118-.8196064 7.10922c-.0842004.73.1941994 1.455.7453294 1.9408l2.03101 1.7905c.69544.6132 1.77558.0156 1.62618-.8996l-1.62873-9.98687c-.18456-1.13079-1.822921-1.09222-1.954183.04595z"/>
  </g>
</svg>