<svg viewBox="150 350 1500 1500" xmlns="http://www.w3.org/2000/svg">
  <title>Bonree</title>
  <g>
    <path fill="#44BC2F" transform="translate(906.75,576.75)"
      d="M0 0 C0.90707703 -0.00067474 1.81415405 -0.00134949 2.74871826 -0.00204468 C35.93775728 0.03666586 70.09978568 2.61129975 102.25 11.25 C102.25 11.58 102.25 11.91 102.25 12.25 C100.75895752 12.39248169 100.75895752 12.39248169 99.23779297 12.5378418 C9.90935603 21.15493288 -79.52380391 46.07473843 -147.16796875 107.9140625 C-148.62443699 109.23171456 -150.08868384 110.54123101 -151.57788086 111.82177734 C-164.06434925 122.56233949 -174.58624147 135.0074644 -184.29492188 148.26855469 C-185.6330932 150.09080275 -186.99235818 151.89467206 -188.359375 153.6953125 C-232.00052403 211.94945171 -248.39067213 289.07581367 -238.78515625 360.54296875 C-224.93065992 453.25940449 -179.81234089 534.48114111 -116.33691406 602.54541016 C-115.19538022 603.77159313 -114.05709392 605.0008024 -112.92089844 606.23193359 C-104.71756315 615.11990199 -96.3873398 623.69422272 -87.3828125 631.77001953 C-85.03401689 633.89896675 -82.73145813 636.07593419 -80.42333984 638.2487793 C-74.07989265 644.20555695 -67.58553018 649.85810597 -60.75 655.25 C-59.43487741 656.30726875 -58.11977477 657.36456231 -56.8046875 658.421875 C13.011912 714.10527304 99.10672966 745.29503904 245.25 764.25 C245.98150269 764.29732269 246.71300537 764.34464539 247.4666748 764.3934021 C262.22430828 765.31942267 276.9667218 765.45124265 291.75 765.4375 C292.9578717 765.43689575 294.16574341 765.4362915 295.41021729 765.43566895 C315.75928211 765.40816976 335.9681689 764.8963701 356.25 763.25 C357.40396271 763.15878876 357.40396271 763.15878876 358.58123779 763.06573486 C409.15856861 759.05439825 459.0696452 750.68657625 508.25 738.25 C506.52832492 741.91109996 504.40867668 744.41895944 501.625 747.375 C498.33308203 750.91397513 495.17365364 754.50920975 492.1875 758.3125 C488.83133733 762.58213436 485.28708326 766.62725119 481.62109375 770.6328125 C480.31466977 772.07482909 479.01493916 773.52337892 477.74633789 774.9987793 C473.00320745 780.51489489 467.96768713 785.68188088 462.8125 790.8125 C462.00490234 791.62396484 461.19730469 792.43542969 460.36523438 793.27148438 C455.48989045 798.13897118 450.50396448 802.79475999 445.25 807.25 C444.28839966 808.07165649 444.28839966 808.07165649 443.30737305 808.90991211 C433.0289059 817.63899029 422.43095062 825.71399783 411.25 833.25 C410.57001953 833.70971191 409.89003906 834.16942383 409.18945312 834.64306641 C357.60940476 869.29610652 298.91254744 890.23291189 237.25 897.25 C236.24388672 897.36714355 235.23777344 897.48428711 234.20117188 897.60498047 C173.09933557 904.37284351 110.35650424 895.96016957 49.9107666 887.32836914 C48.16054342 887.07884488 46.40979556 886.83296205 44.65844727 886.59146118 C43.07815433 886.36741281 41.50021639 886.12591873 39.92553711 885.86532593 C35.33757301 885.09930003 35.33757301 885.09930003 31.25 887.25 C30.40524253 889.74531114 30.40524253 889.74531114 29.92578125 892.7265625 C29.70647949 893.85989014 29.48717773 894.99321777 29.26123047 896.16088867 C29.03064941 897.38654541 28.80006836 898.61220215 28.5625 899.875 C22.43117241 930.06726024 11.15974591 958.46213951 -7.5 983.1875 C-8.26534058 984.20372437 -8.26534058 984.20372437 -9.04614258 985.24047852 C-13.915907 991.61556577 -19.18086155 997.47773188 -24.75 1003.25 C-25.47445312 1004.02601563 -26.19890625 1004.80203125 -26.9453125 1005.6015625 C-33.29720993 1012.23472476 -40.41382933 1017.76315955 -47.75 1023.25 C-48.70108643 1023.96760498 -48.70108643 1023.96760498 -49.67138672 1024.69970703 C-111.00654768 1070.64347523 -188.16677953 1090.40688706 -263.8125 1090.4375 C-265.10784668 1090.43838623 -266.40319336 1090.43927246 -267.73779297 1090.44018555 C-273.5019686 1090.40531386 -279.07589018 1090.3038837 -284.75 1089.25 C-281.80571622 1087.28714415 -278.84518677 1085.7795161 -275.6875 1084.1875 C-269.11682096 1080.66462203 -263.96791335 1076.5419263 -258.75 1071.25 C-258.12609375 1070.63640625 -257.5021875 1070.0228125 -256.859375 1069.390625 C-238.35678108 1049.88789087 -234.83738847 1021.75975204 -235.40234375 996.06640625 C-237.60301067 941.11283477 -261.46782857 888.62449896 -285.75 840.25 C-286.29543457 839.16187012 -286.84086914 838.07374023 -287.40283203 836.95263672 C-293.9699935 823.93294212 -301.03332209 811.24208217 -308.54296875 798.7421875 C-310.49658019 795.47136409 -312.2885221 792.22622939 -313.86328125 788.7578125 C-319.78505817 776.16367575 -330.22403414 772.86241502 -342.75 768.25 C-344.92892514 767.40112366 -347.10730045 766.5508348 -349.28515625 765.69921875 C-372.85554688 756.70236714 -397.64017046 750.02302069 -422.75 747.25 C-423.79671875 747.12109375 -424.8434375 746.9921875 -425.921875 746.859375 C-460.94264345 743.18316174 -497.85730352 749.57836654 -525.79223633 772.06787109 C-543.27388166 786.50378824 -554.9994447 805.49491406 -563.75 826.25 C-564.08 826.25 -564.41 826.25 -564.75 826.25 C-565.45001163 794.41675528 -556.69765117 760.94170913 -541.66259766 732.95751953 C-540.84050155 731.41933329 -540.04913192 729.86481977 -539.26171875 728.30859375 C-533.56762607 717.28932143 -526.14957605 707.40734724 -517.703125 698.35546875 C-516.10939276 696.63742539 -514.63541074 694.90134665 -513.1875 693.0625 C-484.96278402 660.49552002 -440.4386761 650.30432484 -399.75 645.25 C-398.02795306 642.09818351 -397.6252099 640.72241428 -398.55761719 637.19262695 C-399.04907227 636.05269287 -399.54052734 634.91275879 -400.046875 633.73828125 C-400.59444501 632.42793612 -401.14171287 631.11746468 -401.6887207 629.80688477 C-401.98396637 629.1170047 -402.27921204 628.42712463 -402.58340454 627.71633911 C-421.04880704 584.32587091 -431.75825206 536.01604359 -436.75 489.25 C-436.85441406 488.28433105 -436.95882812 487.31866211 -437.06640625 486.32373047 C-445.73610128 402.4938154 -426.57958694 317.64486159 -337.10693359 153.22070312 C-333.73715655 149.15675408 -330.26635193 145.18727804 -326.75 141.25 C-325.98300781 140.38375 -325.21601562 139.5175 -324.42578125 138.625 C-322.2173157 136.1508842 -319.98623501 133.699032 -317.75 131.25 C-316.7928432 130.1876131 -315.83581966 129.12510613 -314.87890625 128.0625 C-309.57374078 122.20423374 -304.19325311 116.62237036 -298.23046875 111.41796875 C-295.60303864 109.12155346 -293.0553089 106.75125076 -290.5 104.375 C-273.20676899 88.67806724 -253.70493883 75.30436317 -233.75 63.25 C-232.55479736 62.52562744 -232.55479736 62.52562744 -231.33544922 61.78662109 C-161.92144738 20.06578314 -80.69901508 0.05477855 0 0 Z " />
    <path fill="#175AAA" transform="translate(1217,795)"
      d="M0 0 C5.43304615 -0.12395785 10.30924145 0.24972657 15.671875 1.28515625 C16.38305481 1.42116241 17.09423462 1.55716858 17.82696533 1.69729614 C20.13661711 2.14287614 22.44344289 2.60118263 24.75 3.0625 C25.94882813 3.30016586 25.94882813 3.30016586 27.171875 3.54263306 C54.84202473 9.04575163 81.4101851 16.64305421 108 26 C109.07459473 26.37801758 110.14918945 26.75603516 111.25634766 27.14550781 C125.55321943 32.24263215 139.30991519 38.46296758 153 45 C153.94020996 45.44746582 154.88041992 45.89493164 155.84912109 46.35595703 C173.65135822 54.88444163 190.61748128 64.68152271 207.125 75.5 C207.86524414 75.98009521 208.60548828 76.46019043 209.36816406 76.95483398 C239.86499299 97.34698957 251.80111566 160.68491005 258.4375 194.07421875 C263.11529807 218.67175356 266.10896092 243.6087577 266.203125 268.6640625 C266.21013931 269.92319962 266.21715363 271.18233673 266.22438049 272.47962952 C266.24179984 276.52812608 266.24881602 280.57647401 266.25 284.625 C266.25066278 285.66190664 266.25066278 285.66190664 266.25133896 286.71976089 C266.25878105 308.93945839 265.74571465 330.9290805 263 353 C262.91278687 353.71899475 262.82557373 354.4379895 262.73571777 355.17877197 C252.28280721 441.22166826 252.28280721 441.22166826 237.86328125 453.875 C234.59554312 455.31620763 231.33463184 456.72204831 228 458 C227.15211914 458.32967773 226.30423828 458.65935547 225.43066406 458.99902344 C139.36349712 492.06521495 45.17258367 497.65920507 -118 489 C-118 488.34 -118 487.68 -118 487 C-117.35901367 486.91548584 -116.71802734 486.83097168 -116.05761719 486.74389648 C-58.44747659 478.96438776 -7.3052892 458.32609438 35 418 C35.79921875 417.24203125 36.5984375 416.4840625 37.421875 415.703125 C86.81565943 367.67192773 109.2512629 292.11892136 110.32542419 224.84524536 C110.51246407 208.07208909 110.24636204 191.51116203 107 175 C106.70996094 173.49783936 106.70996094 173.49783936 106.4140625 171.96533203 C97.48164974 127.07582253 78.64699914 82.21933657 49 47 C48.57138672 46.48260254 48.14277344 45.96520508 47.70117188 45.43212891 C36.15312441 31.50299934 23.81443496 19.27246653 9.42578125 8.26171875 C8.82507812 7.80176514 8.224375 7.34181152 7.60546875 6.86791992 C6.42767887 5.96934194 5.24677015 5.07483445 4.0625 4.18481445 C2.69086982 3.14587134 1.34279921 2.07594722 0 1 C0 0.67 0 0.34 0 0 Z " />
    <path fill="#3D83D8" transform="translate(1238,675)"
      d="M0 0 C1.39959127 0.96636067 2.7993374 1.93249708 4.19921875 2.8984375 C13.39554275 9.28179256 22.29261916 15.96648636 31 23 C31.93070313 23.74765625 32.86140625 24.4953125 33.8203125 25.265625 C44.04959073 33.55641027 54.03087597 42.14794589 63.78125 50.99609375 C65.79308393 52.81311982 67.82660434 54.59944392 69.875 56.375 C74.28465229 60.21794999 78.58618145 64.17674424 82.88671875 68.140625 C84.8359147 69.93617491 86.7965763 71.71455928 88.76953125 73.484375 C95.30294109 79.36901268 101.58503629 85.47977942 107.8125 91.6875 C109.01338257 92.88149414 109.01338257 92.88149414 110.23852539 94.09960938 C115.03148481 98.90505176 119.60898479 103.82552826 124 109 C124.60658447 109.71051514 125.21316895 110.42103027 125.83813477 111.15307617 C127.69615674 113.34196218 129.5373306 115.54401306 131.375 117.75 C132.00277344 118.49121094 132.63054688 119.23242188 133.27734375 119.99609375 C133.87417969 120.71410156 134.47101562 121.43210937 135.0859375 122.171875 C135.8910376 123.1323877 135.8910376 123.1323877 136.71240234 124.11230469 C138.06193641 126.09080249 138.57738837 127.65908213 139 130 C137.89269531 129.50113281 136.78539062 129.00226563 135.64453125 128.48828125 C133.1391685 127.35960647 130.63331385 126.23206004 128.12646484 125.10668945 C122.83356676 122.72998245 117.54755237 120.33926802 112.26953125 117.9296875 C85.99500761 105.97712681 59.32667631 95.33215538 32 86 C30.80391113 85.59040039 29.60782227 85.18080078 28.37548828 84.75878906 C-49.40685778 58.34681151 -132.51500965 44.40115731 -306.60083008 89.25195312 C-340.79631948 106.13406246 -373.45175611 130.87633025 -397 161 C-397.88007691 162.09100167 -398.76165767 163.1807915 -399.64453125 164.26953125 C-435.0102419 208.14194392 -458.1113151 266.74825732 -458.16796875 323.390625 C-458.17129715 324.57106384 -458.17462555 325.75150269 -458.17805481 326.9677124 C-458.18310017 329.46219496 -458.18546388 331.95668422 -458.18530273 334.45117188 C-458.18746919 338.19673373 -458.20559539 341.94199092 -458.22460938 345.6875 C-458.25361532 358.50238974 -457.89253508 371.09499612 -456.4309082 383.83105469 C-456.04380918 387.23714262 -455.91285759 390.56803549 -456 394 C-496.49521382 355.766299 -512.36070551 281.37967474 -514.1875 228.265625 C-515.60473002 162.39013008 -488.30771127 96.4815392 -442.90234375 48.9921875 C-441.93559827 47.99411081 -440.9681609 46.99670376 -440 46 C-439.53352051 45.51305664 -439.06704102 45.02611328 -438.58642578 44.52441406 C-432.1223272 37.78654722 -425.3118711 31.79214887 -418 26 C-416.86683026 25.06711609 -415.73540209 24.13211381 -414.60546875 23.1953125 C-360.09284515 -21.71088041 -292.08759822 -44.48829539 -223 -54 C-222.10297363 -54.13277344 -221.20594727 -54.26554688 -220.28173828 -54.40234375 C-143.55789701 -65.64948704 -62.9561001 -44.08093169 0 0 Z " />
    <path fill="#2D9243" transform="translate(426.6875,1371.4375)"
      d="M0 0 C2.77952411 1.77664641 3.88847085 3.3159378 5.11328125 6.35546875 C16.72630191 33.95891748 30.9196923 59.22124526 51.26953125 81.3359375 C53.14209308 83.37677926 54.95079534 85.45713697 56.75 87.5625 C63.36139527 95.13805708 70.59922022 102.12022916 78.3125 108.5625 C78.84020996 109.00932129 79.36791992 109.45614258 79.91162109 109.91650391 C90.55122714 118.89957473 101.65492909 126.95355647 113.3125 134.5625 C114.12283691 135.09343262 114.93317383 135.62436523 115.76806641 136.17138672 C130.405923 145.68787423 145.69782666 153.77488505 161.3125 161.5625 C162.17584961 161.99546387 163.03919922 162.42842773 163.92871094 162.87451172 C171.59881049 166.69695138 179.32807965 170.20358901 187.3046875 173.34375 C188.52478516 173.82626221 189.74488281 174.30877441 191.00195312 174.8059082 C193.40806154 175.7486832 195.82066505 176.67509263 198.24023438 177.58276367 C208.92275213 181.74617051 208.92275213 181.74617051 212.3125 187.5625 C217.45576808 204.93363582 213.10586459 228.7341161 205.3125 244.5625 C202.90326449 248.46799757 200.24693252 252.03777545 197.3125 255.5625 C196.78011719 256.20832031 196.24773437 256.85414063 195.69921875 257.51953125 C180.02175285 274.75307317 153.59819675 279.2026979 131.453125 280.44140625 C127.05923858 280.61082227 122.70763037 280.69541978 118.3125 280.5625 C117.09542358 280.53192505 117.09542358 280.53192505 115.85375977 280.50073242 C108.28207907 280.07767392 102.28295927 277.90935945 95.4375 274.75 C94.35106201 274.25790039 93.26462402 273.76580078 92.14526367 273.25878906 C61.48950022 259.10687666 32.52144541 238.99295303 7.3125 216.5625 C6.79558594 216.1072998 6.27867187 215.65209961 5.74609375 215.18310547 C-7.20514511 203.73144187 -18.95777531 191.11089143 -29.6875 177.5625 C-30.6269535 176.42416685 -31.56849179 175.28755217 -32.51171875 174.15234375 C-51.57891082 151.05152929 -75.95766897 115.70105379 -73.95263672 84.66943359 C-73.14728143 78.26960287 -70.28716982 72.39996564 -67.6875 66.5625 C-67.10134995 65.17717325 -66.515414 63.79175588 -65.9296875 62.40625 C-58.82442585 46.0806368 -48.6291653 31.69833183 -36.6875 18.5625 C-36.048125 17.840625 -35.40875 17.11875 -34.75 16.375 C-26.14201738 7.17336341 -13.17009192 -5.13410363 0 0 Z " />
  </g>
</svg>