<?xml version="1.0" encoding="UTF-8" standalone="no"?>
<svg
   id="Layer_1"
   viewBox="0 0 200 200"
   height="200"
   width="200"
   version="1.1"
   xmlns="http://www.w3.org/2000/svg"
   xmlns:svg="http://www.w3.org/2000/svg">
  <defs
     id="defs4">
    <style
       id="style1">.cls-1{fill:#03bc85;}.cls-2{fill:#4338a6;}.cls-3{fill:url(#radial-gradient);}</style>
    <radialGradient
       id="radial-gradient"
       cx="61.28"
       cy="-686.16"
       fx="61.28"
       fy="-686.16"
       r="117.04"
       gradientTransform="translate(0 -590) scale(1 -1)"
       gradientUnits="userSpaceOnUse">
      <stop
         offset="0"
         stop-color="#4338a6"
         id="stop1" />
      <stop
         offset=".5"
         stop-color="#019b84"
         id="stop2" />
      <stop
         offset=".8"
         stop-color="#02b484"
         id="stop3" />
      <stop
         offset="1"
         stop-color="#03bd85"
         id="stop4" />
    </radialGradient>
    <radialGradient
       id="radial-gradient-8"
       cx="61.279999"
       cy="-686.15997"
       fx="61.279999"
       fy="-686.15997"
       r="117.04"
       gradientTransform="matrix(1,0,0,-1,0,-590)"
       gradientUnits="userSpaceOnUse">
      <stop
         offset="0"
         stop-color="#4338a6"
         id="stop1-3" />
      <stop
         offset=".5"
         stop-color="#019b84"
         id="stop2-9" />
      <stop
         offset=".8"
         stop-color="#02b484"
         id="stop3-0" />
      <stop
         offset="1"
         stop-color="#03bd85"
         id="stop4-5" />
    </radialGradient>
  </defs>
  <g
     id="g5"
     transform="translate(0.82128552,0.26325559)">
    <path
       class="cls-3"
       d="M 131.01,24.2 V 2.99 c 0,-2.83 -3.18,-3.89 -4.95,-2.12 l -20.15,20.15 c -0.71,0.71 -1.41,2.12 -1.41,3.18 v 18.03 c 0,1.06 -0.35,2.12 -1.41,3.18 L 74.1,74.76 c -1.06,1.06 -2.83,1.77 -4.24,1.06 -3.54,-1.06 -7.43,-1.41 -11.32,-0.35 -7.78,1.77 -13.79,8.13 -15.56,15.91 -3.18,15.2 9.9,28.64 25.46,25.46 7.78,-1.77 14.14,-7.78 15.91,-15.56 1.06,-3.89 0.71,-7.78 -0.35,-11.32 -0.35,-1.41 0,-3.18 1.06,-4.24 6.01,-6.01 24.4,-24.4 29.35,-29.35 0.71,-0.71 1.77,-1.41 3.18,-1.41 h 18.03 c 1.06,0 2.48,-0.35 3.18,-1.41 l 19.8,-19.8 c 1.77,-1.77 0.71,-4.95 -2.12,-4.95 h -21.22 c -2.48,0 -4.24,-2.12 -4.24,-4.6 v 0 z m -28.64,60.46 c 2.12,6.72 2.12,14.14 0,21.92 -4.24,15.2 -17.33,26.87 -32.88,28.99 C 42.62,139.46 19.99,116.83 23.88,89.96 26,74.4 37.67,61.32 52.87,57.08 c 7.78,-2.12 15.2,-1.77 21.92,0 1.06,0.35 1.77,0 2.83,-0.71 L 91.76,42.23 C 93.17,40.82 92.82,38.69 91.05,37.99 81.15,33.04 69.83,30.92 57.81,31.98 28.47,35.16 4.07,58.5 0.53,87.85 c -5.3,41.72 29.7,76.73 71.43,71.43 29.35,-3.54 52.69,-27.93 55.51,-57.28 1.06,-12.02 -1.06,-23.34 -6.01,-33.24 -0.71,-1.77 -2.83,-1.77 -4.24,-0.71 l -14.14,14.14 c -1.06,0.71 -1.06,1.77 -0.71,2.48 v 0 z"
       id="path4"
       style="fill:url(#radial-gradient-8)" />
    <path
       class="cls-1"
       d="m 121.46,68.75 c -0.71,-1.77 -2.83,-1.77 -4.24,-0.71 l -14.14,14.14 c -0.71,0.71 -1.06,1.77 -0.71,2.83 2.12,6.72 2.12,14.14 0,21.92 -4.24,15.2 -17.33,26.87 -32.88,28.99 C 42.62,139.81 19.99,117.18 23.88,90.31 26,74.75 37.67,61.67 52.87,57.43 c 7.78,-2.12 15.2,-1.77 21.92,0 1.06,0.35 1.77,0 2.83,-0.71 L 91.76,42.58 C 93.17,41.17 92.82,39.04 91.05,38.34 81.15,33.39 69.83,31.27 57.81,32.33 28.47,35.16 4.07,58.5 0.53,87.85 c -5.3,41.72 29.7,76.73 71.43,71.43 29.35,-3.54 52.69,-27.93 55.51,-57.28 1.06,-12.02 -1.41,-23.34 -6.01,-33.24 v 0 z"
       id="path5"
       style="fill:#03bc85" />
  </g>
</svg>
