<svg width="64" height="67" viewBox="0 0 64 67" fill="none" xmlns="http://www.w3.org/2000/svg">
  <title>Checkly</title>
  <g>
    <path fill="#0075FF"
      d="M35.605 0c13.38 0 20.068 0 24.224 4.157h-.023c4.157 4.156 4.157 10.846 4.157 24.224v4.707c0 13.38 0 20.068-4.157 24.224a11.014 11.014 0 0 1-2.433 1.837c-.965.537-2.003.93-3.064 1.225-.546.154-1.1.278-1.657.384-.097.018-.978.172-1.364.244l-.182.036H12.856l-.182-.036-1.364-.244a20.818 20.818 0 0 1-1.657-.384c-1.061-.294-2.1-.688-3.064-1.225a11.073 11.073 0 0 1-2.433-1.837C0 53.156 0 46.466 0 33.088v-4.707C0 15 0 8.313 4.157 4.157 8.313 0 15 0 28.378 0h7.227Z" />
    <path fill="#FFFFFF"
      d="M51.412 45.925c.229 1.26 1.551 2.085 2.67 2.475l.009-.002s1.957.883 3.754.954c0 0-2.158 6.665-6.864 10.504l-.027.02-10.651 2.71-4.196 1.234h-8.205l-4.196-1.234-10.656-2.71-.027-.02C8.317 56.016 6.16 49.352 6.16 49.352c1.795-.07 3.755-.954 3.755-.954 1.119-.392 2.442-1.215 2.67-2.475.124-.695-.162-1.327-.492-1.918-1.034-1.853-1.758-3.87-2.307-5.916-.551-2.055-1.014-4.167-1.188-6.271-.091-1.103-.346-2.72.744-3.425.338-.218.732-.33 1.124-.415 4.47-.962 8.697 1.905 12.165 4.397l.12-.05c.24-.12.49-.226.744-.315.417-.147.838-.26 1.263-.352 1.992-.52 4.459-.821 7.131-.821l.01.002h.1c.033 0 .066.002.1 0h.01c2.672 0 5.14.3 7.131.821.425.091.846.205 1.263.352.253.09.504.195.744.316l.12.05c3.467-2.495 7.696-5.36 12.165-4.398.392.083.786.197 1.124.415 1.09.705.835 2.322.744 3.425-.174 2.104-.639 4.216-1.188 6.27-.55 2.047-1.273 4.062-2.307 5.917-.33.591-.618 1.223-.492 1.918Z" />
    <path fill="#002652" fill-rule="evenodd" clip-rule="evenodd"
      d="M12.242 30.67c-.243.051-.487.121-.697.256-.618.4-.539 1.273-.478 1.941l.016.18c.108 1.304.394 2.612.736 3.885.238.887.53 1.764.904 2.606a14.71 14.71 0 0 1 1.374-1.806c.398-.45.809-.864 1.22-1.244 2.236-2.069 4.462-3.097 4.462-3.097-2.147-1.544-4.768-3.319-7.535-2.724l-.002.002Zm11.51 31.643v-.009l.01-.043.006-.028.017-.072.209-.937c.09-.364.187-.727.294-1.088.268-.9.604-1.812 1.248-2.494.653-.69 1.546-1.07 2.425-1.445l.304-.13c.97-.421 1.969-.952 2.491-1.873.51-.9.46-2.046.032-2.985-.276-.603-.693-1.13-1.184-1.582a7.283 7.283 0 0 0-.873-.684c-2.457-1.652-5.774-1.94-8.479-.735-2.328 1.036-4.117 3.061-5.265 5.338-.394.78-.722 1.592-.996 2.421-.273.831-.495 1.68-.682 2.535l-.008.042-.019.095-.022.112a6.821 6.821 0 0 0-.025.13l-.021.106-.004.021c-.02.102-.042.205-.06.305l-.052.26-.007.036a2.093 2.093 0 0 0-.01.05l-.006.035-.004.025v.006a1.11 1.11 0 0 1-.014.071c-.007.029-.01.058-.015.087a24.66 24.66 0 0 0-.147.898l-.005.033a.749.749 0 0 1-.006.037v.017l-.005.045-.013.102v.02c.062.013.126.019.19.026l.077.008.025.003a16.57 16.57 0 0 1 .405.046l.171.02.42.049.228.027.258.031.548.069c.2.024.4.05.6.076l.324.042.324.041.684.091c.238.031.476.065.715.098.22.03.437.06.655.092l.083.011.376.054c.126.018.251.037.377.054l.085.013c.225.033.451.066.675.101l.38.06.381.058.647.105.108.018.012.002.726.122.606.108.111.02.454.086.197.029.058-.28-.014-.002Zm-.262-9.294a1.53 1.53 0 1 1 3.06 0 1.53 1.53 0 0 1-3.06 0ZM32.1 61.5H32.074l-.08-.002c-.035 0-.062 0-.08.002H31.888c-.066-.004-2.797-.187-3.997 2.326v.002s1.418 2.5 3.995 2.506H31.9a.747.747 0 0 0 .066-.003l.033-.003.033.003a.775.775 0 0 0 .067.003h.012c2.577-.008 3.995-2.508 3.995-2.508v-.002c-1.201-2.512-3.93-2.33-3.997-2.326l-.008.002Zm19.008-.636v.004l.012-.002.003.024c.005.034.013.092.016.123v.02a2.223 2.223 0 0 1-.19.026 4.808 4.808 0 0 0-.078.008c-.087.008-.172.018-.259.029l-.17.02-.172.02c-.139.015-.276.032-.412.048h-.006c-.164.02-.326.038-.488.059l-.547.068c-.201.027-.4.052-.601.077-.216.027-.431.054-.647.083l-.342.046a80.065 80.065 0 0 0-.7.094l-.357.049-.37.052h-.001l-.367.051c-.251.036-.502.07-.753.108l-.087.013c-.224.033-.45.066-.674.101l-.38.06-.38.058c-.253.04-.504.081-.755.123-.245.039-.491.08-.738.124-.24.041-.479.085-.717.128-.151.027-.303.056-.454.085l-.197.03-.058-.28v-.009a1.801 1.801 0 0 0-.02-.095l-.011-.048-.21-.937c-.089-.364-.186-.727-.294-1.088-.268-.9-.603-1.812-1.248-2.494-.65-.687-1.543-1.068-2.418-1.442l-.31-.134c-.97-.42-1.97-.951-2.492-1.872-.51-.897-.46-2.046-.031-2.985.278-.603.694-1.13 1.183-1.582.272-.25.566-.478.873-.684 2.459-1.652 5.774-1.94 8.48-.735 2.327 1.036 4.114 3.061 5.265 5.338.394.78.721 1.592.995 2.421a25.385 25.385 0 0 1 .685 2.55l.002.007a.695.695 0 0 1 .003.02l.019.095.023.112c.003.025.009.05.014.077l.01.054.021.105a.092.092 0 0 1 .004.021c.021.102.042.207.06.305l.052.26.009.043.008.043a.847.847 0 0 0 .006.035l.004.025v.006l.008.036.002.014.005.021c.004.029.008.058.014.087l.012.064a1.536 1.536 0 0 0 .011.065l.075.441.05.328.005.036.005.034V60.864Zm-13.67-7.845a1.53 1.53 0 1 0 3.06 0 1.53 1.53 0 0 0-3.06 0ZM52.44 30.926c-.21-.134-.454-.205-.697-.257l-.002-.002c-2.767-.595-5.388 1.18-7.535 2.724 0 0 2.226 1.028 4.463 3.097.41.38.82.794 1.219 1.244.487.55.953 1.15 1.374 1.806.373-.842.666-1.719.904-2.606.342-1.273.628-2.581.736-3.885l.016-.18c.06-.668.14-1.54-.478-1.94Z" />
  </g>
</svg>