<svg width="159" height="161" viewBox="0 0 159 161" fill="none" xmlns="http://www.w3.org/2000/svg">
  <title>Chronosphere</title>
  <g>
    <path fill="#2FBF71" d="M80 0C117.6 0 149.2 26 157.7 61C152.2 53.2 143.1 48.1 132.8 48.1C116 48.1 102.3 61.7 102.3 78.6C102.3 95.5 115.9 109.1 132.8 109.1C143.7 109.1 153.2 103.4 158.6 94.9C151.7 132 119.1 160.1 80 160.1C35.8 160.1 0 124.3 0 80.1C0 35.9 35.9 0 80 0Z"/>
    <path fill="#2FBE70" d="M82.4 160C43.5 153.4 13.8 120.1 13.8 80C13.8 39.9 43.4 6.7 82.4 0C119 1.1 149.4 26.7 157.8 61C152.3 53.2 143.2 48.1 132.9 48.1C116.1 48.1 102.4 61.7 102.4 78.6C102.4 95.5 116 109.1 132.9 109.1C143.8 109.1 153.3 103.4 158.7 94.9C151.9 131.2 120.5 158.9 82.4 160Z"/>
    <path fill="#33C172" d="M95.5 158.5C51.7 157.9 16.4 123 16.4 80C16.4 37 51.7 2.1 95.5 1.5C126.1 7.5 150.4 30.9 157.7 61C152.2 53.2 143.1 48.1 132.8 48.1C116 48.1 102.3 61.7 102.3 78.6C102.3 95.5 115.9 109.1 132.8 109.1C143.7 109.1 153.2 103.4 158.6 94.9C152.7 126.9 127.5 152.3 95.5 158.5Z"/>
    <path fill="#37C573" d="M96.7 4.2C100.4 4.2 104.1 4.5 107.7 5C132.4 14.1 151.4 35.1 157.7 61.1C152.2 53.3 143.1 48.2 132.8 48.2C116 48.2 102.3 61.8 102.3 78.7C102.3 95.6 115.9 109.2 132.8 109.2C143.7 109.2 153.2 103.5 158.6 95C153.4 122.9 133.7 145.6 107.7 155.3C104.1 155.8 100.4 156.1 96.7 156.1C53.9 156.1 19.2 122.1 19.2 80.3C19.2 38.5 53.9 4.2 96.7 4.2Z"/>
    <path fill="#3BC875" d="M96.7 6.9C104.5 6.9 112 8.1 119 10.2C138.1 20.9 152.4 39.2 157.7 61.1C152.2 53.3 143.1 48.2 132.8 48.2C116 48.2 102.3 61.8 102.3 78.7C102.3 95.6 115.9 109.2 132.8 109.2C143.7 109.2 153.2 103.5 158.6 95C154.2 118.7 139.3 138.7 119 150.1C111.9 152.3 104.4 153.4 96.7 153.4C55.3 153.4 21.8 120.6 21.8 80.2C21.8 39.8 55.3 6.9 96.7 6.9Z"/>
    <path fill="#3FCB77" d="M96.7 9.5C108.6 9.5 119.8 12.3 129.7 17.3C143.4 28.2 153.5 43.5 157.8 61C152.3 53.2 143.2 48.1 132.9 48.1C116.1 48.1 102.4 61.7 102.4 78.6C102.4 95.5 116 109.1 132.9 109.1C143.8 109.1 153.3 103.4 158.7 94.9C155.1 114.2 144.5 131.1 129.7 142.8C119.8 147.8 108.6 150.6 96.7 150.6C56.8 150.6 24.5 119 24.5 80.1C24.5 41.2 56.8 9.5 96.7 9.5Z"/>
    <path fill="#43CE78" d="M96.7 12.2C112.9 12.2 127.8 17.6 139.6 26.6C148.2 36.2 154.6 48 157.8 61C152.3 53.2 143.2 48.1 132.9 48.1C116.1 48.1 102.4 61.7 102.4 78.6C102.4 95.5 116 109.1 132.9 109.1C143.8 109.1 153.3 103.4 158.7 94.9C156 109.6 149.2 122.8 139.6 133.5C127.8 142.6 112.9 147.9 96.7 147.9C58.3 147.9 27.2 117.5 27.2 80C27.2 42.5 58.3 12.2 96.7 12.2Z"/>
    <path fill="#48D27A" d="M96.7 14.9C117.8 14.9 136.6 24.4 148.9 39.3C152.9 46 155.9 53.3 157.8 61.1C152.3 53.3 143.2 48.2 132.9 48.2C116.1 48.2 102.4 61.8 102.4 78.7C102.4 95.6 116 109.2 132.9 109.2C143.8 109.2 153.3 103.5 158.7 95C157 104.3 153.6 113.1 148.9 120.9C136.6 135.8 117.8 145.3 96.7 145.3C59.8 145.3 29.8 116.1 29.8 80.1C29.8 44.1 59.8 14.9 96.7 14.9Z"/>
    <path fill="#4CD57C" d="M96.7 17.5C124.8 17.5 148.7 35.1 157.4 59.6C157.5 60.1 157.6 60.5 157.8 61C152.3 53.2 143.2 48.1 132.9 48.1C116.1 48.1 102.4 61.7 102.4 78.6C102.4 95.5 116 109.1 132.9 109.1C143.8 109.1 153.3 103.4 158.7 94.9C158.3 96.8 157.9 98.7 157.4 100.5C148.7 125 124.8 142.6 96.7 142.6C61.2 142.6 32.5 114.6 32.5 80.1C32.5 45.6 61.2 17.5 96.7 17.5Z"/>
    <path fill="#50D87D" d="M96.7 20.2C121.8 20.2 143.3 34.8 152.9 55.7C147.5 51 140.5 48.2 132.9 48.2C116.1 48.2 102.4 61.8 102.4 78.7C102.4 95.6 116 109.2 132.9 109.2C141.5 109.2 149.3 105.6 154.8 99.9C146.4 123.3 123.6 140 96.7 140C62.7 140 35.1 113.2 35.1 80.1C35.1 47 62.7 20.2 96.7 20.2Z"/>
    <path fill="#54DB7F" d="M96.7 22.8C118.8 22.8 138.1 34.7 148.2 52.2C143.7 49.6 138.5 48.1 132.9 48.1C116.1 48.1 102.4 61.7 102.4 78.6C102.4 95.5 116 109.1 132.9 109.1C139.4 109.1 145.4 107.1 150.4 103.6C141.2 123.5 120.6 137.3 96.7 137.3C64.2 137.3 37.8 111.7 37.8 80.1C37.8 48.5 64.2 22.8 96.7 22.8Z"/>
    <path fill="#58DF80" d="M96.7 25.5C116.4 25.5 133.7 35.3 143.7 50.1C140.3 48.8 136.7 48.1 132.9 48.1C116.1 48.1 102.4 61.7 102.4 78.6C102.4 95.5 116 109.1 132.9 109.1C137.6 109.1 142.1 108 146.1 106.1C136.6 123.1 118 134.6 96.7 134.6C65.6 134.6 40.5 110.2 40.5 80.1C40.5 49.9 65.6 25.5 96.7 25.5Z"/>
    <path fill="#5CE281" d="M96.7 28.2C114.2 28.2 129.8 36.3 139.5 48.9C137.4 48.4 135.2 48.2 132.9 48.2C116.1 48.2 102.4 61.8 102.4 78.7C102.4 95.6 116 109.2 132.9 109.2C136.1 109.2 139.1 108.7 142 107.8C132.5 122.4 115.8 132 96.7 132C67.1 132 43.1 108.8 43.1 80.1C43.1 51.4 67.1 28.2 96.7 28.2Z"/>
    <path fill="#60E684" d="M96.7 30.8C112.3 30.8 126.2 37.6 135.6 48.2C134.7 48.1 133.8 48.1 132.9 48.1C116.1 48.1 102.4 61.7 102.4 78.6C102.4 95.5 116 109.1 132.9 109.1C134.7 109.1 136.4 108.9 138.1 108.7C128.9 121.2 113.8 129.3 96.7 129.3C68.6 129.3 45.8 107.3 45.8 80.1C45.8 52.9 68.6 30.8 96.7 30.8Z"/>
  </g>
</svg>
