<?xml version="1.0" encoding="utf-8"?>
<!-- Generator: Adobe Illustrator 26.4.1, SVG Export Plug-In . SVG Version: 6.00 Build 0)  -->
<svg version="1.1" xmlns="http://www.w3.org/2000/svg" xmlns:xlink="http://www.w3.org/1999/xlink" x="0px" y="0px"
	 viewBox="0 0 427.3 276.1" style="enable-background:new 0 0 427.3 276.1;" xml:space="preserve">
<style type="text/css">
	.st0{display:none;}
	.st1{display:inline;}
	.st2{fill:#D9EBFF;}
	.st3{fill:#314563;}
	.st4{fill:#4284D3;}
	.st5{fill:#2D70C1;}
	.st6{fill:#5547D6;}
	.st7{fill:#9C61DB;}
	.st8{fill:#7A1EBC;}
	.st9{fill:#6319B2;}
	.st10{fill:#6935BC;}
	.st11{fill:#533E7F;}
	.st12{fill:#67A2E8;}
	.st13{fill:#287EE5;}
	.st14{fill:#849FBF;}
	.st15{fill:#0B66D3;}
	.st16{fill:#461FB2;}
	.st17{fill:#055EC9;}
	.st18{fill:#50B0FF;}
	.st19{fill:#416EA3;}
	.st20{fill:#3CC48F;}
	.st21{fill:#AEFFDC;}
</style>
<g id="Layer_1" class="st0">
	<g class="st1">
		<polygon class="st2" points="1480.2,1205.6 1499.9,1173.4 1561.9,1156.9 1603.4,1198.5 1599.8,1230 1573.7,1243.6 1580.8,1259 
			1567.2,1259 1547.2,1232.5 1507.4,1231.4 		"/>
		<g>
			<path class="st3" d="M1605.7,1197.8c0-0.1-0.1-0.2-0.1-0.3c0-0.1,0-0.2-0.1-0.3c-0.1-0.1-0.1-0.3-0.2-0.4
				c-0.1-0.1-0.1-0.2-0.1-0.2l-41.7-41.5c0,0-0.1-0.1-0.1-0.1c0,0-0.1-0.1-0.1-0.1c0,0,0,0-0.1-0.1c0,0,0,0,0,0
				c-0.2-0.1-0.4-0.2-0.6-0.2c0,0-0.1,0-0.2,0c-0.1,0-0.3,0-0.4,0c-0.1,0-0.1,0-0.2,0c0,0,0,0,0,0c0,0-0.1,0-0.1,0c0,0,0,0-0.1,0
				l-62.6,16.2c-0.1,0-0.1,0.1-0.2,0.1c-0.1,0-0.2,0.1-0.3,0.1c0,0-0.1,0-0.1,0.1c0,0,0,0,0,0c-0.1,0-0.1,0.1-0.2,0.2
				c-0.1,0.1-0.2,0.2-0.2,0.2c0,0.1-0.1,0.1-0.1,0.1c0,0,0,0,0,0l-20.4,34.1c0,0.1-0.1,0.2-0.1,0.2c0,0.1-0.1,0.2-0.1,0.3
				c0,0.2,0,0.3-0.1,0.5c0,0.1,0,0.1,0,0.2c0,0,0,0,0,0.1c0,0.2,0.1,0.3,0.1,0.5c0,0.1,0,0.1,0.1,0.2c0.1,0.1,0.2,0.2,0.3,0.4
				c0.1,0.1,0.1,0.1,0.1,0.2c0,0,0,0,0,0l27.9,24.9c0.1,0.1,0.2,0.1,0.3,0.2c0.1,0,0.1,0.1,0.2,0.1c0,0,0,0,0,0
				c0.2,0.1,0.5,0.2,0.7,0.2l38.5,0.6l21.2,26.5c0,0.1,0.1,0.1,0.2,0.1c0.1,0.1,0.2,0.2,0.4,0.3c0.1,0.1,0.2,0.1,0.3,0.1
				c0.1,0,0.2,0.1,0.2,0.1c0.1,0,0.3,0,0.4,0h0h12c0,0,0,0,0,0c1.1,0,1.9-0.9,1.9-1.9c0-0.5-0.2-0.9-0.4-1.2l-7.5-13.9l13.8-7.2
				l13.1-5.6c0.1,0,0.2-0.1,0.3-0.2c0,0,0.1,0,0.1-0.1c0,0,0,0,0,0c0,0,0,0,0,0c0.2-0.1,0.3-0.3,0.4-0.4c0,0,0-0.1,0-0.1
				c0,0,0-0.1,0.1-0.1c0.1-0.1,0.1-0.2,0.1-0.3c0,0,0,0,0-0.1c0,0,0-0.1,0-0.1c0,0,0,0,0,0c0,0,0-0.1,0-0.1c0,0,0,0,0,0l3.5-31.9
				c0-0.1,0-0.1,0-0.2C1605.7,1197.9,1605.7,1197.9,1605.7,1197.8z M1567.1,1255.1l-14.2-17.8l16.4,7.4L1567.1,1255.1z
				 M1483.7,1208.3l33.3-3l-10.7,23.2L1483.7,1208.3z M1576.1,1197l-25.5-9.3l24.6-3.7L1576.1,1197z M1546.7,1184.4l15.3-24.3
				l11.8,20.2L1546.7,1184.4z M1520.5,1200.3l-16.2-23.9l34.7,11.2L1520.5,1200.3z M1542.6,1189.6l24,28.5l-42.8-15.6L1542.6,1189.6
				z M1567.6,1222.5l-20.5,7.5l-18.1-22.5L1567.6,1222.5z M1549,1191.2l26.9,9.9l-4,17.4L1549,1191.2z M1578.8,1181.7
				C1578.8,1181.7,1578.8,1181.6,1578.8,1181.7c0-0.1,0-0.1,0-0.1c0,0,0,0,0,0c0-0.1-0.1-0.2-0.1-0.3c0-0.1-0.1-0.2-0.1-0.3
				c0,0,0,0,0-0.1l0,0c0,0,0,0,0,0l-7.4-12.6l28.3,28.2l-19.5,1.4L1578.8,1181.7z M1542.1,1184.6l-36.2-11.7l52-13.3L1542.1,1184.6z
				 M1499.6,1176.2l17.1,25.3l-34.1,3.1L1499.6,1176.2z M1520.6,1206.7l21.8,23.6l-32.4-0.5L1520.6,1206.7z M1551.5,1232.4l19.4-7.1
				l-1.1,15.3L1551.5,1232.4z M1579.1,1204.3l16.4,22.3l-20.3-5.4L1579.1,1204.3z M1599,1224.8l-17.2-23.3l19.9-1.4L1599,1224.8z
				 M1576.9,1257.5h-6.4l1.8-8.5L1576.9,1257.5z M1586.3,1233.8l-12.6,6.5l1.1-15.3l19.7,5.3L1586.3,1233.8z"/>
		</g>
		<g>
			<path class="st3" d="M1644.8,1225.4c-4.1-2.2-7.2-5.4-9.3-9.5c-2.2-4.1-3.3-8.8-3.3-14.2c0-5.4,1.1-10.1,3.3-14.2
				c2.2-4.1,5.3-7.2,9.3-9.5c4.1-2.2,8.8-3.4,14.3-3.4c3.4,0,6.8,0.5,10,1.6c3.2,1,5.8,2.4,7.9,4.2l-4.3,9.7
				c-4.3-3-8.8-4.6-13.3-4.6c-4.3,0-7.6,1.3-9.8,4s-3.4,6.7-3.4,12c0,5.3,1.1,9.4,3.4,12.1s5.5,4.1,9.8,4.1c4.5,0,9-1.5,13.3-4.6
				l4.3,9.7c-2,1.7-4.7,3.1-7.9,4.2c-3.2,1-6.5,1.6-10,1.6C1653.6,1228.8,1648.9,1227.7,1644.8,1225.4z"/>
			<path class="st3" d="M1689.1,1226.4c-3.1-1.6-5.4-3.8-7.1-6.7c-1.7-2.9-2.5-6.3-2.5-10.2c0-3.9,0.8-7.3,2.5-10.1
				c1.7-2.9,4-5.1,7.1-6.6c3-1.5,6.6-2.3,10.7-2.3c4.1,0,7.6,0.8,10.7,2.3c3,1.5,5.4,3.8,7.1,6.6c1.7,2.9,2.5,6.2,2.5,10.1
				c0,3.9-0.8,7.3-2.5,10.2c-1.7,2.9-4,5.1-7.1,6.7c-3,1.6-6.6,2.4-10.7,2.4C1695.7,1228.7,1692.1,1227.9,1689.1,1226.4z
				 M1706.8,1209.5c0-6.2-2.4-9.3-7.1-9.3c-4.7,0-7.1,3.1-7.1,9.3c0,6.2,2.4,9.3,7.1,9.3C1704.4,1218.8,1706.8,1215.7,1706.8,1209.5
				z"/>
			<path class="st3" d="M1753.8,1201.3l-7.3,0.7c-2.9,0.3-4.9,1.1-6.1,2.3c-1.1,1.2-1.7,3-1.7,5.3v18.5h-13.3v-36.8h12.6v6.4
				c0.8-2.2,2.2-4,4.2-5.1c1.9-1.2,4.3-1.8,7.1-2l3.7-0.3L1753.8,1201.3z"/>
			<path class="st3" d="M1787.1,1194.4c2.8,2.7,4.1,6.8,4.1,12.4v21.2h-12.5v-5.2c-0.7,1.8-1.9,3.2-3.5,4.2c-1.6,1-3.6,1.5-5.9,1.5
				c-2.5,0-4.8-0.5-6.9-1.5s-3.7-2.4-4.8-4.3c-1.2-1.8-1.8-3.9-1.8-6.2c0-2.6,0.7-4.7,2.1-6.3c1.4-1.6,3.6-2.7,6.5-3.4
				c3-0.7,7-1,12.1-1h2v-0.9c0-1.8-0.4-3.1-1.3-3.8c-0.9-0.7-2.3-1.1-4.5-1.1c-1.7,0-3.7,0.3-5.9,1c-2.2,0.7-4.3,1.5-6.2,2.6
				l-3.4-8.7c2.1-1.3,4.8-2.4,8-3.3c3.2-0.9,6.2-1.3,8.9-1.3C1780.1,1190.4,1784.4,1191.8,1787.1,1194.4z M1776.9,1217.9
				c1.1-1.3,1.7-2.9,1.7-4.9v-0.9h-1.2c-3.2,0-5.5,0.3-6.8,0.9c-1.3,0.6-2,1.5-2,2.9c0,1.1,0.4,2.1,1.1,2.8c0.7,0.7,1.7,1.1,2.8,1.1
				C1774.3,1219.8,1775.8,1219.2,1776.9,1217.9z"/>
			<path class="st3" d="M1797.5,1228.1v-52.7h13.3v52.7H1797.5z"/>
			<path class="st3" d="M1825.9,1226.4c-3.1-1.6-5.4-3.8-7.1-6.7c-1.7-2.9-2.5-6.3-2.5-10.2c0-3.9,0.8-7.3,2.5-10.1
				c1.7-2.9,4-5.1,7.1-6.6c3-1.5,6.6-2.3,10.7-2.3c4.1,0,7.6,0.8,10.7,2.3c3,1.5,5.4,3.8,7.1,6.6c1.7,2.9,2.5,6.2,2.5,10.1
				c0,3.9-0.8,7.3-2.5,10.2c-1.7,2.9-4,5.1-7.1,6.7c-3,1.6-6.6,2.4-10.7,2.4C1832.5,1228.7,1828.9,1227.9,1825.9,1226.4z
				 M1843.6,1209.5c0-6.2-2.4-9.3-7.1-9.3c-4.7,0-7.1,3.1-7.1,9.3c0,6.2,2.4,9.3,7.1,9.3C1841.2,1218.8,1843.6,1215.7,1843.6,1209.5
				z"/>
			<path class="st3" d="M1902.5,1191.3v32.3c0,6.1-1.8,10.7-5.4,13.8c-3.6,3.1-9,4.7-16,4.7c-3.3,0-6.6-0.4-9.7-1.2
				c-3.1-0.8-5.9-1.9-8.1-3.3l3.4-9c2.3,1.2,4.7,2.1,7.1,2.8c2.5,0.6,4.8,1,7,1c2.9,0,5.1-0.6,6.5-1.9c1.4-1.3,2.1-3.3,2.1-6v-2.8
				c-1.1,1.6-2.7,3-4.7,3.9c-2,1-4.3,1.5-6.7,1.5c-3.2,0-6-0.7-8.5-2.2c-2.5-1.5-4.4-3.6-5.8-6.4c-1.4-2.8-2.1-6-2.1-9.6
				s0.7-6.9,2.1-9.6c1.4-2.8,3.3-4.9,5.8-6.5c2.5-1.5,5.3-2.3,8.5-2.3c2.4,0,4.7,0.5,6.7,1.5c2,1,3.6,2.4,4.7,4.1v-4.7H1902.5z
				 M1887.5,1214.9c1.3-1.5,1.9-3.5,1.9-6.1c0-2.6-0.6-4.7-1.9-6.2c-1.3-1.5-3.1-2.2-5.5-2.2c-2.3,0-4.1,0.7-5.4,2.2
				c-1.3,1.5-1.9,3.6-1.9,6.2c0,2.6,0.7,4.6,2,6.1c1.3,1.5,3.1,2.2,5.3,2.2C1884.4,1217.1,1886.2,1216.4,1887.5,1214.9z"/>
			<path class="st3" d="M1908.4,1173h13.9v12h-13.9V1173z M1908.7,1228.1v-36.8h13.3v36.8H1908.7z"/>
			<path class="st3" d="M1955.8,1209.1l15.6,19h-15.5l-7.7-9.7l-7.7,9.7H1925l15.6-19l-14.7-17.8h15.6l6.7,8.7l6.7-8.7h15.6
				L1955.8,1209.1z"/>
		</g>
	</g>
</g>
<g id="Layer_2" class="st0">
	<g class="st1">
		<path class="st3" d="M1634.8,1225.4c-4.1-2.2-7.2-5.4-9.3-9.5c-2.2-4.1-3.3-8.8-3.3-14.2c0-5.4,1.1-10.1,3.3-14.2
			c2.2-4.1,5.3-7.2,9.3-9.5c4.1-2.2,8.8-3.4,14.3-3.4c3.4,0,6.8,0.5,10,1.6c3.2,1,5.8,2.4,7.9,4.2l-4.3,9.7c-4.3-3-8.8-4.6-13.3-4.6
			c-4.3,0-7.6,1.3-9.8,4s-3.4,6.7-3.4,12c0,5.3,1.1,9.4,3.4,12.1s5.5,4.1,9.8,4.1c4.5,0,9-1.5,13.3-4.6l4.3,9.7
			c-2,1.7-4.7,3.1-7.9,4.2c-3.2,1-6.5,1.6-10,1.6C1643.6,1228.8,1638.9,1227.7,1634.8,1225.4z"/>
		<path class="st3" d="M1679.1,1226.4c-3.1-1.6-5.4-3.8-7.1-6.7c-1.7-2.9-2.5-6.3-2.5-10.2c0-3.9,0.8-7.3,2.5-10.1
			c1.7-2.9,4-5.1,7.1-6.6c3-1.5,6.6-2.3,10.7-2.3c4.1,0,7.6,0.8,10.7,2.3c3,1.5,5.4,3.8,7.1,6.6c1.7,2.9,2.5,6.2,2.5,10.1
			c0,3.9-0.8,7.3-2.5,10.2c-1.7,2.9-4,5.1-7.1,6.7c-3,1.6-6.6,2.4-10.7,2.4C1685.7,1228.7,1682.1,1227.9,1679.1,1226.4z
			 M1696.8,1209.5c0-6.2-2.4-9.3-7.1-9.3c-4.7,0-7.1,3.1-7.1,9.3c0,6.2,2.4,9.3,7.1,9.3C1694.4,1218.8,1696.8,1215.7,1696.8,1209.5z
			"/>
		<path class="st3" d="M1743.8,1201.3l-7.3,0.7c-2.9,0.3-4.9,1.1-6.1,2.3c-1.1,1.2-1.7,3-1.7,5.3v18.5h-13.3v-36.8h12.6v6.4
			c0.8-2.2,2.2-4,4.2-5.1c1.9-1.2,4.3-1.8,7.1-2l3.7-0.3L1743.8,1201.3z"/>
		<path class="st3" d="M1777.1,1194.4c2.8,2.7,4.1,6.8,4.1,12.4v21.2h-12.5v-5.2c-0.7,1.8-1.9,3.2-3.5,4.2c-1.6,1-3.6,1.5-5.9,1.5
			c-2.5,0-4.8-0.5-6.9-1.5s-3.7-2.4-4.8-4.3c-1.2-1.8-1.8-3.9-1.8-6.2c0-2.6,0.7-4.7,2.1-6.3c1.4-1.6,3.6-2.7,6.5-3.4
			c3-0.7,7-1,12.1-1h2v-0.9c0-1.8-0.4-3.1-1.3-3.8c-0.9-0.7-2.3-1.1-4.5-1.1c-1.7,0-3.7,0.3-5.9,1c-2.2,0.7-4.3,1.5-6.2,2.6
			l-3.4-8.7c2.1-1.3,4.8-2.4,8-3.3c3.2-0.9,6.2-1.3,8.9-1.3C1770.1,1190.4,1774.4,1191.8,1777.1,1194.4z M1766.9,1217.9
			c1.1-1.3,1.7-2.9,1.7-4.9v-0.9h-1.2c-3.2,0-5.5,0.3-6.8,0.9c-1.3,0.6-2,1.5-2,2.9c0,1.1,0.4,2.1,1.1,2.8c0.7,0.7,1.7,1.1,2.8,1.1
			C1764.3,1219.8,1765.8,1219.2,1766.9,1217.9z"/>
		<path class="st3" d="M1787.5,1228.1v-52.7h13.3v52.7H1787.5z"/>
		<path class="st3" d="M1815.9,1226.4c-3.1-1.6-5.4-3.8-7.1-6.7c-1.7-2.9-2.5-6.3-2.5-10.2c0-3.9,0.8-7.3,2.5-10.1
			c1.7-2.9,4-5.1,7.1-6.6c3-1.5,6.6-2.3,10.7-2.3c4.1,0,7.6,0.8,10.7,2.3c3,1.5,5.4,3.8,7.1,6.6c1.7,2.9,2.5,6.2,2.5,10.1
			c0,3.9-0.8,7.3-2.5,10.2c-1.7,2.9-4,5.1-7.1,6.7c-3,1.6-6.6,2.4-10.7,2.4C1822.5,1228.7,1818.9,1227.9,1815.9,1226.4z
			 M1833.6,1209.5c0-6.2-2.4-9.3-7.1-9.3c-4.7,0-7.1,3.1-7.1,9.3c0,6.2,2.4,9.3,7.1,9.3C1831.2,1218.8,1833.6,1215.7,1833.6,1209.5z
			"/>
		<path class="st3" d="M1892.5,1191.3v32.3c0,6.1-1.8,10.7-5.4,13.8c-3.6,3.1-9,4.7-16,4.7c-3.3,0-6.6-0.4-9.7-1.2
			c-3.1-0.8-5.9-1.9-8.1-3.3l3.4-9c2.3,1.2,4.7,2.1,7.1,2.8c2.5,0.6,4.8,1,7,1c2.9,0,5.1-0.6,6.5-1.9c1.4-1.3,2.1-3.3,2.1-6v-2.8
			c-1.1,1.6-2.7,3-4.7,3.9c-2,1-4.3,1.5-6.7,1.5c-3.2,0-6-0.7-8.5-2.2c-2.5-1.5-4.4-3.6-5.8-6.4c-1.4-2.8-2.1-6-2.1-9.6
			s0.7-6.9,2.1-9.6c1.4-2.8,3.3-4.9,5.8-6.5c2.5-1.5,5.3-2.3,8.5-2.3c2.4,0,4.7,0.5,6.7,1.5c2,1,3.6,2.4,4.7,4.1v-4.7H1892.5z
			 M1877.5,1214.9c1.3-1.5,1.9-3.5,1.9-6.1c0-2.6-0.6-4.7-1.9-6.2c-1.3-1.5-3.1-2.2-5.5-2.2c-2.3,0-4.1,0.7-5.4,2.2
			c-1.3,1.5-1.9,3.6-1.9,6.2c0,2.6,0.7,4.6,2,6.1c1.3,1.5,3.1,2.2,5.3,2.2C1874.4,1217.1,1876.2,1216.4,1877.5,1214.9z"/>
		<path class="st3" d="M1898.4,1173h13.9v12h-13.9V1173z M1898.7,1228.1v-36.8h13.3v36.8H1898.7z"/>
		<path class="st3" d="M1945.8,1209.1l15.6,19h-15.5l-7.7-9.7l-7.7,9.7H1915l15.6-19l-14.7-17.8h15.6l6.7,8.7l6.7-8.7h15.6
			L1945.8,1209.1z"/>
	</g>
	<g class="st1">
		<polygon class="st4" points="1579.9,1197.7 1578.7,1181 1571,1168 1599.3,1196.2 		"/>
		<polygon class="st5" points="1581.7,1201.5 1598.9,1224.8 1601.8,1200.1 		"/>
		<polygon class="st6" points="1575.3,1221.1 1579,1204.2 1595.5,1226.6 		"/>
		<polygon class="st7" points="1574.7,1225 1594.3,1230.3 1573.6,1240.3 		"/>
		<polygon class="st8" points="1569.8,1240.7 1570.8,1225.4 1551.5,1232.4 		"/>
		<polygon class="st9" points="1553,1237.3 1567.1,1255.1 1569.3,1244.7 		"/>
		<polygon class="st10" points="1570.5,1257.5 1572.3,1249 1576.9,1257.6 		"/>
		<polygon class="st11" points="1546.9,1229.9 1528.8,1207.4 1567.5,1222.4 		"/>
		<polygon class="st12" points="1571.9,1218.3 1548.8,1191.1 1575.8,1200.9 		"/>
		<polygon class="st13" points="1550.8,1187.7 1575.2,1183.9 1576,1197.2 		"/>
		<polygon class="st14" points="1524.1,1202.4 1542.5,1189.6 1566.7,1218.1 		"/>
		<polygon class="st15" points="1510,1229.6 1520.5,1206.7 1542.4,1230.3 		"/>
		<polygon class="st16" points="1506.4,1228.4 1483.5,1208.2 1517,1205.1 		"/>
		<polygon class="st17" points="1482.6,1204.4 1499.8,1175.9 1516.9,1201.5 		"/>
		<polygon class="st18" points="1504.1,1176.2 1520.5,1200.4 1539.1,1187.6 		"/>
		<polygon class="st6" points="1505.9,1172.9 1558.1,1159.2 1542,1184.7 		"/>
		<polygon class="st19" points="1546.8,1184.4 1562,1160.1 1573.8,1180.2 		"/>
	</g>
</g>
<g id="Layer_2_copy">
	<g>
		<g>
			<path class="st20" d="M15.9,255c-5.1-2.8-9-6.8-11.8-12C1.4,237.9,0,231.9,0,225.1c0-6.8,1.4-12.7,4.1-17.8
				c2.7-5.1,6.7-9.1,11.8-11.9c5.1-2.8,11.1-4.2,18-4.2c4.3,0,8.5,0.7,12.6,2c4.1,1.3,7.4,3.1,9.9,5.3L51,210.6
				c-5.5-3.8-11.1-5.7-16.8-5.7c-5.4,0-9.5,1.7-12.4,5.1c-2.9,3.4-4.3,8.4-4.3,15.2c0,6.7,1.4,11.8,4.3,15.2s7,5.1,12.4,5.1
				c5.7,0,11.3-1.9,16.8-5.7l5.4,12.2c-2.6,2.2-5.9,4-9.9,5.3c-4.1,1.3-8.2,2-12.6,2C27,259.2,21,257.8,15.9,255z"/>
			<path class="st20" d="M71.6,256.2c-3.9-2-6.8-4.8-8.9-8.4c-2.1-3.6-3.2-7.9-3.2-12.8c0-4.9,1.1-9.2,3.2-12.8
				c2.1-3.6,5.1-6.4,8.9-8.3c3.8-1.9,8.3-2.9,13.5-2.9c5.1,0,9.6,1,13.5,2.9c3.8,1.9,6.8,4.7,8.9,8.3c2.1,3.6,3.2,7.9,3.2,12.8
				c0,4.9-1.1,9.2-3.2,12.8c-2.1,3.6-5.1,6.5-8.9,8.4c-3.8,2-8.3,3-13.5,3C79.9,259.1,75.5,258.2,71.6,256.2z M94,234.9
				c0-7.8-3-11.7-8.9-11.7c-6,0-8.9,3.9-8.9,11.7c0,7.8,3,11.7,8.9,11.7C91,246.6,94,242.7,94,234.9z"/>
			<path class="st20" d="M153.1,224.6l-9.1,0.9c-3.6,0.4-6.2,1.4-7.6,2.9c-1.4,1.6-2.2,3.8-2.2,6.7v23.3h-16.8v-46.3h15.9v8
				c1.1-2.8,2.8-5,5.3-6.5c2.4-1.5,5.4-2.3,8.9-2.5l4.6-0.4L153.1,224.6z"/>
			<path class="st20" d="M195.2,216c3.5,3.4,5.2,8.6,5.2,15.7v26.7h-15.7v-6.5c-0.9,2.3-2.4,4-4.4,5.3c-2.1,1.3-4.6,1.9-7.4,1.9
				c-3.2,0-6.1-0.6-8.7-1.9c-2.6-1.3-4.6-3.1-6.1-5.4c-1.5-2.3-2.2-4.9-2.2-7.8c0-3.3,0.9-6,2.6-8c1.7-2,4.5-3.4,8.2-4.3
				c3.8-0.9,8.9-1.3,15.3-1.3h2.5v-1.1c0-2.3-0.5-3.9-1.6-4.8c-1.1-0.9-3-1.4-5.7-1.4c-2.1,0-4.6,0.4-7.4,1.3
				c-2.8,0.8-5.4,1.9-7.9,3.2l-4.2-11c2.7-1.6,6.1-3,10.1-4.1c4.1-1.1,7.8-1.6,11.2-1.6C186.3,210.9,191.7,212.6,195.2,216z
				 M182.3,245.5c1.4-1.6,2.2-3.7,2.2-6.2v-1.1H183c-4,0-6.9,0.4-8.6,1.1c-1.7,0.7-2.5,1.9-2.5,3.6c0,1.4,0.5,2.6,1.4,3.6
				c0.9,0.9,2.1,1.4,3.5,1.4C179,247.9,180.9,247.1,182.3,245.5z"/>
			<path class="st20" d="M208.2,258.4V192H225v66.4H208.2z"/>
			<path class="st20" d="M243.9,256.2c-3.9-2-6.8-4.8-8.9-8.4c-2.1-3.6-3.2-7.9-3.2-12.8c0-4.9,1.1-9.2,3.2-12.8
				c2.1-3.6,5.1-6.4,8.9-8.3c3.8-1.9,8.3-2.9,13.5-2.9c5.1,0,9.6,1,13.5,2.9c3.8,1.9,6.8,4.7,8.9,8.3c2.1,3.6,3.2,7.9,3.2,12.8
				c0,4.9-1.1,9.2-3.2,12.8c-2.1,3.6-5.1,6.5-8.9,8.4c-3.8,2-8.3,3-13.5,3C252.3,259.1,247.8,258.2,243.9,256.2z M266.3,234.9
				c0-7.8-3-11.7-8.9-11.7c-6,0-8.9,3.9-8.9,11.7c0,7.8,3,11.7,8.9,11.7C263.3,246.6,266.3,242.7,266.3,234.9z"/>
			<path class="st20" d="M340.5,212.1v40.7c0,7.7-2.3,13.5-6.8,17.4c-4.6,4-11.3,5.9-20.2,5.9c-4.2,0-8.3-0.5-12.2-1.5
				c-4-1-7.4-2.3-10.3-4.1l4.2-11.4c2.9,1.5,5.9,2.7,9,3.5c3.1,0.8,6,1.2,8.8,1.2c3.7,0,6.5-0.8,8.2-2.4c1.8-1.6,2.7-4.1,2.7-7.6
				v-3.6c-1.4,2.1-3.4,3.7-5.9,4.9c-2.6,1.2-5.4,1.8-8.4,1.8c-4,0-7.6-0.9-10.7-2.8c-3.1-1.9-5.6-4.6-7.3-8.1
				c-1.8-3.5-2.6-7.5-2.6-12.1c0-4.6,0.9-8.6,2.6-12.1c1.8-3.5,4.2-6.2,7.3-8.1c3.1-1.9,6.7-2.9,10.7-2.9c3.1,0,5.9,0.6,8.5,1.9
				c2.6,1.3,4.6,3,5.9,5.2v-5.9H340.5z M321.6,241.8c1.6-1.9,2.4-4.4,2.4-7.7c0-3.3-0.8-5.9-2.4-7.8c-1.6-1.9-3.9-2.8-6.9-2.8
				c-2.9,0-5.1,0.9-6.8,2.8c-1.6,1.9-2.4,4.5-2.4,7.9c0,3.3,0.8,5.8,2.5,7.7c1.7,1.9,3.9,2.8,6.7,2.8
				C317.7,244.5,320,243.6,321.6,241.8z"/>
			<path class="st20" d="M348,188.9h17.5v15.2H348V188.9z M348.3,258.4v-46.3h16.8v46.3H348.3z"/>
			<path class="st20" d="M407.7,234.5l19.7,23.9h-19.6l-9.7-12.2l-9.7,12.2h-19.5l19.7-23.9L370,212.1h19.7L398,223l8.5-10.9h19.7
				L407.7,234.5z"/>
		</g>
		<g>
			<circle class="st20" cx="213.7" cy="69.6" r="62.6"/>
			<path class="st21" d="M213.7,139.1c-38.4,0-69.6-31.2-69.6-69.6c0-38.4,31.2-69.6,69.6-69.6s69.6,31.2,69.6,69.6
				C283.2,107.9,252,139.1,213.7,139.1z M213.7,13.8c-30.7,0-55.7,25-55.7,55.7c0,30.7,25,55.7,55.7,55.7s55.7-25,55.7-55.7
				C269.4,38.8,244.4,13.8,213.7,13.8z"/>
		</g>
	</g>
</g>
</svg>
