<svg width="2048px" height="2048px" viewBox="0 0 2048 2048" xmlns="http://www.w3.org/2000/svg">
	<title>Dynatrace</title>
	<g>
		<path fill="#1496FF" d="M697,171.6c-25.7,139.2-59.1,344.9-76.4,553.5c-30.6,368.5-11.7,615.3-11.7,615.3L90.6,1833.7c0,0-40-276.8-60.2-588c-12.4-191.9-16.1-362.4-17-464.9c-0.1-6.1,3-11.9,3-17.6c0-6.6,8.7-75.7,76.1-139.6C166.4,553.3,704.6,130.8,697,171.6z"/>
		<path fill="#1284EA" d="M697,171.6c-25.7,139.2-59.1,344.9-76.4,553.5c0,0-574-68.5-607,69.8c0-6.7,9.6-91.7,77-155.6C164.4,569.1,704.6,130.8,697,171.6z"/>
		<path fill="#B4DC00" d="M13.3,763c0.1,9.8,0.2,20.5,0.3,31.9c6.1-25.3,15.6-42.9,36.6-69.5c42.6-54.1,111.5-68.2,139.1-71.9c140.3-18.4,347.5-41,556.7-47.5c369.6-11.4,614,19.3,614,19.3l518.2-493.3c0,0-272-51.9-581.8-88.3c-202.4-23.8-381.3-36.4-481-42.2c-6.7-0.4-78.5-9.2-145.8,54.8c-74,70.1-444.9,422.2-594,563.8C8.2,684.3,13.2,756.4,13.3,763z"/>
		<path fill="#6F2DA8" d="M1859,1392.7c-140.3,18.8-347.3,42.1-556.6,49.1c-369.6,12.3-615.1-18.7-615.1-18.7l-518.2,493.3c0,0,274.5,53.6,584.4,89.1c189.3,21.7,358,33.7,460.7,39.8c7.1,0.4,19.3-5.9,25.8-5.5c6.7,0.3,79-12.9,146.2-77.1C1460,1892.3,1900.2,1387.2,1859,1392.7z"/>
		<path fill="#591F91" d="M1859,1392.7c-140.3,18.8-347.3,42.1-556.6,49.1c0,0,40.1,576.6-99.7,602.8c6.7,0.4,101.7-4.6,169-68.7C1445.5,1905.5,1900.2,1387.2,1859,1392.7z"/>
		<path fill="#73BE28" d="M1234.6,2046.4c-9.8-0.6-20.5-1.2-31.9-1.9c25.6-4.8,43.7-13.4,71.2-33c56.1-40,73.7-108,78.6-135.5c25.3-139.2,58.1-345,74.9-553.7c29.6-368.6,11-614.3,11-614.3l518.2-493.3c0,0,38.4,274.2,59.5,585.5c13.7,203.4,17.5,382.7,18.4,482.5c0,6.7,5.3,78.8-62,142.9c-73.7,70.5-443.7,423.6-592.4,565.5C1313.1,2055.4,1241.3,2046.8,1234.6,2046.4z"/>
	</g>
</svg>
