<svg xmlns="http://www.w3.org/2000/svg" xmlns:xlink="http://www.w3.org/1999/xlink" viewBox="0 0 81 65" fill="#fff" fill-rule="evenodd" stroke="#000" stroke-linecap="round" stroke-linejoin="round"><use xlink:href="#A" x=".5" y=".5"/><symbol id="A" overflow="visible"><g stroke="none" fill-rule="nonzero"><path d="M0 0h80v28H0z" fill="#aecbfa"/><path d="M72 0h8v28h-8z" fill="#669df6"/><path d="M80 0h-8v28l8-28z" fill="#4285f4"/><path d="M0 0h8v28H0z" fill="#669df6"/><path d="M16 12h24v4H16z"/><use xlink:href="#C"/><path d="M0 36h80v28H0z" fill="#aecbfa"/><path d="M72 36h8v28h-8z" fill="#669df6"/><path d="M80 36h-8v28l8-28z" fill="#4285f4"/><path d="M0 36h8v28H0z" fill="#669df6"/><path d="M16 48h24v4H16z"/><use xlink:href="#C" y="36"/></g></symbol><defs ><path id="C" d="M52 14c0-3.324 2.676-6 6-6h0c3.324 0 6 2.676 6 6h0c0 3.324-2.676 6-6 6h0c-3.324 0-6-2.676-6-6z"/></defs></svg>