<svg xmlns="http://www.w3.org/2000/svg" width="264" height="41" viewBox="0 0 264 41" fill="#ffffff">
  <title>Groundcover</title>
  <g>
    <path d="M12.3899 12.7148C16.0627 12.7148 17.8467 14.2351 17.8467 16.8038C17.8467 19.3202 16.3251 20.8404 12.4423 20.8404C8.55961 20.8404 7.14293 19.2677 7.14293 16.8038C7.14293 14.3399 8.61208 12.7148 12.3899 12.7148ZM12.8096 36.3577C6.5133 36.3577 5.04415 35.6762 5.04415 33.789C5.04415 32.5833 6.19848 31.3775 8.76949 31.3775H18.214C20.2603 31.3775 20.9424 32.3211 20.9424 33.422C20.9424 35.4141 19.5257 36.3577 12.8096 36.3577ZM12.9146 40.5516C22.2541 40.604 25.4548 38.0353 25.4548 33.422C25.4548 29.5951 23.2511 27.2885 18.0041 27.2885C15.2757 27.2885 12.1275 27.4458 9.18924 27.4458C7.7201 27.4458 7.03799 27.0788 7.03799 26.1352C7.03799 25.7158 7.30034 25.4013 7.61516 24.877L8.13985 24.0383C9.39912 24.4052 10.8158 24.5625 12.3899 24.5625C19.106 24.5625 22.7264 22.3083 22.7264 17.9572C22.7264 14.6545 20.4177 13.3439 17.3745 12.7672V12.7148C19.106 12.8197 20.3128 12.8197 21.5196 12.8197H24.7202V8.04915H12.6522C5.9886 8.04915 2.05339 11.0897 2.05339 16.4893C2.05339 20.1589 4.04723 22.7801 7.7201 23.9334L5.8312 24.7722C3.83736 25.4537 2.7355 26.7643 2.7355 28.0224C2.7355 29.8572 4.0997 31.0106 6.5133 31.3251C2.68303 31.7969 0.636719 33.422 0.636719 35.519C0.636719 38.6119 3.31266 40.604 12.9146 40.5516Z" />
    <path d="M32.8411 32.6881V20.2114C32.8411 15.9126 34.5726 14.3924 38.98 14.3924H41.3936V8.04915H39.9769C36.2516 8.04915 34.0479 9.72669 32.946 16.1223H32.8411V8.04915H27.1744V32.6881H32.8411Z" />
    <path d="M54.497 33.3696C62.315 33.3696 67.0897 28.3894 67.0897 20.3162C67.0897 12.1906 62.0526 7.42007 54.497 7.42007C46.889 7.42007 41.8519 12.1906 41.8519 20.3162C41.8519 28.3894 46.5741 33.3696 54.497 33.3696ZM54.497 12.5576C58.852 12.5576 61.4755 15.5457 61.4755 20.2638C61.4755 25.0343 58.9569 28.1797 54.4446 28.1797C49.9847 28.1797 47.5186 25.0343 47.5186 20.2638C47.5186 15.5457 50.0896 12.5576 54.497 12.5576Z" />
    <path d="M85.9726 32.6881H91.6393V8.04915H85.9726V22.6228C85.9726 26.1352 83.7688 28.2321 80.1485 28.2321C76.3182 28.2321 75.0064 25.611 75.0064 22.6228V8.04915H69.3397V24.1431C69.3397 29.4379 71.5959 33.3696 77.525 33.3696C81.6701 33.3696 84.8182 31.2203 85.9201 25.9255H85.9726V32.6881Z" />
    <path d="M100.99 18.1144C100.99 14.6021 103.194 12.5051 106.814 12.5051C110.644 12.5051 111.956 15.1263 111.956 18.1144V32.6881H117.623V16.6466C117.623 11.2994 115.367 7.42007 109.437 7.42007C105.292 7.42007 102.144 9.56942 101.042 14.8118H100.99V8.04915H95.3232V32.6881H100.99V18.1144Z" />
    <path d="M131.905 28.2321C127.498 28.2321 125.504 25.4013 125.504 20.4735C125.504 15.3884 127.603 12.4527 131.905 12.4527C135.946 12.4527 138.464 15.4933 138.464 20.2114V20.6307C138.464 25.5061 135.946 28.2321 131.905 28.2321ZM138.464 32.6881H144.131V0.552612H138.464V15.1263H138.412C137.31 10.0412 134.529 7.36764 129.597 7.42007C123.405 7.36764 119.89 12.2954 119.89 20.4735C119.89 28.4418 123.196 33.3696 129.597 33.3696C134.372 33.3696 137.257 30.696 138.359 25.7158H138.464V32.6881Z" />
    <path d="M165.632 18.3241L171.089 17.4329C170.092 11.0897 166.682 7.42007 159.283 7.42007C151.78 7.42007 146.586 12.243 146.586 20.421C146.586 28.8088 151.675 33.3696 159.441 33.3696C166.577 33.3696 170.145 29.4379 171.142 23.1471L165.737 22.0462C164.95 25.5585 163.481 28.1797 159.336 28.1797C155.138 28.1797 152.357 25.4013 152.357 20.3686C152.357 15.0739 155.191 12.5576 159.231 12.5576C163.061 12.5576 164.898 14.8642 165.632 18.3241Z" />
    <path d="M185.107 33.3696C192.925 33.3696 197.7 28.3894 197.7 20.3162C197.7 12.1906 192.663 7.42007 185.107 7.42007C177.499 7.42007 172.462 12.1906 172.462 20.3162C172.462 28.3894 177.184 33.3696 185.107 33.3696ZM185.107 12.5576C189.462 12.5576 192.085 15.5457 192.085 20.2638C192.085 25.0343 189.567 28.1797 185.055 28.1797C180.595 28.1797 178.129 25.0343 178.129 20.2638C178.129 15.5457 180.7 12.5576 185.107 12.5576Z" />
    <path d="M213.539 32.6881L223.194 8.04915H217.265L213.854 17.5902C212.7 20.8929 211.493 24.4052 210.391 27.5506H210.286C209.237 24.4052 207.978 20.8929 206.823 17.5902L203.465 8.04915H197.326L207.086 32.6881H213.539Z" />
    <path d="M235.163 12.1906C239.046 12.1906 241.04 14.1827 241.355 18.0096H228.447C229.077 14.0254 231.438 12.1906 235.163 12.1906ZM235.321 33.3172C241.827 33.3172 245.185 30.0669 246.444 25.3488L241.512 23.9334C240.778 26.4497 239.308 28.3894 235.373 28.3894C231.333 28.3894 228.919 26.3449 228.395 22.2034H246.497C246.602 20.8929 246.602 19.8968 246.602 18.9008C246.602 12.1382 242.824 7.42007 235.321 7.42007C227.66 7.42007 222.728 12.3479 222.728 20.6832C222.728 28.8088 227.765 33.3172 235.321 33.3172Z" />
    <path d="M254.811 32.6881V20.2114C254.811 15.9126 256.543 14.3924 260.95 14.3924H263.364V8.04915H261.947C258.222 8.04915 256.018 9.72669 254.916 16.1223H254.811V8.04915H249.145V32.6881H254.811Z" />
  </g>
</svg>