<svg xmlns="http://www.w3.org/2000/svg" width="41" height="41" viewBox="-6 3 41 41" fill="#ffffff">
  <title>Groundcover</title>
  <g>
    <path d="M12.3899 12.7148C16.0627 12.7148 17.8467 14.2351 17.8467 16.8038C17.8467 19.3202 16.3251 20.8404 12.4423 20.8404C8.55961 20.8404 7.14293 19.2677 7.14293 16.8038C7.14293 14.3399 8.61208 12.7148 12.3899 12.7148ZM12.8096 36.3577C6.5133 36.3577 5.04415 35.6762 5.04415 33.789C5.04415 32.5833 6.19848 31.3775 8.76949 31.3775H18.214C20.2603 31.3775 20.9424 32.3211 20.9424 33.422C20.9424 35.4141 19.5257 36.3577 12.8096 36.3577ZM12.9146 40.5516C22.2541 40.604 25.4548 38.0353 25.4548 33.422C25.4548 29.5951 23.2511 27.2885 18.0041 27.2885C15.2757 27.2885 12.1275 27.4458 9.18924 27.4458C7.7201 27.4458 7.03799 27.0788 7.03799 26.1352C7.03799 25.7158 7.30034 25.4013 7.61516 24.877L8.13985 24.0383C9.39912 24.4052 10.8158 24.5625 12.3899 24.5625C19.106 24.5625 22.7264 22.3083 22.7264 17.9572C22.7264 14.6545 20.4177 13.3439 17.3745 12.7672V12.7148C19.106 12.8197 20.3128 12.8197 21.5196 12.8197H24.7202V8.04915H12.6522C5.9886 8.04915 2.05339 11.0897 2.05339 16.4893C2.05339 20.1589 4.04723 22.7801 7.7201 23.9334L5.8312 24.7722C3.83736 25.4537 2.7355 26.7643 2.7355 28.0224C2.7355 29.8572 4.0997 31.0106 6.5133 31.3251C2.68303 31.7969 0.636719 33.422 0.636719 35.519C0.636719 38.6119 3.31266 40.604 12.9146 40.5516Z"/>
  </g>
</svg>