<svg viewBox="0 0 276.555 280" xmlns="http://www.w3.org/2000/svg">
  <title>Instana</title>
  <g>
    <path fill="#0eb3b3"
      d="M86.035 280c-1.932-10.487-7.096-19.311-1.025-29.72 1.366-2.34 3.237-4.235 5.124-6.148 1.655-1.679 3.856-4.84 6.149-5.637 3.61-1.254 4.586 3.54 6.49 5.295 1.622 1.494 4.755 1.646 6.832 2.05 12.966 2.52 26.753 1.366 39.968 1.366 6.613 0 16.556.697 22.546-2.562 3.502-1.906 4.016-8.477 9.223-5.295 7.51 4.59 14.193 15.294 13.322 24.254-.568 5.85-3.145 11.025-5.124 16.397 8.989-2.365 17.427-9.739 25.62-14.177 9.664-5.234 19.003-11.146 28.695-16.396 11.53-6.246 23.209-13.02 28.353-25.791 4.218-10.473 3.416-21.712 3.416-32.794v-49.19c0-20.747 4.215-46.569-5.295-65.589-6.167-12.334-20.137-18.558-31.598-24.766-20.462-11.083-39.9-23.99-60.464-34.843-10.276-5.424-20.793-15.06-32.793-16.226-25.739-2.503-45.204 16.2-66.613 27.499-13.902 7.337-27.055 16.215-40.992 23.57-10.075 5.317-22.63 10.951-29.378 20.667C-3.992 89.94.976 117.73.976 138.577v53.29c0 9.71-1.313 20.523 2.391 29.719 8.464 21.014 32.57 29.618 50.899 40.31 10.273 5.992 20.762 13.76 31.769 18.104m42.017-226.312c23.396-3.574 50.919 4.064 70.712 15.885 6.256 3.736 15.273 8.792 18.446 15.714 2.62 5.718 2.05 12.332 2.05 18.446v28.695c0 24.045 7.81 65.717-21.521 75.494-3.241 1.08-6.84 2.06-10.248 2.391-8.694.845-17.905 0-26.645 0H106.53c-13.601 0-27.824.869-38.943-8.54C53.175 189.578 57.34 164.456 57.34 147.8v-40.992c0-6.5-1.256-14.406 1.367-20.496 2.938-6.825 10.116-11.072 16.055-15.031 16.16-10.773 34.388-14.705 53.29-17.593m-78.91 43.896v63.538c0 13.748-.717 28.114 7.515 39.968 6.926 9.973 19.525 16.264 31.427 17.422 18.726 1.82 38.563 0 57.39 0 14.205 0 30.044 1.971 44.066-.171 11.396-1.741 22.235-6.876 29.378-16.226 8.784-11.5 8.54-26.222 8.54-39.968V97.584h1.025c8.483 12.4 8.85 26.605 10.248 40.993 2.95 30.35.787 73.658-29.72 90.183-7.651 4.144-15.33 3.298-23.57 4.099-19.25 1.871-38.979 1.025-58.414 1.025-12.039 0-23.975.131-35.868-1.025-10.918-1.062-20.229-.793-29.72-7.515-6.756-4.786-10.957-12.01-14.518-19.13-10.91-21.82-11.376-46.806-9.052-70.712 1.073-11.035.722-31.286 11.273-37.918m36.893 69.175c-11.847 5.923-6.001 31.616 8.198 25.108 6.522-2.99 9.317-11.853 6.661-18.447-2.229-5.534-8.99-9.596-14.86-6.661m95.308 0c-11.848 5.924-6.21 31.196 8.198 25.108 13.625-5.757 6.546-32.48-8.198-25.108z" />
  </g>
</svg>