<svg width="28" height="28" viewBox="0 0 28 28" fill="none" xmlns="http://www.w3.org/2000/svg" >
  <title>KloudMate</title>
  <g>
    <rect fill="#f47715" width="28" height="28" rx="6" />
    <path fill="#ffffff" d="M12.982 19.983a6.24 6.24 0 0 1-3.516-1.084 6.463 6.463 0 0 1-1.488-1.404 6.533 6.533 0 0 1-1.333-4.29 6.513 6.513 0 0 1 1.743-4.134 6.266 6.266 0 0 1 8.25-.827l.49-2.125a8.253 8.253 0 0 0-5.626-.986 8.345 8.345 0 0 0-4.94 2.91 8.61 8.61 0 0 0-1.959 5.455 8.612 8.612 0 0 0 1.93 5.465l-2.236 2.275a1.04 1.04 0 0 0 0 1.46 1.005 1.005 0 0 0 1.434 0l2.278-2.319a8.257 8.257 0 0 0 5.817 1.624 8.314 8.314 0 0 0 5.377-2.78l-.504-2.894a6.433 6.433 0 0 1-2.342 2.662 6.28 6.28 0 0 1-3.375.992z" />
    <path stroke="#ffffff" stroke-linecap="round" stroke-width="1.5" d="M11.333 14.265h5.724l1.665-6.546c.053-.21.355-.197.39.017l1.685 10.02a.2.2 0 0 0 .372.064l1.969-3.555H26" />
  </g>
</svg>