<svg fill="#10b981" width="26" height="26" viewBox="0 0 26 26" xmlns="http://www.w3.org/2000/svg">
  <title>Last9</title>
  <g>
    <path fill-rule="evenodd" clip-rule="evenodd" d="M25.9383 14.2747L24.6444 14.1488C24.6812 13.7712 24.7 13.388 24.7 13C24.7 12.612 24.6812 12.2288 24.6444 11.8512L25.9383 11.7253C25.9791 12.1447 26 12.5699 26 13C26 13.4301 25.9791 13.8553 25.9383 14.2747ZM25.4434 9.22502L24.1993 9.60196C23.9753 8.86273 23.68 8.15428 23.3213 7.48455L24.4673 6.87075C24.866 7.61514 25.1943 8.40286 25.4434 9.22502ZM23.0495 4.75276L22.0451 5.57803C21.5583 4.98557 21.0144 4.44171 20.422 3.95493L21.2472 2.95048C21.9051 3.49101 22.509 4.09488 23.0495 4.75276ZM19.1292 1.53271L18.5154 2.67868C17.8457 2.31996 17.1373 2.02469 16.398 1.80072L16.775 0.556572C17.5971 0.805664 18.3849 1.13401 19.1292 1.53271ZM14.2747 0.0617022L14.1488 1.35559C13.7712 1.31884 13.388 1.3 13 1.3C12.612 1.3 12.2288 1.31884 11.8512 1.35559L11.7253 0.0617022C12.1447 0.0208871 12.5699 0 13 0C13.4301 0 13.8553 0.0208871 14.2747 0.0617022ZM9.22502 0.556572L9.60196 1.80072C8.86273 2.02469 8.15428 2.31996 7.48455 2.67868L6.87075 1.53271C7.61514 1.13401 8.40285 0.805664 9.22502 0.556572ZM4.75276 2.95048L5.57803 3.95493C4.98557 4.44171 4.44171 4.98557 3.95493 5.57804L2.95048 4.75276C3.49101 4.09488 4.09488 3.49101 4.75276 2.95048ZM1.53271 6.87075L2.67868 7.48456C2.31996 8.15429 2.02469 8.86273 1.80072 9.60196L0.556572 9.22502C0.805664 8.40286 1.13401 7.61514 1.53271 6.87075ZM0.0617022 11.7253C0.0208871 12.1447 0 12.5699 0 13C0 13.4301 0.0208871 13.8553 0.0617023 14.2747L1.35559 14.1488C1.31884 13.7712 1.3 13.388 1.3 13C1.3 12.612 1.31884 12.2288 1.35559 11.8512L0.0617022 11.7253ZM0.556572 16.775L1.80072 16.398C2.02469 17.1373 2.31996 17.8457 2.67868 18.5154L1.53271 19.1292C1.13401 18.3849 0.805664 17.5971 0.556572 16.775ZM2.95048 21.2472L3.95493 20.422C4.44171 21.0144 4.98557 21.5583 5.57804 22.0451L4.75276 23.0495C4.09488 22.509 3.49101 21.9051 2.95048 21.2472ZM6.87075 24.4673L7.48456 23.3213C8.15429 23.68 8.86273 23.9753 9.60196 24.1993L9.22502 25.4434C8.40286 25.1943 7.61514 24.866 6.87075 24.4673ZM11.7253 25.9383L11.8512 24.6444C12.2288 24.6812 12.612 24.7 13 24.7C13.388 24.7 13.7712 24.6812 14.1488 24.6444L14.2747 25.9383C13.8553 25.9791 13.4301 26 13 26C12.5699 26 12.1447 25.9791 11.7253 25.9383ZM16.775 25.4434L16.398 24.1993C17.1373 23.9753 17.8457 23.68 18.5154 23.3213L19.1292 24.4673C18.3849 24.866 17.5971 25.1943 16.775 25.4434ZM21.2472 23.0495L20.422 22.0451C21.0144 21.5583 21.5583 21.0144 22.0451 20.422L23.0495 21.2472C22.509 21.9051 21.9051 22.509 21.2472 23.0495ZM24.4673 19.1292L23.3213 18.5154C23.68 17.8457 23.9753 17.1373 24.1993 16.398L25.4434 16.775C25.1943 17.5971 24.866 18.3849 24.4673 19.1292Z"/>
    <path d="M7.8 10.4751C7.8 13.4358 9.83461 15.4873 12.7012 15.4873C13.1324 15.4873 13.5408 15.4121 13.919 15.3144L10.1674 20.8H13.4576L17.0427 15.5249C18.3739 13.5561 19.0169 12.0306 19.032 10.4075C19.0395 7.10116 16.4377 5.2 13.3593 5.2C10.1296 5.2 7.8 7.31156 7.8 10.4751ZM10.9465 10.3624C10.9465 8.83699 11.9449 7.73988 13.3744 7.73988C14.8115 7.73988 15.825 8.83699 15.825 10.3775C15.825 11.9029 14.8115 12.985 13.3744 12.985C11.9449 12.985 10.9465 11.9029 10.9465 10.3624Z"/>
  </g>
</svg>
