<svg xmlns="http://www.w3.org/2000/svg" fill="none" viewBox="0 0 56 56"><path fill="#26D7A0" d="M0 0h56v56H0z"/><path fill="#273747" fill-rule="evenodd" d="m47.905 29.961-1.99-.194a18.255 18.255 0 0 0 0-3.534l1.99-.194a20.24 20.24 0 0 1 0 3.922Zm-.761-7.769-1.914.58a17.88 17.88 0 0 0-1.351-3.257l1.763-.945a19.875 19.875 0 0 1 1.502 3.622Zm-3.683-6.88-1.545 1.27a18.12 18.12 0 0 0-2.498-2.498l1.27-1.545a20.126 20.126 0 0 1 2.773 2.773Zm-6.031-4.954-.945 1.763a17.878 17.878 0 0 0-3.257-1.35l.58-1.915c1.264.383 2.476.889 3.622 1.502ZM29.96 8.095l-.194 1.99a18.255 18.255 0 0 0-3.534 0l-.194-1.99a20.24 20.24 0 0 1 3.922 0Zm-7.769.761.58 1.914a17.88 17.88 0 0 0-3.257 1.351l-.945-1.763a19.879 19.879 0 0 1 3.622-1.502Zm-6.88 3.683 1.27 1.546a18.12 18.12 0 0 0-2.498 2.497l-1.545-1.27a20.126 20.126 0 0 1 2.773-2.773Zm-4.954 6.031 1.763.945a17.878 17.878 0 0 0-1.35 3.257l-1.915-.58a19.879 19.879 0 0 1 1.502-3.622ZM8.095 26.04a20.24 20.24 0 0 0 0 3.922l1.99-.194a18.255 18.255 0 0 1 0-3.534l-1.99-.194Zm.761 7.769 1.914-.58a17.88 17.88 0 0 0 1.351 3.257l-1.763.945a19.879 19.879 0 0 1-1.502-3.622Zm3.683 6.88 1.546-1.27a18.12 18.12 0 0 0 2.497 2.498l-1.27 1.545a20.126 20.126 0 0 1-2.773-2.773Zm6.031 4.954.945-1.763c1.03.552 2.12 1.006 3.257 1.35l-.58 1.915a19.875 19.875 0 0 1-3.622-1.502Zm7.469 2.263.194-1.99a18.255 18.255 0 0 0 3.534 0l.194 1.99a20.24 20.24 0 0 1-3.922 0Zm7.769-.761-.58-1.914a17.88 17.88 0 0 0 3.257-1.351l.945 1.763a19.875 19.875 0 0 1-3.622 1.502Zm6.88-3.683-1.27-1.545a18.12 18.12 0 0 0 2.498-2.498l1.545 1.27a20.126 20.126 0 0 1-2.773 2.773Zm4.954-6.031-1.763-.945a17.878 17.878 0 0 0 1.35-3.257l1.915.58a19.875 19.875 0 0 1-1.502 3.622Z" clip-rule="evenodd"/><path fill="#273747" d="M20 24.116c0 4.555 3.13 7.71 7.54 7.71.664 0 1.292-.115 1.874-.265L23.642 40h5.062l5.516-8.116c2.048-3.029 3.037-5.375 3.06-7.872.012-5.087-3.991-8.012-8.727-8.012C23.584 16 20 19.249 20 24.116Zm4.84-.174c0-2.347 1.537-4.035 3.736-4.035 2.21 0 3.77 1.688 3.77 4.058 0 2.347-1.56 4.012-3.77 4.012-2.2 0-3.735-1.665-3.735-4.035Z"/></svg>