<svg fill="#FFFFFF" width="50" height="43" viewBox="0 0 50 43" xmlns="http://www.w3.org/2000/svg">
  <title>Logz.io</title>
  <g>
    <path fill-rule="evenodd" clip-rule="evenodd" d="M14.0557 18.9557L25.0003 25.275L35.945 18.9568V6.31933L25.0003 0L14.6023 6.00221C14.3924 6.1233 14.2621 6.34932 14.2621 6.59148C14.2621 6.83364 14.3924 7.05851 14.6023 7.17959L24.5275 12.9097V17.9167L14.0557 11.8707V18.9557ZM25.0003 24.183L15.0013 18.4102V13.5116L19.723 16.2376L24.9646 19.3039L30.7339 15.9725V9.31179L24.9657 5.98146L19.6902 9.0271L15.4741 6.59263L25.0003 1.09205L34.9994 6.86478V18.4102L25.0003 24.183ZM20.6357 9.57302L25.0003 12.0932L29.3297 9.59358L24.9657 7.0735L20.6357 9.57302ZM29.7883 10.4205L25.4731 12.912V17.9185L29.7883 15.427V10.4205Z"/>
  </g>
</svg>
