<svg xmlns="http://www.w3.org/2000/svg" width="34" height="21" viewBox="0 0 34 21" fill="none">
  <title>Lumigo</title>
  <defs>
    <linearGradient id="lumigo_gradient_1" x1="0.500956" y1="10.4056" x2="33.0464" y2="10.4056" gradientUnits="userSpaceOnUse">
      <stop stop-color="#FFC94F"/>
      <stop offset="0.2025" stop-color="#FFC94F"/>
      <stop offset="0.5958" stop-color="#E02317"/>
      <stop offset="1" stop-color="#E02317"/>
    </linearGradient>
    <linearGradient id="lumigo_gradient_2" x1="0.500956" y1="10.4056" x2="33.0464" y2="10.4056" gradientUnits="userSpaceOnUse">
      <stop stop-color="#FFC94F"/>
      <stop offset="0.2025" stop-color="#FFC94F"/>
      <stop offset="0.5958" stop-color="#E02317"/>
      <stop offset="1" stop-color="#E02317"/>
    </linearGradient>
  </defs>
  <mask id="lumigo_mask" style="mask-type:luminance" maskUnits="userSpaceOnUse" x="0" y="0" width="34" height="21">
    <path d="M20.9648 16.0469C20.1523 15.6914 19.4414 15.1836 18.832 14.5234L14.8711 10.4609L18.832 6.34766C19.4414 5.6875 20.1523 5.17969 20.9648 4.82422C22.4883 4.16406 24.1641 4.16406 25.6875 4.77344C27.2109 5.38281 28.3789 6.55078 29.0391 8.07422C29.3438 8.83594 29.4961 9.59766 29.5469 10.4102C29.5469 11.2227 29.3945 11.9844 29.0391 12.7461C28.0234 15.082 25.7383 16.5039 23.3516 16.5039C22.5391 16.5039 21.7266 16.3516 20.9648 16.0469ZM23.1484 0.761719L0.601563 0.8125L4.00391 4.26563H11.418H15.9883L15.125 5.17969H4.86719L8.21875 8.58203H11.7734L9.9961 10.4102L11.7734 12.2383L8.11719 12.1875L4.76563 15.5898H15.125L16.0391 16.5039H3.85156L0.5 20.0078H23.1484C23.25 20.0078 23.3516 20.0078 23.4023 20.0078C23.4531 20.0078 23.4531 20.0078 23.5039 20.0078C24.7734 20.0078 26.043 19.7539 27.2109 19.2461C30.7656 17.7227 33.0508 14.2695 33.0508 10.3594C33.0508 6.5 30.7656 3.04688 27.2109 1.52344C26.043 1.01563 24.8242 0.761719 23.5547 0.761719C23.5039 0.761719 23.5039 0.761719 23.4531 0.761719C23.3516 0.761719 23.25 0.761719 23.1484 0.761719Z" fill="white"/>
  </mask>
  <g mask="url(#lumigo_mask)">
    <path d="M33.0508 0.761719H0.5V20.0078H33.0508V0.761719Z" fill="url(#lumigo_gradient_1)"/>
    <path d="M33.0508 0.761719H0.5V20.0078H33.0508V0.761719Z" fill="url(#lumigo_gradient_2)"/>
  </g>
</svg>
