<svg width="37" height="19" viewBox="0 0 37 19" fill="none" xmlns="http://www.w3.org/2000/svg">
    <title>Middleware</title>
    <g>
        <path fill="#E95E5F" d="M27.174 10.508c.21-.322.377-.558.531-.808 1.152-1.888 2.283-3.79 3.49-5.67.22-.383.55-.686.945-.868a2.048 2.048 0 0 1 1.26-.148c.412.063.791.266 1.077.576.286.31.462.708.501 1.133a2.686 2.686 0 0 1-.307 1.48 482.459 482.459 0 0 1-5.78 9.532c-.935 1.502-2.791 1.43-3.699-.143-1.11-1.852-2.164-3.74-3.245-5.606-.147-.258-.308-.5-.524-.858l-.768 1.244c-1.033 1.723-2.094 3.447-3.127 5.177-1.033 1.73-3.001 1.76-4.055-.079-1.187-2.059-2.367-4.126-3.595-6.264-.181.28-.335.5-.468.715-1.158 1.888-2.303 3.783-3.49 5.664a2.127 2.127 0 0 1-.555.621 2.07 2.07 0 0 1-1.569.387 2.062 2.062 0 0 1-.77-.294 2.115 2.115 0 0 1-.601-.576 2.17 2.17 0 0 1-.36-1.611c.046-.28.147-.547.295-.787a661.831 661.831 0 0 1 5.675-9.217c.192-.376.483-.69.84-.905a2.179 2.179 0 0 1 2.341.055c.347.232.623.558.798.943 1.054 1.823 2.094 3.661 3.134 5.484.146.258.307.501.51.83l3.545-5.807c.154-.25.3-.514.482-.758.207-.332.495-.603.837-.786a2.163 2.163 0 0 1 2.192.087c.326.209.594.502.775.85 1.082 1.837 2.094 3.697 3.183 5.549.14.264.293.514.502.858z"/>
        <path stroke="#E95E5F" stroke-opacity=".2" stroke-width="2" d="m27.7 7.783-.49.806c-.422-.73-.837-1.46-1.253-2.196l-.009-.016a192.02 192.02 0 0 0-1.585-2.764 3.238 3.238 0 0 0-1.11-1.204 3.169 3.169 0 0 0-3.204-.126c-.484.26-.893.64-1.19 1.102-.161.221-.308.466-.42.654l-.088.146-.001.002-2.682 4.392-.49-.86c-.754-1.325-1.512-2.657-2.276-3.98a3.258 3.258 0 0 0-1.13-1.312 3.182 3.182 0 0 0-3.415-.08 3.25 3.25 0 0 0-1.19 1.264 662.652 662.652 0 0 0-5.66 9.193 3.177 3.177 0 0 0-.396 2.368c.09.403.258.785.494 1.123.236.338.536.627.884.848a3.064 3.064 0 0 0 2.369.389 3.07 3.07 0 0 0 1.106-.525c.326-.245.6-.55.81-.9a345.117 345.117 0 0 0 2.57-4.163l.492-.803.684 1.195c.7 1.222 1.393 2.43 2.086 3.633.663 1.155 1.711 1.869 2.894 1.879 1.179.01 2.228-.683 2.887-1.786.558-.935 1.112-1.848 1.668-2.764.45-.74.9-1.484 1.355-2.241.258.447.516.898.775 1.35a213.215 213.215 0 0 0 2.145 3.692c.602 1.038 1.582 1.675 2.663 1.717 1.09.042 2.11-.53 2.747-1.552a483.087 483.087 0 0 0 5.792-9.552l.01-.019.011-.019a3.685 3.685 0 0 0 .422-2.031l-.001-.012a2.93 2.93 0 0 0-.762-1.72 2.85 2.85 0 0 0-1.636-.882 3.048 3.048 0 0 0-1.854.225 3.111 3.111 0 0 0-1.38 1.253c-.912 1.42-1.782 2.856-2.643 4.276z"/>
    </g>
</svg>
