<svg viewBox="0 0 61 69" fill="none" xmlns="http://www.w3.org/2000/svg">
  <title>Observe</title>
  <g>
    <path fill="#ffffff"
      d="m 12.198,36.147798 a 21.716,21.716 0 0 1 7.608,-7.932 19.864,19.864 0 0 1 20.88,0 22.119,22.119 0 0 1 7.662,7.961 21.708,21.708 0 0 1 -7.634,29.4 20.345,20.345 0 0 1 -20.908,0.031 21.127,21.127 0 0 1 -7.608,-7.816 22.279,22.279 0 0 1 0,-21.646 z m 5.838,18.333 a 14.75,14.75 0 0 0 5.193,5.461 13.409,13.409 0 0 0 7.21,2.035 13.073,13.073 0 0 0 7.075,-2 14.464,14.464 0 0 0 5.079,-5.463 16.188,16.188 0 0 0 -0.028,-15.2 14.709,14.709 0 0 0 -5.163,-5.521 13.562,13.562 0 0 0 -14.286,0 14.573,14.573 0 0 0 -5.108,5.521 15.777,15.777 0 0 0 -1.88,7.614 15.258,15.258 0 0 0 1.905,7.552 z" />
    <path fill="#00a259"
      d="m 0.001,12.377798 6.5,6.5 a 34.971,34.971 0 0 1 48.21,0.211 l 6.27,-6.723 A 43.753,43.753 0 0 0 0,12.381798 Z" />
  </g>
</svg>