<svg width="48" height="48" viewBox="0 0 48 48" fill="none" xmlns="http://www.w3.org/2000/svg">
  <title>OpenObserve</title>
  <defs>
    <linearGradient id="openobserve_gradient_1" x1="23.916" y1="13.3756" x2="47.8276" y2="13.3756"
      gradientUnits="userSpaceOnUse">
      <stop offset="0.01" stop-color="#82C2DF" />
      <stop offset="0.3" stop-color="#3CAFD9" />
      <stop offset="0.59" stop-color="#0379B8" />
      <stop offset="0.7" stop-color="#006DAC" />
      <stop offset="0.73" stop-color="#006AA9" />
      <stop offset="0.91" stop-color="#334C84" />
      <stop offset="1" stop-color="#3A447A" />
    </linearGradient>
    <linearGradient id="openobserve_gradient_2" x1="23.0454" y1="44.9108" x2="55.8744" y2="20.4858"
      gradientUnits="userSpaceOnUse">
      <stop stop-color="#0C6237" />
      <stop offset="0.406444" stop-color="#31BB77" />
      <stop offset="0.752196" stop-color="#5BC792" />
      <stop offset="0.98" stop-color="#B1E9CD" />
    </linearGradient>
    <linearGradient id="openobserve_gradient_3" x1="0.00434134" y1="23.9935" x2="26.5941" y2="23.9935"
      gradientUnits="userSpaceOnUse">
      <stop stop-color="#D1C6E0" />
      <stop offset="0.35" stop-color="#9274B2" />
      <stop offset="0.71" stop-color="#652F8D" />
      <stop offset="1" stop-color="#2B1143" />
    </linearGradient>
    <linearGradient id="openobserve_gradient_4" x1="0.00390625" y1="34.6201" x2="23.9154" y2="34.6201"
      gradientUnits="userSpaceOnUse">
      <stop stop-color="#931B1E" />
      <stop offset="0.32" stop-color="#ED4725" />
      <stop offset="0.38" stop-color="#EE5F26" />
      <stop offset="0.53" stop-color="#F08F27" />
      <stop offset="0.74" stop-color="#F5C321" />
      <stop offset="0.88" stop-color="#F8D718" />
      <stop offset="1" stop-color="#F6DF65" />
    </linearGradient>
  </defs>

  <g>
    <path fill="#FFFFFF"
      d="M39.5095 23.9998C39.5095 24.4818 39.4855 24.9595 39.4443 25.4328H30.5464L29.8671 24.0542L25.0341 33.7049L21.0342 22.1675L18.3084 31.1755L14.6646 25.4328H8.38834C8.34711 24.9595 8.32324 24.4818 8.32324 23.9998C8.32324 23.5179 8.34711 23.038 8.38834 22.5647H16.2467L17.3839 24.3581L20.8607 12.8857L25.5158 26.3468L29.8888 17.608L32.3195 22.5647H39.4378C39.4811 23.038 39.5095 23.5244 39.5095 23.9998Z" />
    <path fill="url(#openobserve_gradient_1)"
      d="M47.8276 23.999C47.5501 24.7849 47.0358 25.4654 46.3556 25.9466C45.6754 26.4278 44.8629 26.6864 44.0298 26.6864C43.1966 26.6864 42.3841 26.4278 41.7039 25.9466C41.0237 25.4654 40.5093 24.7849 40.2319 23.999C40.2307 19.6702 38.5115 15.5189 35.452 12.4577C32.3925 9.39648 28.2431 7.67592 23.916 7.67421C24.7017 7.39657 25.3817 6.88207 25.8629 6.2016C26.3439 5.52114 26.6023 4.70816 26.6023 3.87469C26.6023 3.04122 26.3439 2.22826 25.8629 1.54779C25.3817 0.867324 24.7017 0.352833 23.916 0.0751953C27.0564 0.0751953 30.1659 0.694019 33.0671 1.89633C35.9684 3.09864 38.6045 4.86089 40.8249 7.08246C43.0453 9.30403 44.8065 11.9414 46.008 14.8439C47.2097 17.7465 47.8279 20.8574 47.8276 23.999Z" />
    <path fill="url(#openobserve_gradient_2)"
      d="M47.8273 23.9995C47.8275 27.1409 47.2093 30.2517 46.0078 33.1541C44.8061 36.0565 43.0449 38.6939 40.8245 40.9152C38.6039 43.1367 35.9678 44.8987 33.0666 46.1007C30.1655 47.3029 27.056 47.9213 23.9158 47.9211C23.1301 47.6434 22.4501 47.129 21.9689 46.4484C21.4879 45.7681 21.2295 44.955 21.2295 44.1215C21.2295 43.2882 21.4879 42.4751 21.9689 41.7947C22.4501 41.1142 23.1301 40.5997 23.9158 40.322C26.0591 40.3224 28.1816 39.9002 30.1619 39.0799C32.1422 38.2594 33.9415 37.0569 35.4572 35.5408C36.9728 34.0246 38.1752 32.2248 38.9955 30.2436C39.8158 28.2626 40.238 26.1393 40.238 23.9951C40.5155 24.7809 41.0298 25.4613 41.71 25.9427C42.3902 26.4239 43.2029 26.6825 44.036 26.6825C44.869 26.6825 45.6817 26.4239 46.3619 25.9427C47.0421 25.4613 47.5563 24.7809 47.8338 23.9951L47.8273 23.9995Z" />
    <path fill="url(#openobserve_gradient_3)"
      d="M26.5941 3.92897C26.5802 4.75134 26.3165 5.55003 25.8382 6.21898C25.3599 6.88792 24.6894 7.39545 23.9159 7.67421C21.7726 7.67421 19.6502 8.09659 17.67 8.91722C15.6898 9.73787 13.8906 10.9407 12.3751 12.457C10.8596 13.9734 9.65751 15.7735 8.83747 17.7546C8.01744 19.7357 7.59551 21.8592 7.5958 24.0034C7.31829 23.2176 6.804 22.537 6.12383 22.0558C5.44364 21.5744 4.63102 21.316 3.79791 21.316C2.96478 21.316 2.15216 21.5744 1.47198 22.0558C0.791794 22.537 0.277522 23.2176 8.86561e-07 24.0034C-0.000854409 20.861 0.617148 17.7493 1.81871 14.8459C3.02027 11.9426 4.78183 9.30453 7.00277 7.08246C9.2237 4.86038 11.8605 3.09783 14.7625 1.8955C17.6645 0.693172 20.775 0.0746257 23.9159 0.0751957C24.7068 0.36028 25.3893 0.884375 25.8693 1.57487C26.349 2.26537 26.6024 3.08806 26.5941 3.92897Z" />
    <path fill="url(#openobserve_gradient_4)"
      d="M23.9154 47.9206C17.5737 47.9206 11.4917 45.4002 7.00744 40.9141C2.52315 36.4279 0.00390625 30.3434 0.00390625 23.9989C0.281427 23.2131 0.795699 22.5325 1.47588 22.0513C2.15606 21.5701 2.96868 21.3115 3.80181 21.3115C4.63492 21.3115 5.44755 21.5701 6.12773 22.0513C6.80792 22.5325 7.32219 23.2131 7.5997 23.9989C7.5997 28.329 9.31913 32.4819 12.3798 35.5439C13.8952 37.0599 15.6943 38.2627 17.6744 39.0831C19.6544 39.9036 21.7766 40.326 23.9197 40.326C23.1343 40.6035 22.4541 41.1181 21.9731 41.7985C21.492 42.479 21.2336 43.2919 21.2336 44.1254C21.2336 44.9589 21.492 45.7718 21.9731 46.4524C22.4541 47.1328 23.1343 47.6474 23.9197 47.9249L23.9154 47.9206Z" />
  </g>
</svg>