<svg fill="#002a4b" width="390pt" height="390pt" viewBox="0 0 266.44 258.318" xmlns="http://www.w3.org/2000/svg">
  <title>OpsVerse</title>
  <g transform="matrix(0.1, 0, 0, -0.1, -63.800472, 318.957611)" >
    <path d="M1832 3129 c-218 -21 -422 -92 -600 -209 l-53 -35 39 -3 38 -3 78 -189 78 -188 60 48 c164 132 384 195 595 170 52 -6 119 -20 148 -30 81 -28 203 -94 259 -140 26 -22 51 -40 55 -40 3 0 40 82 82 183 75 181 75 182 110 187 l34 5 -48 33 c-61 43 -189 106 -286 142 -103 37 -204 58 -341 70 -126 11 -129 11 -248 -1z"/>
    <path d="M935 2639 c-163 -221 -235 -445 -235 -729 0 -274 77 -512 232 -722 156 -211 401 -380 653 -453 332 -96 714 -59 1010 99 238 126 445 350 551 595 62 143 86 256 91 436 8 236 -27 405 -118 589 -38 76 -128 215 -153 235 -9 8 -39 -56 -120 -252 l-108 -261 18 -81 c37 -170 15 -381 -55 -532 -64 -136 -196 -284 -313 -351 -31 -18 -60 -38 -65 -45 -5 -6 -47 -103 -93 -214 l-83 -203 -176 0 -176 0 -84 206 c-47 114 -89 211 -95 216 -6 5 -40 28 -76 50 -91 58 -205 178 -264 278 -60 101 -92 200 -106 323 -12 98 -9 142 16 277 l16 85 -101 244 c-56 134 -105 250 -110 259 -7 12 -18 2 -56 -49z"/>
  </g>
</svg>
