<svg viewBox="50 50 600 250" fill="none" xmlns="http://www.w3.org/2000/svg">
  <title>Seq</title>
  <g>
    <path fill="#FFFFFF"
      d="M467.7,121.7v168.8h-31.6v-65.3c-8.7,9.8-22.9,14.9-38,14.9c-33.1-0.5-55.8-24.9-55.8-61.4  c0-36.8,23.6-60.9,56.5-60.9c17.5,0,32.6,6.9,40.3,18.5l2.1-14.6L467.7,121.7z M435.5,179.3c0-19.8-12.6-32.6-30.6-32.6  s-30.1,13.1-30.1,32.3s11.8,32.4,30.3,32.4C423,211.4,435.5,199.1,435.5,179.3L435.5,179.3z" />
    <path fill="#FFFFFF"
      d="M132.3,68.8c35.5,0,59.9,19.5,60.1,49.6H158c-0.3-13.1-11.6-21.3-27.5-21.3c-14.6,0-24.2,7.4-24.2,18.8  c0,12.3,10.5,16.2,21.6,18.8l26.4,6.4c26.5,5.9,42.4,22.4,42.4,47c0,32.1-25.2,52.2-63.5,52.2c-37.8,0-63.5-19.5-65.5-51.4h34.4  c0.8,14.6,13.1,23.1,31.4,23.1c17.7,0,28-7.7,28-20.3c0-11.6-9-15.9-18.8-18.5l-27.2-6.7c-28.8-6.7-43.7-22.9-43.7-46.5  C71.9,88.6,96,68.8,132.3,68.8z" />
    <path fill="#FFFFFF"
      d="M271.9,240.2c-36.5,0-60.6-24.9-60.6-61.4c0-37.3,24.9-60.9,59.9-60.9c34.4,0,57.3,23.1,57.3,55.2  c0,5-0.4,10-1.3,14.9h-84.3c0.8,15.7,12.1,26.2,29,26.2c12.3,0,22.1-5.4,25.7-13.9h31.1C323.6,224.3,300.7,240.2,271.9,240.2z   M295.8,166.7c-0.5-14.1-11-22.6-25.7-22.6c-15.2,0-26.2,8.7-27,22.6H295.8z" />
    <polygon fill="#FBA018" points="535.5,121.8 585.8,108.4 603.2,154.5 554,168.6 " />
    <polygon fill="#E84100" points="603.2,154.5 535.5,208.5 535.5,121.8 561.5,154.5 " />
    <polygon fill="#AAEACD" points="603.2,154.5 603.2,67.8 535.5,121.8 577.2,121.8 " />
  </g>
</svg>