<svg fill="#719f45" width="800px" height="800px" viewBox="-4.8 -4.8 57.60 57.60" xmlns="http://www.w3.org/2000/svg" >
  <title>SignalFx</title>
  <g>
    <rect fill="#ffffff" x="-4.8" y="-4.8" width="57.60" height="57.60" rx="28.8" transform="translate(9.36,9.36), scale(0.61)"/>
    <path d="M37.5,4h-27A6.5,6.5,0,0,0,4,10.5v27A6.5,6.5,0,0,0,10.5,44h27A6.5,6.5,0,0,0,44,37.5v-27A6.5,6.5,0,0,0,37.5,4ZM33.6,26.1c0,.1,0,.2-.2.3L14.7,35.8c-.1.1-.3-.1-.3-.2V30.8c0-.1,0-.2.1-.2l13.6-6.8L14.5,16.9c-.1,0-.1-.1-.1-.2V11.9c0-.1.2-.3.3-.2l18.7,9.4a.5.5,0,0,1,.2.4Z"/>
  </g>
</svg>
