<svg width="2001" height="2001" viewBox="0 0 2001 2001" fill="none" xmlns="http://www.w3.org/2000/svg">
  <title>TelemetryHub</title>
  <g>
    <circle cx="1000.46" cy="1000.07" r="1000" fill="#FFFFFF" />
    <path fill-rule="evenodd" clip-rule="evenodd" fill="#FA7156"
      d="M623.046 1103.81H836.259V1419.33C836.259 1509.98 909.745 1583.47 1000.39 1583.47C1091.04 1583.47 1164.53 1509.98 1164.53 1419.33V1103.81H1377.74V1419.33C1377.74 1627.73 1208.8 1796.68 1000.39 1796.68C791.991 1796.68 623.046 1627.73 623.046 1419.33V1103.81Z" />
    <path fill="#013134" fill-rule="evenodd" clip-rule="evenodd"
      d="M837.511 1010.06L622.033 1010.06L622.033 835.611L837.511 835.611L837.511 1010.06Z" />
    <path fill="#013134" fill-rule="evenodd" clip-rule="evenodd"
      d="M1378.88 1010.06L1163.4 1010.06L1163.4 835.611L1378.88 835.611L1378.88 1010.06Z" />
    <path fill="#013134"
      d="M1158.21 216.174C1158.21 189.237 1180.05 167.401 1206.99 167.401V167.401C1233.92 167.401 1255.76 189.237 1255.76 216.174V216.174C1255.76 243.11 1233.92 264.946 1206.99 264.946V264.946C1180.05 264.946 1158.21 243.11 1158.21 216.174V216.174Z" />
    <path fill="#00E0BF"
      d="M902.853 822.037C902.853 795.101 924.689 773.265 951.625 773.265V773.265C978.561 773.265 1000.4 795.101 1000.4 822.037V822.037C1000.4 848.973 978.561 870.809 951.625 870.809V870.809C924.689 870.809 902.853 848.973 902.853 822.037V822.037Z" />
    <path fill="#00E0BF"
      d="M836.541 216.173H987.218V366.85H915.674C871.97 366.85 836.541 331.421 836.541 287.717V216.173Z" />
    <path fill="#00E0BF" d="M987.212 1103.81H1085.1V1201.7H987.212V1103.81Z" />
    <path fill="#013134" d="M987.212 419.461H1085.1V517.348H987.212V419.461Z" />
    <path fill="#013134" d="M731.94 517.348H837.515V622.923H731.94V517.348Z" />
    <path fill="#00E0BF"
      d="M1085.1 517.348H1255.76V607.383C1255.76 651.908 1219.66 688.003 1175.14 688.003H1085.1V517.348Z" />
  </g>
</svg>