<svg viewBox="0 0 2452 562" xmlns="http://www.w3.org/2000/svg">
  <title>Tingyun</title>
  <g>
    <path fill="#1677FF"
      d="m414 6 8 6c10 6 19 7 30 6 6-1 11-4 16-7 14-7 30-3 44 0l3 1a407 407 0 0 1 240 138c25 33 43 75 43 117v2a1166 1166 0 0 1 0 11c0 14-1 28-4 42v2l-4 13-1 2a223 223 0 0 1-54 92 239 239 0 0 1-37 35c-15 12-31 22-48 32l-2 1c-61 35-128 54-197 61h-2a508 508 0 0 1-124-1h-2c-51-7-100-20-146-41l-2-1c-28-12-54-28-77-47l-3-2c-16-13-32-28-45-45l-2-3a214 214 0 0 1 15-287l1-2a147 147 0 0 1 22-21 270 270 0 0 1 24-20 384 384 0 0 1 44-28c41-23 86-39 132-49h3c15-4 26-1 40 6 9 3 22 2 30-2l11-8c13-9 31-10 44-3Zm-97 180-2 2-16 17-2 2c-8 12-15 25-19 39l-1 2v2l3 3c4 3 6 7 8 12l1 2c3 4 4 8 4 13l-1-2c-5-11-12-19-22-25l-2-1c-11-7-25-7-37-4-7 2-13 5-19 10l-3 2-7 10c-3 3-4 4-9 5-23 6-44 24-56 45a104 104 0 0 0-1 98 144 144 0 0 0 40 49l27 19 2 1c44 28 95 43 146 50h3a401 401 0 0 0 40 3c52 2 106-9 153-30l3-1c34-15 65-34 92-60l3-3c7-6 12-13 18-21l2-3c10-15 16-34 17-52v-3a104 104 0 0 0-25-71c-18-20-42-34-69-37-26-1-53 2-73 21l-8 7-4 3c11-18 11-18 19-24l2-5-2-8v-2c-6-20-15-37-28-52l-2-2c-19-23-50-38-79-41-36-2-68 7-96 30ZM944 0h39v13h142V0h40v13h54c-1 13-3 22-13 31-13 10-24 9-42 9v121h66c0 12-4 21-12 30-8 7-18 10-28 10h-3a3016 3016 0 0 1-25 1l16 20 2 2a953 953 0 0 0 6 7c12 13 29 22 44 30v29l-14-4-2-1-2-1-3-1c-15-7-30-15-44-25l-1 22h-90v21h10a10180 10180 0 0 1 77 0c31-1 31-1 43 11 7 7 11 14 12 24v5H892c2-12 4-22 13-30 10-8 20-10 33-10h3a4969 4969 0 0 1 36 0h57v-21h-90l-1-22-8 5c-42 27-42 27-57 27v-29l7-4c24-13 49-31 61-56h-68v-40h66V53h-53V13h53V0Zm39 53v18h142V53H983Zm0 49v23h141v-23H983Zm0 54v18h141v-18H983Zm12 58-8 14c-6 9-14 17-22 25l-5 5h74v-32h40v32h74l-8-8c-12-11-19-22-27-36H995ZM1854 1h205c-3 13-7 24-19 32-11 7-21 8-34 8h-24a18453 18453 0 0 1-44 0h-44v64h162v40h-31v209h-40V145h-91v36a61191 61191 0 0 1 0 117c0 17-2 31-14 44-8 7-15 10-26 11V1Z" />
    <path fill="#1778FF"
      d="M1386 0h255a81991 81991 0 0 1 0 136v3a36848 36848 0 0 0 0 167l1 4c-1 12-4 23-12 32-9 8-17 11-29 12V40h-175v49a111122 111122 0 0 1 0 46v2a35960 35960 0 0 0 0 109c0 35-3 66-28 91-7 8-15 13-25 17-4-12-3-31 3-42l3-6c6-13 6-28 6-42v-23a17348 17348 0 0 0 1-124V0Z" />
    <path fill="#1677FF"
      d="M2114 137h320c-1 11-6 21-14 29-13 9-25 11-41 11a3353 3353 0 0 0-15 0h-11a11616 11616 0 0 1-97 1l-1 2-6 10-1 3a7246 7246 0 0 1-69 121h189a2490 2490 0 0 0-44-72l-1-4c41-4 41-4 50 2 5 6 8 14 11 21a1217 1217 0 0 1 26 43c11 19 11 19 9 30-3 9-7 14-15 18-5 2-11 2-17 2h-3a4730 4730 0 0 1-39 0h-10a39755 39755 0 0 1-43 0h-3a17469 17469 0 0 0-128 0l-3 1c-8-1-16-2-22-7-6-8-9-14-8-24 1-5 4-10 7-14l2-4a1112 1112 0 0 1 24-42 2564 2564 0 0 1 44-78l5-9h-96v-40ZM1760 1a3729 3729 0 0 0 19 0h43a99151 99151 0 0 1 0 136v2a36582 36582 0 0 0 0 167l1 4c-1 13-4 24-13 33-8 8-17 10-28 10h-3a3207 3207 0 0 1-29 0h-46a124627 124627 0 0 1 0-297v-3c0-16 3-29 15-41 12-11 25-11 41-11Zm-16 40v271h38V41h-38Zm-232 133a9857 9857 0 0 0 18 0h40a15313 15313 0 0 1 0 115c0 13-3 23-11 32l-2 2c-12 11-28 10-44 10a9857 9857 0 0 0-18 0h-40a15064 15064 0 0 1 0-115c0-12 3-23 12-33 12-12 28-11 45-11Zm-17 40v79h35v-79h-35ZM2122 1h304v40h-304V1Zm-833 81h64l1 195c10-5 10-5 18-12 4-4 4-4 6-4l-2 31-1 2c-1 9-5 16-12 23l-2 2a499 499 0 0 1-8 8c-7 7-28 27-39 27V119h-25V82Zm204-29h40v18h39v31h-39v23h43v31h-127v-31h44v-23h-40V71h40V53Z" />
    <path fill="#1777FF"
      d="M1965 430h113a21962 21962 0 0 1 0 105v3c0 12 0 12-4 17-7 6-17 5-25 5h-8l-2-6-2-4-1-5h26v-30h-35v44h-15v-44l-34 1-2 10c-3 12-7 23-15 33l-4 2-2-1-2-2-2-2-4-3 4-9c13-19 13-44 13-66v-4l1-13v-31Zm15 15v20h32v-20h-32Zm47 0v20h35v-20h-35Zm-47 34-1 22h33v-22h-32Zm47 0v22h35v-22h-35Z" />
    <path fill="#1677FF"
      d="M1427 420h15v27l9-3a6719 6719 0 0 1 6 13l1 2 2 5 9-33 1-4h5l3 1 7 2-4 20 14 1v-30h15v30h33v15h-33v27h30v14h-30v34h37v14h-94v-14h42v-34h-31v-14h31v-27h-19l-3 9-3 7-2 3-1 3-10-4-2-1-2-1 3-8-6 1-7-18-1 103h-15V420Zm948-1c4 1 7 1 10 3l2 1 2 1-1 3 2 6 3 3 2 1c16 16 36 28 56 38l-5 8-4 5c-4-1-8-2-11-5l-4-2-2-1v8h-39v21h38v13h-38v21h57v14h-129v-14h56v-21h-37v-13h37v-21h-38l-1-8-3 2-4 2-2 1-7 3-3-4-2-3-4-6 2-1c26-13 50-30 67-55Zm0 23-2 2-2 3-2 2-25 22-5 4h79l-9-8c-10-7-19-15-28-24-2-2-3-3-6-1Z" />
    <path fill="#1777FF"
      d="m2184 455 17 3-9 21h73v14h-29l-3 9-4 8-2 2-9 12 7 3 2 2a538 538 0 0 0 35 18l-7 9-2 2-2 2-13-6c-7-5-15-9-22-12l-3-2-3-1-3-1c-3-1-6 0-9 2l-2 2c-14 8-36 18-53 18-3-1-4-4-6-7l-2-3-2-4h2c26-5 26-5 49-16h2v-2h-2a452 452 0 0 1-34-12 43 43 0 0 1 6-12l2-2 6-9h-32v-14l41-1 11-23Zm-9 49-1 5 12 5 4 1 3 1 3 1h7c7-6 12-13 15-21v-3a386 386 0 0 0-19-1c-12-1-18 1-24 12Z" />
    <path fill="#1677FF"
      d="M1621 423a174 174 0 0 1 15 1v5l-1 2-1 8 82 1v14l-85 1-5 23h93c-6 66-6 66-16 76-8 6-18 5-27 5h-3c-5 0-10 0-15-2-2-2-2-2-2-5l-1-3-1-3-1-3h3a1294 1294 0 0 0 24 0h2c4 0 6 0 8-2 10-12 10-35 12-49h-96l9-41 5-25 1-3Zm-751 7h136v16h-18v4a13588 13588 0 0 1 0 91c0 6-1 10-5 15-8 5-17 4-25 4h-12l-3-7-1-2-2-7h3a4116 4116 0 0 0 19 0h4l5-1 1-97H870v-16Zm977-11 3 7 1 2 5 10 50 1v14h-111v47c-2 21-4 43-14 62l-9-5-3-2-2-1 3-9c9-26 9-53 10-80v-26h58l-6-15v-2l5-1 2-1 8-1Z" />
    <path fill="#1777FF"
      d="M1050 431a3500 3500 0 0 1 37 0h3c6 0 10 0 16 3l-4 29-1 3-4 16c-5 12-5 12-3 25l11 19 1 2c-1 4-3 5-6 7l-3 2-2 1c-3-1-3-1-5-4l-2-4-1-2-2-9h-2l-1 2c-5 13-14 26-25 34l-1-2-2-2-2-2-5-4c1-3 1-5 4-7 8-8 14-18 19-28l1-2c2-3 2-3 2-7l-5-9-2-2a285 285 0 0 0-16-25l10-7c4 2 5 3 7 6l2 2 2 3 3 5 2 2 4 6c3-6 4-13 6-20v-3l3-13h-39v-15Zm834 29 5 1 2 1 9 3c-5 26-18 50-30 73a1385408695 1385408695 0 0 1 29 1h2l7 1v10l-1 4h-14a5656 5656 0 0 1-99 0v-15l59-1c14-25 23-50 31-78Z" />
    <path fill="#1777FF"
      d="M1138 451h14a2236 2236 0 0 1 0 22c0 11 0 22-3 33h9a1301589061 1301589061 0 0 0 1 28v2l1 9 14 1 3-25 12 6c0 9 0 19-5 27-5 5-12 4-18 4h-3c-6 0-10 0-15-3-3-3-3-6-4-11v-2a643 643 0 0 1 0-21l-2 3c-8 15-19 29-35 36-3 0-4-1-6-3l-2-3-2-2-2-2 10-7c16-10 25-24 30-42l3-32a5714 5714 0 0 1 0-18Z" />
    <path fill="#1677FF"
      d="M1111 427h70v81h-15v-67h-41v67h-14v-81Zm-226 38h64v58h-49v11l-1 1h-14v-70Zm15 14v29h34v-29h-34Z" />
    <path fill="#1777FF" d="M1269 428h53v97h-12v-85h-29v86h-12v-98Z" />
    <path fill="#1677FF"
      d="M1288 1a728 728 0 0 1 22-1c16 0 16 0 21 3l4 8a245 245 0 0 0 5 9l2 3c15 28 15 28 15 41h-44l-3-11c-5-17-12-33-21-49l-1-3Zm911 419 4 7 1 2 3 8h54v33h-16v-19h-94v19h-16v-33l53-1-5-11v-2l5-1 3-1 8-1Zm-848 2h13a32270 32270 0 0 1 0 114v3c0 14 0 14-4 18h-1l-2 1c-5 2-10 2-15 2h-7l-2-5-1-3-1-5h20V422Z" />
    <path fill="#1777FF"
      d="M1289 449h11a4396 4396 0 0 1 0 54c1 10-1 20-4 30l3-2 6-2 7 6 2 2c11 13 11 13 11 17l-4 3-2 1h-4c-3-1-4-3-6-6-6-10-6-10-15-17l-1 2c-4 11-12 17-21 22l-5 1-3-4-1-2-1-4 5-3c9-6 16-12 19-23 3-14 3-28 3-43v-32Z" />
    <path fill="#1677FF" d="M1590 510h95v14h-95v-14Zm-259-76h12v92h-12v-92Z" />
    <path fill="#1878FF"
      d="m1816 470 3 6a287678409 287678409 0 0 1 4 12c9 26 9 26 9 33l-6 3-3 1-5 1-1-2-3-11-1-2-9-29-1-2-1-2v-5l4-2 3-1h7Z" />
    <path fill="#1777FF" d="M1847 461a286 286 0 0 1 13 52l-15 4v-2l-10-40-1-3v-3l-1-5 5-1 3-1 6-1Z" />
    <path fill="#1878FF"
      d="m1250 502 13 7c-3 12-8 23-12 34l-1 2-2 6-2 4-3 3c-3 0-5-1-7-3l-3-1-3-4 2-5 2-4 1-3 15-36Z" />
    <path fill="#1677FF" d="m1413 449 12 1c-1 14-2 28-7 42l-12-3v-2l4-19 1-2 2-17Z" />
    <path fill="#1878FF"
      d="m1244 422 12 6 3 2c4 2 6 4 9 8l-4 5-2 3-2 2c-5 0-5-1-9-4l-17-11c4-11 4-11 10-11Zm-9 40c5 1 10 4 14 6l2 2 10 6c-1 4-2 6-5 9l-2 2-1 2-2-1-24-15 8-11Z" />
  </g>
</svg>