
<svg width="160" height="107" viewBox="0 0 160 107" xmlns="http://www.w3.org/2000/svg">
  <title>Traceloop</title>
  <g>
    <path fill="#02c4f8" d="m 118.01028,87.161524 c -6.91657,2.739932 -3.89228,13.846246 3.46422,13.263156 9.25507,1.237 18.541,-1.013895 27.82226,-0.34555 7.48528,0.5074 9.1094,-11.348216 2.034,-13.123366 -9.78198,-2.242332 -19.80292,0.473085 -29.6912,-0.455437 -1.23012,0.05313 -2.47463,0.208932 -3.62928,0.661197 z" />
    <path fill="#ff3e5e" d="m 46.695989,87.161524 c -6.771315,2.845644 -3.400286,13.549976 3.614155,13.177646 13.372474,2.35661 26.872863,-1.340339 40.309415,-0.046 6.560764,1.28063 11.492841,-7.086506 6.557458,-11.873823 -5.721958,-3.678361 -13.175213,-2.61583 -19.696907,-2.668275 -8.654761,0.583058 -17.318397,1.23095 -25.986508,0.590754 -1.623583,0.04568 -3.277474,0.209791 -4.797613,0.819688 z" />
    <path fill="#02ff86" d="M 4.029321,87.161524 C -2.0955083,89.527329 0.0105272,99.574405 6.3641129,99.963132 12.605696,100.92538 19.59422,101.55842 25.414733,98.719104 30.769265,94.72516 26.95827,85.672556 20.351787,86.301318 14.953752,85.727149 9.2691581,85.571598 4.029321,87.161524 Z" />
    <path fill="#ffe050" d="m 104.00308,58.494861 c -7.696809,2.740223 -3.97422,14.25312 3.59241,13.812702 13.1691,2.218301 26.45331,-1.179435 39.68693,-0.104466 6.21694,0.944438 11.68361,-6.357313 7.44678,-11.635267 -4.93932,-4.56639 -12.59341,-3.255616 -18.82412,-3.477237 -8.94247,0.539058 -17.88804,1.249166 -26.84193,0.573006 -1.71068,0.04483 -3.45021,0.213458 -5.06007,0.831262 z" />
    <path fill="#02c4f8" d="m 47.336421,58.494861 c -7.954856,2.927718 -3.68664,14.70959 4.174913,13.823975 8.787609,1.019694 17.611911,-0.682244 26.417806,-0.408821 7.40508,0.321213 9.790453,-11.007185 2.734437,-13.415154 -9.756997,-2.964059 -19.972131,0.373778 -29.929975,-0.627025 -1.151811,0.05497 -2.314782,0.208468 -3.397181,0.627025 z" />
    <path fill="#ffc517" d="M 4.0288067,58.572019 C -2.2840775,61.130898 -0.21047916,71.494072 6.4589992,71.929993 12.697367,72.954596 19.701637,73.454284 25.478438,70.500004 31.236902,66.449351 27.157259,57.037505 20.344089,57.635242 14.948726,57.07138 9.2466159,56.903937 4.0288067,58.572019 Z" />
    <path fill="#ffc517" d="m 132.66924,29.828193 c -6.67556,2.248366 -5.60207,13.295235 1.75371,13.544519 6.28737,0.792879 13.45309,1.65536 19.20954,-1.493524 5.64048,-4.569267 0.95848,-13.687388 -5.99944,-12.890091 -4.9595,-0.541893 -10.15451,-0.635084 -14.96381,0.839096 z" />
    <path fill="#02ff86" d="m 76.66718,29.715023 c -7.771702,1.785108 -6.090834,14.356173 2.071154,13.675652 9.753023,-0.778618 19.670866,2.125484 29.296006,-0.265159 7.92733,-1.45663 5.93564,-13.88078 -1.75289,-13.779202 -8.581295,0.239459 -17.173396,-0.870564 -25.751891,-0.361229 -1.303515,0.142017 -2.601081,0.366746 -3.862379,0.729938 z" />
    <path fill="#ffc517" d="M 4.6697531,29.828193 C -3.2512983,32.6257 0.65943824,45.066732 8.781345,43.552709 c 13.603266,-0.387723 27.23925,-0.254993 40.83549,-0.01757 7.611581,0.449804 9.515117,-10.907809 2.742313,-13.571281 -13.346102,-3.649832 -27.217245,0.5395 -40.780497,-0.958824 -2.3185586,-0.04891 -4.7115155,-0.0072 -6.9088979,0.823161 z" />
    <path fill="#ffe050" d="m 105.33384,1.0221151 c -8.626612,1.6979525 -6.460845,14.8948389 2.1188,14.4872289 12.65758,2.189771 25.44599,-1.112206 38.16913,0.08953 6.54442,1.247165 13.78495,-5.9044002 9.00853,-12.007243 -5.13271,-5.117268 -13.1542,-2.74165149 -19.63772,-2.93559817 -9.87331,0.14868289 -19.89581,-1.85583043 -29.65874,0.36607727 z" />
    <path fill="#ff3e5e" d="M 4.029321,1.9053549 C -2.7603698,4.8631898 0.66264492,15.849526 7.9265657,14.986031 16.410294,15.334339 24.901962,14.36753 33.404221,14.666667 46.918127,14.785625 60.449637,14.30104 73.940025,15.2202 80.548153,16.806607 88.488834,9.6892126 83.375315,3.4680066 77.702994,-0.96291401 69.731887,1.6369192 63.077517,1.3224259 48.970205,1.2153199 34.846528,1.6152797 20.751105,1.0742277 15.204389,0.76522222 9.3594749,-0.12144021 4.029321,1.9053549 Z" />
  </g>
</svg>
