<svg width="87" height="77" viewBox="0 0 87 77" fill="none" xmlns="http://www.w3.org/2000/svg">
  <defs>
    <linearGradient id="tracetest_gradient_01" x1="-9.90949" y1="54.2159" x2="59.6417" y2="-15.3509" gradientUnits="userSpaceOnUse">
      <stop stop-color="#FDE87E"/>
      <stop stop-color="#FBD178" offset="0.06"/>
      <stop stop-color="#F79668" offset="0.2"/>
      <stop stop-color="#F03950" offset="0.39"/>
      <stop stop-color="#EE1847" offset="0.45"/>
      <stop stop-color="#CB184D" offset="0.56"/>
      <stop stop-color="#72175B" offset="0.8"/>
      <stop stop-color="#61175E" offset="0.85"/>
    </linearGradient>
    <linearGradient id="tracetest_gradient_02" x1="6.92105" y1="71.0425" x2="76.4722" y2="1.47573" gradientUnits="userSpaceOnUse">
      <stop stop-color="#FDE87E"/>
      <stop stop-color="#FBD178" offset="0.06"/>
      <stop stop-color="#F79668" offset="0.2"/>
      <stop stop-color="#F03950" offset="0.39"/>
      <stop stop-color="#EE1847" offset="0.45"/>
      <stop stop-color="#CB184D" offset="0.56"/>
      <stop stop-color="#72175B" offset="0.8"/>
      <stop stop-color="#61175E" offset="0.85"/>
    </linearGradient>
    <linearGradient id="tracetest_gradient_03" x1="11.5743" y1="75.6951" x2="81.1254" y2="6.12825" gradientUnits="userSpaceOnUse">
      <stop stop-color="#FDE87E"/>
      <stop stop-color="#FBD178" offset="0.06"/>
      <stop stop-color="#F79668" offset="0.2"/>
      <stop stop-color="#F03950" offset="0.39"/>
      <stop stop-color="#EE1847" offset="0.45"/>
      <stop stop-color="#CB184D" offset="0.56"/>
      <stop stop-color="#72175B" offset="0.8"/>
      <stop stop-color="#61175E" offset="0.85"/>
    </linearGradient>
    <linearGradient id="tracetest_gradient_04" x1="25.2268" y1="89.3523" x2="94.7861" y2="19.7773" gradientUnits="userSpaceOnUse">
      <stop stop-color="#FDE87E"/>
      <stop stop-color="#FBD178" offset="0.06"/>
      <stop stop-color="#F79668" offset="0.2"/>
      <stop stop-color="#F03950" offset="0.39"/>
      <stop stop-color="#EE1847" offset="0.45"/>
      <stop stop-color="#CB184D" offset="0.56"/>
      <stop stop-color="#72175B" offset="0.8"/>
      <stop stop-color="#61175E" offset="0.85"/>
    </linearGradient>
    <linearGradient id="tracetest_gradient_05" x1="17.0553" y1="81.174" x2="86.6065" y2="11.6071" gradientUnits="userSpaceOnUse">
      <stop stop-color="#FDE87E"/>
      <stop stop-color="#FBD178" offset="0.06"/>
      <stop stop-color="#F79668" offset="0.2"/>
      <stop stop-color="#F03950" offset="0.39"/>
      <stop stop-color="#EE1847" offset="0.45"/>
      <stop stop-color="#CB184D" offset="0.56"/>
      <stop stop-color="#72175B" offset="0.8"/>
      <stop stop-color="#61175E" offset="0.85"/>
    </linearGradient>
    <linearGradient id="tracetest_gradient_06" x1="11.1852" y1="75.3058" x2="80.7364" y2="5.73897" gradientUnits="userSpaceOnUse">
      <stop stop-color="#FDE87E"/>
      <stop stop-color="#FBD178" offset="0.06"/>
      <stop stop-color="#F79668" offset="0.2"/>
      <stop stop-color="#F03950" offset="0.39"/>
      <stop stop-color="#EE1847" offset="0.45"/>
      <stop stop-color="#CB184D" offset="0.56"/>
      <stop stop-color="#72175B" offset="0.8"/>
      <stop stop-color="#61175E" offset="0.85"/>
    </linearGradient>
    <linearGradient id="tracetest_gradient_07" x1="1.81499" y1="65.9361" x2="71.3662" y2="-3.63075" gradientUnits="userSpaceOnUse">
      <stop stop-color="#FDE87E"/>
      <stop stop-color="#FBD178" offset="0.06"/>
      <stop stop-color="#F79668" offset="0.2"/>
      <stop stop-color="#F03950" offset="0.39"/>
      <stop stop-color="#EE1847" offset="0.45"/>
      <stop stop-color="#CB184D" offset="0.56"/>
      <stop stop-color="#72175B" offset="0.8"/>
      <stop stop-color="#61175E" offset="0.85"/>
    </linearGradient>
  </defs>
  <g>
    <path fill="#61175E" d="M59.9558 30.4433C59.9565 29.9274 59.8543 29.4166 59.6553 28.9406C59.4562 28.4647 59.1643 28.0332 58.7965 27.6713C58.0584 26.9383 57.0602 26.5269 56.0198 26.5269C54.9795 26.5269 53.9813 26.9383 53.2432 27.6713L40.7745 40.2263L33.997 33.4828C33.6331 33.1187 33.2008 32.8303 32.7249 32.6342C32.2491 32.438 31.7391 32.338 31.2244 32.3399C30.7084 32.3393 30.1974 32.4414 29.7213 32.6404C29.2453 32.8394 28.8137 33.1313 28.4517 33.499C27.7166 34.2359 27.3037 35.2342 27.3037 36.275C27.3037 37.3158 27.7166 38.3141 28.4517 39.0511L40.7988 51.3224L58.8127 33.2315C59.1781 32.8653 59.4672 32.4303 59.6634 31.9517C59.8596 31.4732 59.959 30.9605 59.9558 30.4433Z"/>
    <path fill="url(#tracetest_gradient_01)" d="M21.3514 19.8091C20.9322 19.3929 20.3654 19.1592 19.7746 19.1592C19.1838 19.1592 18.6169 19.3929 18.1978 19.8091L0.5 37.5029L5.22643 42.2282C5.4335 42.4353 5.67933 42.5995 5.94988 42.7115C6.22043 42.8236 6.51041 42.8812 6.80325 42.8812C7.0961 42.8812 7.38607 42.8236 7.65663 42.7115C7.92718 42.5995 8.17301 42.4353 8.38008 42.2282C8.58715 42.0212 8.75141 41.7754 8.86348 41.505C8.97554 41.2345 9.03322 40.9446 9.03322 40.6518C9.03322 40.359 8.97554 40.0691 8.86348 39.7986C8.75141 39.5281 8.58715 39.2823 8.38008 39.0753L6.80731 37.5029L6.93702 37.3732L21.3514 22.9621C21.7678 22.543 22.0014 21.9763 22.0014 21.3856C22.0014 20.7949 21.7678 20.2282 21.3514 19.8091Z"/>
    <path fill="url(#tracetest_gradient_02)" d="M77.5904 39.6023C77.8904 39.6088 78.1887 39.5548 78.4673 39.4434C78.7459 39.332 78.9991 39.1655 79.2118 38.9538L86.8568 31.3025L55.5149 0L40.7357 14.7759L31.8909 5.93305L24.4567 13.3656C24.0403 13.7846 23.8066 14.3514 23.8066 14.942C23.8066 15.5327 24.0403 16.0994 24.4567 16.5185C24.8758 16.9348 25.4427 17.1684 26.0335 17.1684C26.6243 17.1684 27.1911 16.9348 27.6103 16.5185L31.8909 12.2389L40.7357 21.0737L55.5149 6.30589L55.6446 6.43557L80.5171 31.3025L76.0177 35.8009C75.7074 36.1126 75.4962 36.5091 75.4108 36.9405C75.3254 37.3719 75.3695 37.8189 75.5376 38.2253C75.7058 38.6317 75.9904 38.9793 76.3557 39.2243C76.721 39.4693 77.1506 39.6008 77.5904 39.6023Z"/>
    <path fill="url(#tracetest_gradient_03)" d="M11.8904 48.0805L40.776 77L47.8534 69.9241C48.2698 69.505 48.5035 68.9383 48.5035 68.3477C48.5035 67.757 48.2698 67.1903 47.8534 66.7712C47.4343 66.3549 46.8674 66.1213 46.2766 66.1213C45.6858 66.1213 45.119 66.3549 44.6998 66.7712L40.776 70.6941L40.6462 70.5158L15.0441 44.9275C14.6259 44.5094 14.0587 44.2745 13.4673 44.2745C12.8758 44.2745 12.3086 44.5094 11.8904 44.9275C11.4722 45.3456 11.2373 45.9127 11.2373 46.504C11.2373 47.0953 11.4722 47.6624 11.8904 48.0805Z"/>
    <path fill="url(#tracetest_gradient_04)" d="M71.1291 41.2314C70.8365 41.231 70.5467 41.2889 70.2767 41.4016C70.0067 41.5143 69.7618 41.6796 69.5563 41.8879L50.983 60.4489C50.5667 60.868 50.333 61.4347 50.333 62.0254C50.333 62.6161 50.5667 63.1828 50.983 63.6019C51.4022 64.0181 51.969 64.2518 52.5598 64.2518C53.1507 64.2518 53.7175 64.0181 54.1367 63.6019L72.71 45.0328C73.0208 44.7206 73.2321 44.3233 73.3173 43.8912C73.4024 43.459 73.3576 43.0113 73.1885 42.6046C73.0193 42.1979 72.7334 41.8504 72.3669 41.606C72.0004 41.3616 71.5697 41.2312 71.1291 41.2314Z"/>
    <path fill="url(#tracetest_gradient_05)" d="M35.5719 59.1682L40.6793 64.2745L56.3503 48.5665C56.7717 48.1484 57.0098 47.5801 57.012 46.9865C57.0143 46.3929 56.7807 45.8227 56.3625 45.4014C55.9443 44.9801 55.3758 44.7421 54.7821 44.7398C54.1884 44.7375 53.6181 44.9712 53.1966 45.3893L40.6793 57.9362L38.7255 55.9828C38.5163 55.7758 38.2684 55.612 37.9959 55.5008C37.7233 55.3895 37.4316 55.3331 37.1372 55.3346C36.8429 55.3361 36.5517 55.3955 36.2803 55.5095C36.009 55.6236 35.7627 55.7899 35.5557 55.999C35.3486 56.2082 35.1847 56.4561 35.0735 56.7285C34.9622 57.001 34.9058 57.2927 34.9073 57.587C34.9088 57.8812 34.9682 58.1724 35.0823 58.4437C35.1963 58.715 35.3627 58.9612 35.5719 59.1682Z"/>
    <path fill="url(#tracetest_gradient_06)" d="M55.4093 12.6603L51.1369 16.9399C50.9145 17.1432 50.7356 17.3895 50.6112 17.6639C50.4867 17.9383 50.4191 18.2351 50.4126 18.5364C50.4061 18.8376 50.4608 19.137 50.5732 19.4166C50.6857 19.6961 50.8537 19.9499 51.0671 20.1627C51.2805 20.3755 51.5348 20.5428 51.8147 20.6546C52.0946 20.7663 52.3942 20.8202 52.6955 20.8129C52.9968 20.8056 53.2935 20.7373 53.5676 20.6121C53.8418 20.487 54.0877 20.3075 54.2905 20.0847L55.4093 18.9662L55.539 19.0958L67.5294 31.0835L59.3331 39.286C58.9168 39.7051 58.6831 40.2718 58.6831 40.8625C58.6831 41.4532 58.9168 42.0199 59.3331 42.439C59.7523 42.8552 60.3191 43.0889 60.9099 43.0889C61.5008 43.0889 62.0676 42.8552 62.4868 42.439L73.8367 31.0916L55.4093 12.6603Z"/>
    <path fill="url(#tracetest_gradient_07)" d="M47.8064 26.5364C48.2246 26.1183 48.4596 25.5513 48.4596 24.96C48.4596 24.3687 48.2246 23.8016 47.8064 23.3835C47.3882 22.9654 46.821 22.7305 46.2296 22.7305C45.6382 22.7305 45.071 22.9654 44.6528 23.3835L40.7452 27.2983L31.9328 18.4879L13.3838 37.0327L29.144 52.7975C29.5622 53.2156 30.1294 53.4505 30.7208 53.4505C31.3122 53.4505 31.8794 53.2156 32.2976 52.7975C32.7158 52.3793 32.9507 51.8123 32.9507 51.221C32.9507 50.6297 32.7158 50.0626 32.2976 49.6445L19.683 37.0327L19.8127 36.9031L31.9733 24.7452L40.7452 33.5961L47.8064 26.5364Z"/>
  </g>
</svg>