<svg viewBox="0 0 32 32" xmlns="http://www.w3.org/2000/svg">
  <title>VictoriaMetrics Cloud</title>
  <g>
    <path fill="#ffffff" transform="translate(2, 0)"
      d="m 30.94,11.139 h 1.721 c 0.188,0 0.336,0.039 0.455,0.128 0.119,0.089 0.208,0.197 0.257,0.335 l 1.79,4.925 c 0.079,0.217 0.158,0.443 0.247,0.699 0.079,0.256 0.158,0.522 0.227,0.798 0.059,-0.276 0.129,-0.542 0.208,-0.798 0.079,-0.256 0.158,-0.483 0.227,-0.699 l 1.77,-4.925 c 0.04,-0.118 0.129,-0.227 0.247,-0.315 0.119,-0.098 0.277,-0.138 0.445,-0.138 h 1.73 l -3.698,9.189 H 34.628 L 30.93,11.149 Z m 12.35,0.857 c 0,0.158 -0.03,0.305 -0.099,0.433 -0.059,0.138 -0.148,0.256 -0.257,0.364 -0.109,0.098 -0.237,0.187 -0.386,0.246 -0.149,0.059 -0.297,0.089 -0.465,0.089 -0.168,0 -0.307,-0.03 -0.455,-0.089 -0.138,-0.059 -0.267,-0.148 -0.366,-0.246 -0.109,-0.098 -0.188,-0.227 -0.257,-0.364 -0.059,-0.138 -0.089,-0.286 -0.089,-0.433 0,-0.147 0.03,-0.305 0.089,-0.453 0.059,-0.138 0.148,-0.256 0.257,-0.364 0.109,-0.108 0.227,-0.187 0.366,-0.246 0.138,-0.059 0.287,-0.089 0.455,-0.089 0.168,0 0.316,0.03 0.465,0.089 0.148,0.059 0.277,0.138 0.386,0.246 0.109,0.108 0.198,0.227 0.257,0.364 0.059,0.137 0.099,0.286 0.099,0.453 z m -0.227,1.793 v 6.54 h -1.968 v -6.54 z m 6.318,1.556 c -0.059,0.069 -0.119,0.128 -0.168,0.167 -0.059,0.039 -0.128,0.059 -0.237,0.059 -0.109,0 -0.188,-0.02 -0.267,-0.069 -0.079,-0.049 -0.168,-0.098 -0.267,-0.158 -0.099,-0.06 -0.208,-0.108 -0.346,-0.158 -0.129,-0.049 -0.297,-0.069 -0.485,-0.069 -0.237,0 -0.445,0.039 -0.623,0.128 -0.178,0.089 -0.316,0.217 -0.435,0.374 -0.119,0.158 -0.198,0.364 -0.257,0.601 -0.059,0.237 -0.079,0.502 -0.079,0.808 0,0.63 0.119,1.103 0.366,1.448 0.247,0.335 0.574,0.502 1.009,0.502 0.228,0 0.405,-0.03 0.544,-0.089 0.128,-0.059 0.247,-0.118 0.336,-0.187 0.089,-0.069 0.178,-0.138 0.257,-0.197 0.079,-0.059 0.178,-0.089 0.297,-0.089 0.158,0 0.277,0.059 0.356,0.167 l 0.574,0.699 c -0.208,0.227 -0.416,0.424 -0.643,0.561 -0.227,0.148 -0.455,0.256 -0.692,0.345 -0.237,0.079 -0.465,0.138 -0.702,0.167 -0.237,0.029 -0.465,0.049 -0.692,0.049 -0.405,0 -0.781,-0.079 -1.147,-0.227 -0.366,-0.148 -0.682,-0.374 -0.959,-0.66 -0.277,-0.286 -0.494,-0.64 -0.663,-1.064 -0.158,-0.424 -0.247,-0.896 -0.247,-1.438 0,-0.473 0.069,-0.916 0.208,-1.32 0.138,-0.414 0.346,-0.768 0.623,-1.064 0.277,-0.296 0.623,-0.542 1.028,-0.709 0.405,-0.167 0.88,-0.256 1.414,-0.256 0.534,0 0.969,0.079 1.355,0.246 0.386,0.167 0.742,0.404 1.048,0.719 l -0.524,0.689 0.02,0.02 z m 3.728,5.092 c -0.316,0 -0.583,-0.049 -0.831,-0.138 C 52.03,20.21 51.843,20.082 51.675,19.915 51.517,19.748 51.388,19.551 51.309,19.314 51.22,19.078 51.181,18.812 51.181,18.526 v -3.378 h -0.554 c -0.099,0 -0.188,-0.03 -0.257,-0.098 -0.069,-0.068 -0.108,-0.158 -0.108,-0.286 v -0.758 l 1.048,-0.207 0.385,-1.596 c 0.05,-0.197 0.198,-0.305 0.435,-0.305 h 1.029 v 1.911 h 1.592 v 1.339 h -1.592 v 3.25 c 0,0.148 0.039,0.276 0.108,0.374 0.069,0.098 0.178,0.148 0.317,0.148 0.069,0 0.128,0 0.178,-0.02 0.05,-0.02 0.089,-0.03 0.129,-0.049 0.039,-0.02 0.069,-0.039 0.099,-0.049 0.03,-0.02 0.069,-0.02 0.108,-0.02 0.06,0 0.109,0.01 0.139,0.039 0.04,0.03 0.069,0.069 0.109,0.128 l 0.593,0.926 c -0.257,0.187 -0.534,0.335 -0.85,0.424 -0.317,0.098 -0.643,0.138 -0.979,0.138 z m 5.685,-6.747 c 0.495,0 0.95,0.079 1.365,0.236 0.406,0.158 0.762,0.374 1.058,0.67 0.297,0.286 0.524,0.64 0.682,1.054 0.158,0.414 0.247,0.877 0.247,1.399 0,0.522 -0.079,0.995 -0.247,1.408 -0.158,0.414 -0.395,0.778 -0.682,1.064 -0.287,0.286 -0.643,0.522 -1.058,0.68 -0.405,0.158 -0.86,0.236 -1.365,0.236 -0.505,0 -0.959,-0.079 -1.374,-0.236 -0.416,-0.158 -0.761,-0.384 -1.068,-0.68 -0.297,-0.296 -0.524,-0.65 -0.693,-1.064 -0.158,-0.424 -0.247,-0.886 -0.247,-1.408 0,-0.522 0.079,-0.985 0.247,-1.399 0.159,-0.414 0.396,-0.768 0.693,-1.054 0.297,-0.286 0.652,-0.512 1.068,-0.67 0.415,-0.158 0.87,-0.236 1.374,-0.236 z m 0,5.289 c 0.455,0 0.781,-0.158 0.999,-0.473 0.218,-0.315 0.317,-0.798 0.317,-1.448 0,-0.65 -0.109,-1.133 -0.317,-1.448 -0.217,-0.315 -0.544,-0.473 -0.999,-0.473 -0.455,0 -0.801,0.158 -1.018,0.473 -0.217,0.315 -0.326,0.798 -0.326,1.448 0,0.65 0.109,1.133 0.326,1.448 0.217,0.315 0.554,0.473 1.018,0.473 z m 4.421,1.35 v -6.54 h 1.167 c 0.099,0 0.178,0 0.247,0.03 0.069,0.02 0.119,0.039 0.168,0.079 0.04,0.039 0.079,0.079 0.099,0.138 0.02,0.059 0.04,0.128 0.06,0.217 l 0.108,0.611 c 0.237,-0.374 0.514,-0.66 0.811,-0.877 0.297,-0.217 0.623,-0.325 0.979,-0.325 0.297,0 0.544,0.069 0.722,0.217 l -0.257,1.438 c -0.02,0.089 -0.05,0.148 -0.099,0.187 -0.049,0.039 -0.119,0.049 -0.198,0.049 -0.069,0 -0.159,0 -0.257,-0.03 -0.098,-0.03 -0.217,-0.03 -0.366,-0.03 -0.514,0 -0.919,0.276 -1.216,0.817 v 4.009 H 63.215 Z M 70.7,11.996 c 0,0.158 -0.03,0.305 -0.099,0.433 -0.059,0.138 -0.148,0.256 -0.257,0.364 -0.109,0.098 -0.237,0.187 -0.386,0.246 -0.149,0.059 -0.297,0.089 -0.465,0.089 -0.168,0 -0.306,-0.03 -0.455,-0.089 -0.138,-0.059 -0.267,-0.148 -0.366,-0.246 -0.109,-0.098 -0.188,-0.227 -0.257,-0.364 -0.06,-0.138 -0.089,-0.286 -0.089,-0.433 0,-0.147 0.03,-0.305 0.089,-0.453 0.059,-0.138 0.148,-0.256 0.257,-0.364 0.109,-0.108 0.227,-0.187 0.366,-0.246 0.138,-0.059 0.287,-0.089 0.455,-0.089 0.168,0 0.317,0.03 0.465,0.089 0.149,0.059 0.277,0.138 0.386,0.246 0.109,0.108 0.198,0.227 0.257,0.364 0.059,0.137 0.099,0.286 0.099,0.453 z m -0.227,1.793 v 6.54 h -1.968 v -6.54 z m 6.12,6.54 c -0.188,0 -0.326,-0.03 -0.425,-0.079 -0.099,-0.049 -0.178,-0.158 -0.237,-0.315 l -0.138,-0.364 c -0.168,0.138 -0.326,0.256 -0.474,0.364 -0.148,0.108 -0.307,0.197 -0.475,0.266 -0.158,0.069 -0.336,0.128 -0.514,0.167 -0.188,0.039 -0.385,0.049 -0.613,0.049 -0.297,0 -0.574,-0.039 -0.821,-0.118 C 72.649,20.22 72.441,20.102 72.273,19.954 72.105,19.806 71.966,19.609 71.878,19.383 71.789,19.156 71.74,18.9 71.74,18.605 c 0,-0.236 0.059,-0.473 0.178,-0.719 0.119,-0.246 0.326,-0.463 0.613,-0.67 0.287,-0.197 0.683,-0.364 1.177,-0.502 0.494,-0.138 1.117,-0.207 1.869,-0.207 v -0.276 c 0,-0.384 -0.079,-0.67 -0.237,-0.837 -0.158,-0.167 -0.385,-0.256 -0.672,-0.256 -0.237,0 -0.425,0.03 -0.574,0.079 -0.149,0.049 -0.277,0.108 -0.395,0.167 -0.118,0.059 -0.227,0.118 -0.336,0.167 -0.109,0.049 -0.237,0.079 -0.395,0.079 -0.138,0 -0.247,-0.03 -0.346,-0.098 -0.099,-0.068 -0.168,-0.148 -0.228,-0.246 l -0.356,-0.611 c 0.395,-0.345 0.841,-0.611 1.325,-0.778 0.484,-0.167 0.999,-0.256 1.553,-0.256 0.395,0 0.751,0.059 1.078,0.197 0.317,0.128 0.594,0.305 0.811,0.532 0.217,0.227 0.395,0.502 0.514,0.817 0.118,0.315 0.178,0.66 0.178,1.034 v 4.087 h -0.9 v 0.02 z m -2.254,-1.192 c 0.257,0 0.475,-0.039 0.662,-0.128 0.187,-0.089 0.385,-0.227 0.574,-0.433 V 17.68 c -0.395,0 -0.712,0.03 -0.969,0.079 -0.257,0.049 -0.455,0.118 -0.603,0.187 -0.149,0.079 -0.247,0.167 -0.307,0.266 -0.06,0.099 -0.089,0.207 -0.089,0.315 0,0.227 0.059,0.384 0.188,0.473 0.119,0.089 0.307,0.138 0.534,0.138 h 0.01 z m 9.512,-1.753 c 0.04,0.108 0.089,0.227 0.129,0.335 0.039,-0.118 0.089,-0.227 0.128,-0.335 0.039,-0.108 0.099,-0.217 0.158,-0.325 l 3.075,-5.555 c 0.059,-0.098 0.108,-0.158 0.168,-0.177 0.06,-0.019 0.148,-0.03 0.257,-0.03 h 0.91 v 9.042 h -1.078 v -6.638 c 0,-0.089 0,-0.187 0,-0.286 0,-0.099 0.01,-0.207 0.02,-0.305 l -3.115,5.653 c -0.109,0.187 -0.257,0.286 -0.445,0.286 H 83.88 c -0.188,0 -0.336,-0.098 -0.445,-0.286 L 80.251,13.09 c 0.01,0.108 0.02,0.217 0.03,0.325 0.01,0.108 0,0.207 0,0.286 v 6.638 h -1.078 v -9.042 h 0.91 c 0.108,0 0.198,0.01 0.257,0.03 0.059,0.02 0.118,0.079 0.168,0.177 l 3.135,5.565 c 0.059,0.098 0.109,0.207 0.158,0.315 z m 9.394,-3.546 c 0.385,0 0.741,0.069 1.068,0.197 0.327,0.128 0.603,0.315 0.84,0.552 0.237,0.246 0.426,0.542 0.554,0.896 0.128,0.354 0.198,0.758 0.198,1.211 0,0.177 -0.02,0.296 -0.059,0.355 -0.039,0.059 -0.109,0.089 -0.218,0.089 h -4.272 c 0,0.404 0.059,0.758 0.168,1.054 0.099,0.296 0.237,0.552 0.416,0.749 0.179,0.197 0.385,0.345 0.633,0.443 0.247,0.098 0.524,0.148 0.821,0.148 0.287,0 0.524,-0.03 0.732,-0.098 0.208,-0.068 0.386,-0.138 0.534,-0.207 0.149,-0.079 0.267,-0.148 0.366,-0.207 0.099,-0.069 0.188,-0.099 0.257,-0.099 0.089,0 0.168,0.039 0.218,0.108 l 0.316,0.414 c -0.138,0.167 -0.306,0.315 -0.504,0.443 -0.198,0.128 -0.406,0.227 -0.623,0.305 -0.217,0.079 -0.455,0.138 -0.682,0.177 -0.237,0.039 -0.475,0.059 -0.702,0.059 -0.445,0 -0.851,-0.079 -1.226,-0.227 -0.375,-0.148 -0.693,-0.364 -0.969,-0.66 -0.277,-0.295 -0.485,-0.64 -0.633,-1.074 -0.149,-0.424 -0.228,-0.916 -0.228,-1.468 0,-0.443 0.069,-0.867 0.208,-1.251 0.139,-0.384 0.336,-0.719 0.593,-1.005 0.257,-0.286 0.574,-0.502 0.939,-0.67 0.376,-0.158 0.791,-0.246 1.256,-0.246 v 0.01 z m 0.03,0.827 c -0.544,0 -0.969,0.158 -1.286,0.473 -0.317,0.315 -0.504,0.748 -0.583,1.3 h 3.49 c 0,-0.256 -0.04,-0.502 -0.109,-0.719 C 94.718,15.502 94.609,15.315 94.471,15.158 94.333,15 94.164,14.882 93.957,14.794 93.759,14.705 93.532,14.666 93.275,14.666 Z m 6.011,5.762 c -0.504,0 -0.9,-0.138 -1.167,-0.424 -0.267,-0.286 -0.406,-0.689 -0.406,-1.221 v -3.91 h -0.771 c -0.069,0 -0.129,-0.02 -0.168,-0.059 -0.05,-0.039 -0.069,-0.098 -0.069,-0.187 v -0.443 l 1.048,-0.128 0.257,-1.97 c 0,-0.059 0.039,-0.118 0.079,-0.158 0.04,-0.04 0.109,-0.059 0.178,-0.059 h 0.574 v 2.206 h 1.839 v 0.817 h -1.839 v 3.831 c 0,0.266 0.069,0.473 0.198,0.601 0.129,0.128 0.297,0.197 0.504,0.197 0.118,0 0.217,-0.02 0.306,-0.049 0.089,-0.029 0.159,-0.069 0.228,-0.108 0.069,-0.039 0.118,-0.069 0.158,-0.108 0.04,-0.03 0.079,-0.049 0.118,-0.049 0.059,0 0.109,0.039 0.158,0.108 l 0.327,0.532 c -0.198,0.177 -0.426,0.325 -0.702,0.424 -0.276,0.099 -0.554,0.158 -0.851,0.158 z m 2.779,-0.098 v -6.392 h 0.643 c 0.118,0 0.207,0.02 0.257,0.069 0.05,0.049 0.079,0.128 0.099,0.236 l 0.079,0.995 c 0.217,-0.443 0.494,-0.798 0.811,-1.044 0.326,-0.246 0.702,-0.374 1.137,-0.374 0.178,0 0.336,0.02 0.485,0.059 0.149,0.039 0.277,0.098 0.395,0.167 l -0.149,0.837 c -0.03,0.108 -0.099,0.158 -0.198,0.158 -0.059,0 -0.149,-0.02 -0.277,-0.059 -0.128,-0.039 -0.297,-0.059 -0.514,-0.059 -0.395,0 -0.722,0.118 -0.989,0.345 -0.267,0.227 -0.484,0.561 -0.662,0.995 v 4.068 h -1.117 z m 6.615,-8.392 c 0,0.108 -0.02,0.207 -0.069,0.305 -0.039,0.098 -0.099,0.177 -0.178,0.256 -0.069,0.079 -0.158,0.128 -0.257,0.177 -0.099,0.039 -0.198,0.059 -0.306,0.059 -0.108,0 -0.208,-0.02 -0.307,-0.059 -0.099,-0.039 -0.178,-0.099 -0.257,-0.177 -0.069,-0.069 -0.129,-0.158 -0.178,-0.256 -0.04,-0.098 -0.059,-0.197 -0.059,-0.305 0,-0.108 0.02,-0.217 0.059,-0.315 0.04,-0.098 0.099,-0.187 0.178,-0.256 0.069,-0.069 0.158,-0.128 0.257,-0.177 0.099,-0.039 0.198,-0.059 0.307,-0.059 0.109,0 0.217,0.02 0.306,0.059 0.099,0.039 0.178,0.098 0.257,0.177 0.069,0.079 0.128,0.158 0.178,0.256 0.04,0.099 0.069,0.207 0.069,0.315 z m -0.257,2.009 v 6.392 h -1.127 v -6.392 z m 6.368,1.133 c 0,0 -0.069,0.079 -0.099,0.108 -0.03,0.029 -0.079,0.039 -0.149,0.039 -0.069,0 -0.128,-0.03 -0.207,-0.079 -0.079,-0.049 -0.168,-0.108 -0.287,-0.177 -0.118,-0.069 -0.247,-0.118 -0.415,-0.177 -0.159,-0.049 -0.366,-0.079 -0.603,-0.079 -0.317,0 -0.584,0.059 -0.831,0.167 -0.237,0.108 -0.445,0.276 -0.603,0.483 -0.158,0.207 -0.287,0.463 -0.366,0.758 -0.079,0.295 -0.119,0.63 -0.119,1.005 0,0.375 0.04,0.729 0.128,1.034 0.089,0.305 0.218,0.552 0.376,0.758 0.158,0.206 0.356,0.364 0.584,0.463 0.227,0.098 0.484,0.158 0.771,0.158 0.287,0 0.504,-0.03 0.682,-0.098 0.178,-0.069 0.326,-0.138 0.445,-0.217 0.119,-0.079 0.217,-0.148 0.287,-0.217 0.079,-0.069 0.149,-0.098 0.227,-0.098 0.099,0 0.168,0.039 0.218,0.108 l 0.316,0.414 c -0.277,0.345 -0.623,0.591 -1.048,0.748 -0.425,0.157 -0.86,0.236 -1.325,0.236 -0.405,0 -0.771,-0.069 -1.117,-0.217 -0.346,-0.148 -0.643,-0.364 -0.9,-0.64 -0.257,-0.276 -0.455,-0.62 -0.593,-1.034 -0.149,-0.404 -0.218,-0.877 -0.218,-1.399 0,-0.473 0.069,-0.916 0.198,-1.32 0.129,-0.404 0.327,-0.749 0.584,-1.044 0.257,-0.296 0.574,-0.522 0.949,-0.68 0.375,-0.158 0.811,-0.246 1.296,-0.246 0.445,0 0.84,0.069 1.186,0.217 0.346,0.148 0.652,0.355 0.919,0.611 l -0.297,0.404 0.01,0.01 z M 120.002,15 c -0.05,0.089 -0.129,0.138 -0.237,0.138 -0.06,0 -0.138,-0.02 -0.218,-0.069 -0.08,-0.049 -0.178,-0.098 -0.297,-0.158 -0.118,-0.059 -0.257,-0.108 -0.415,-0.158 -0.158,-0.05 -0.346,-0.069 -0.574,-0.069 -0.188,0 -0.366,0.02 -0.514,0.069 -0.148,0.049 -0.287,0.118 -0.385,0.197 -0.109,0.089 -0.188,0.177 -0.247,0.295 -0.059,0.118 -0.089,0.236 -0.089,0.364 0,0.167 0.049,0.305 0.138,0.414 0.099,0.108 0.217,0.207 0.375,0.286 0.158,0.079 0.336,0.148 0.534,0.207 0.198,0.059 0.406,0.128 0.613,0.197 0.207,0.069 0.416,0.148 0.613,0.227 0.198,0.089 0.375,0.187 0.534,0.315 0.159,0.128 0.287,0.276 0.375,0.463 0.099,0.187 0.138,0.404 0.138,0.66 0,0.296 -0.049,0.571 -0.158,0.817 -0.109,0.246 -0.267,0.463 -0.465,0.65 -0.208,0.187 -0.455,0.325 -0.761,0.433 -0.297,0.108 -0.643,0.158 -1.038,0.158 -0.445,0 -0.851,-0.069 -1.216,-0.217 -0.365,-0.148 -0.672,-0.335 -0.919,-0.561 l 0.267,-0.433 c 0.03,-0.059 0.079,-0.098 0.118,-0.128 0.039,-0.03 0.109,-0.039 0.188,-0.039 0.079,0 0.158,0.03 0.237,0.089 0.089,0.059 0.188,0.128 0.306,0.197 0.118,0.069 0.267,0.138 0.435,0.197 0.168,0.059 0.386,0.089 0.643,0.089 0.218,0 0.416,-0.03 0.574,-0.089 0.168,-0.059 0.307,-0.138 0.415,-0.227 0.109,-0.098 0.188,-0.207 0.247,-0.335 0.05,-0.128 0.079,-0.256 0.079,-0.404 0,-0.177 -0.05,-0.325 -0.138,-0.433 -0.099,-0.118 -0.218,-0.217 -0.376,-0.295 -0.158,-0.078 -0.336,-0.158 -0.534,-0.217 -0.198,-0.059 -0.406,-0.128 -0.613,-0.197 -0.207,-0.069 -0.415,-0.148 -0.613,-0.227 -0.198,-0.089 -0.376,-0.197 -0.534,-0.325 -0.158,-0.128 -0.287,-0.295 -0.376,-0.483 -0.099,-0.187 -0.138,-0.424 -0.138,-0.699 0,-0.246 0.05,-0.483 0.149,-0.699 0.099,-0.216 0.247,-0.424 0.445,-0.591 0.198,-0.167 0.435,-0.305 0.712,-0.404 0.277,-0.099 0.603,-0.148 0.969,-0.148 0.425,0 0.801,0.069 1.137,0.197 0.336,0.128 0.623,0.315 0.87,0.542 l -0.257,0.414 V 15 Z M 11.579,14.075 c 0.554,0.463 1.454,0.798 2.363,0.817 h 0.089 c 0.91,-0.02 1.819,-0.355 2.363,-0.817 C 19.242,11.652 27.498,4.108 27.498,4.108 29.733,2.059 23.563,0.021 14.05,0.001 H 13.961 C 4.419,0.021 -1.771,2.059 0.454,4.098 c 0,0 8.276,7.544 11.124,9.967 v 0.01 z m 4.835,4.077 C 15.86,18.615 14.96,18.95 14.051,18.969 H 13.962 C 13.052,18.949 12.143,18.614 11.599,18.152 9.611,16.468 2.65,10.174 0.03,7.801 v 3.634 c 0,0.404 0.148,0.926 0.425,1.182 1.77,1.615 8.652,7.909 11.144,10.007 0.554,0.463 1.454,0.798 2.363,0.817 h 0.089 c 0.91,-0.02 1.819,-0.355 2.363,-0.817 2.472,-2.108 9.354,-8.372 11.144,-10.007 0.277,-0.256 0.425,-0.778 0.425,-1.182 V 7.801 c -2.64,2.374 -9.601,8.687 -11.569,10.342 v 0.01 z m 0,8.559 c -0.554,0.463 -1.454,0.798 -2.363,0.817 H 13.962 C 13.052,27.508 12.143,27.173 11.599,26.711 9.611,25.027 2.65,18.733 0.03,16.36 v 3.634 c 0,0.404 0.148,0.926 0.425,1.182 1.77,1.615 8.652,7.909 11.144,10.007 0.554,0.463 1.454,0.798 2.363,0.817 h 0.089 c 0.91,-0.02 1.819,-0.355 2.363,-0.817 2.472,-2.108 9.354,-8.372 11.144,-10.007 0.277,-0.256 0.425,-0.778 0.425,-1.182 V 16.36 c -2.64,2.374 -9.601,8.687 -11.569,10.342 v 0.01 z" />
  </g>
</svg>